<?xml version="1.0" encoding="utf-8"?>
<!-- Generator: Adobe Illustrator 24.1.3, SVG Export Plug-In . SVG Version: 6.00 Build 0)  -->
<svg version="1.1" id="Layer_1" xmlns="http://www.w3.org/2000/svg" xmlns:xlink="http://www.w3.org/1999/xlink" x="0px" y="0px"
	 viewBox="0 0 100 100" style="enable-background:new 0 0 100 100;" xml:space="preserve">
<style type="text/css">
	.st0{fill:#A5A5A5;}
</style>
<g id="Group_1208" transform="translate(-302.621 -100.471)">
	<path id="Path_13" class="st0" d="M345.2,196.7l-5.8-0.4c-6.9-0.3-13.7-1.3-20.4-2.9c-1.2-0.3-2.4-0.8-3.6-1.2
		c-0.8-0.3-1.5-1-1.6-1.9c-0.3-1.1-0.4-2.3-0.4-3.5c0-5.5,0.6-10.9,1.8-16.3c0.8-3.6,2.3-7.1,4.4-10.2c1.6-2,3.7-3.4,6.2-4.2
		c3.2-1.2,6.3-2.5,9.5-3.9c0.4-0.1,0.7-0.3,1-0.6c0.6-0.6,1.6-0.7,2.2-0.1c0,0,0.1,0.1,0.1,0.1c0.4,0.3,0.6,0.7,0.6,1.2
		c-0.1,3.3-0.1,6.6-0.2,9.9c0,0.5,0.1,1,0.3,1.5c3.3,9,6.7,18,10.1,27l0.2,0.5c0.2,0.9,1.1,1.4,2,1.1c0.6-0.1,1-0.6,1.1-1.1
		c0.8-2.1,1.6-4.2,2.4-6.3c2.6-7,5.2-14,7.9-21c0.2-0.5,0.3-1,0.3-1.5c0-3.3-0.1-6.6-0.2-9.9c0-1.1,0.8-1.2,1.4-1.6
		c0.2-0.2,0.8,0,1.2,0.2c3.3,1.9,6.7,3.4,10.3,4.4c3.9,1.1,7.1,3.9,8.7,7.6c2.1,4.8,3.4,9.9,3.9,15.1c0.3,3.1,0.3,6.3,0.4,9.5
		c0,0.6-0.1,1.3-0.3,1.9c-0.2,1.1-1.1,2.1-2.2,2.4c-5.4,1.8-11.1,2.9-16.8,3.3c-3.9,0.4-7.9,0.5-11.8,0.8c-0.2,0-0.5,0.1-0.7,0.1
		L345.2,196.7z"/>
	<path id="Path_14" class="st0" d="M369.8,120c-0.4,2-0.8,4-1.3,6c-0.1,0.4,0,0.9,0.2,1.3c0.5,0.8,0.7,1.8,0.7,2.7
		c0.1,2.2-0.5,4.3-1.7,6.2c-0.1,0.2-0.2,0.5-0.2,0.8c-1,4.8-3.5,9.1-7,12.4c-4.6,5.1-12.5,5.6-17.6,1c-0.2-0.2-0.5-0.4-0.7-0.7
		c-3.9-3.3-6.5-7.8-7.4-12.9c0-0.2-0.1-0.5-0.2-0.7c-1.3-2.1-1.9-4.6-1.8-7.1c0-0.6,0.2-1.2,0.6-1.7c0.3-0.4,0.4-0.9,0.2-1.3
		c-0.8-2.8-1-5.7-0.5-8.6c1.6-8.3,9.3-13.9,17.7-13c5,0.6,9.8,2.5,13.9,5.5c3.2,2.3,5.1,6.1,5,10.1L369.8,120z"/>
	<path id="Path_15" class="st0" d="M350.5,162.6l-4-6.2c3,1,6.3,1.1,9.4,0.1l-4,6.1c1.1,1.2,2.1,2.3,3.1,3.4
		c0.3,0.3,0.4,0.7,0.4,1.1c-1.2,7.5-2.4,14.9-3.7,22.4c-0.1,0.3-0.3,0.5-0.5,0.8c-0.2-0.3-0.5-0.5-0.5-0.8
		c-1.2-7.4-2.4-14.9-3.7-22.3c-0.1-0.5,0.1-1,0.5-1.3C348.5,164.8,349.5,163.7,350.5,162.6z"/>
</g>
</svg>
