<?xml version="1.0" encoding="utf-8"?>
<!-- Generator: Adobe Illustrator 24.1.3, SVG Export Plug-In . SVG Version: 6.00 Build 0)  -->
<svg version="1.1" id="Layer_1" xmlns="http://www.w3.org/2000/svg" xmlns:xlink="http://www.w3.org/1999/xlink" x="0px" y="0px"
	 viewBox="0 0 100 100" style="enable-background:new 0 0 100 100;" xml:space="preserve">
<style type="text/css">
	.st0{fill:#A5A5A5;}
</style>
<g id="User-2">
	<path id="Path" class="st0" d="M49.8,5.9c-11.1,0-20.1,9-20.1,20.1s9,20.1,20.1,20.1c11.1,0,20.1-9,20.1-20.1c0,0,0,0,0,0
		C69.9,14.9,60.9,5.9,49.8,5.9z"/>
	<path id="Path-2" class="st0" d="M28.3,56.8c-11.1,0-20.1,9-20.1,20.1v6.4c0,4,2.9,7.5,6.9,8.1c22.9,3.7,46.3,3.7,69.3,0
		c4-0.6,6.9-4.1,6.9-8.1v-6.4c0-11.1-9-20.1-20.1-20.1c0,0,0,0,0,0h-1.8c-1,0-2,0.2-2.9,0.5l-4.6,1.5c-7.8,2.6-16.3,2.6-24.1,0
		l-4.6-1.5c-0.9-0.3-1.9-0.5-2.9-0.5H28.3z"/>
</g>
</svg>
