<?xml version="1.0" encoding="utf-8"?>
<!-- Generator: Adobe Illustrator 24.1.3, SVG Export Plug-In . SVG Version: 6.00 Build 0)  -->
<svg version="1.1" id="Layer_1" xmlns="http://www.w3.org/2000/svg" xmlns:xlink="http://www.w3.org/1999/xlink" x="0px" y="0px"
	 viewBox="0 0 100 100" style="enable-background:new 0 0 100 100;" xml:space="preserve">
<style type="text/css">
	.st0{fill:#A5A5A5;}
</style>
<path id="Icon_awesome-calendar-alt" class="st0" d="M8.1,86.7c0,4.8,3.9,8.6,8.6,8.6c0,0,0,0,0,0h63.4c4.8,0,8.6-3.9,8.6-8.6v0v-49
	H8.1V86.7z M65.8,51.4c0-1.2,1-2.2,2.2-2.2h7.2c1.2,0,2.2,1,2.2,2.2v7.2c0,1.2-1,2.2-2.2,2.2h-7.2c-1.2,0-2.2-1-2.2-2.2V51.4z
	 M65.8,74.5c0-1.2,1-2.2,2.2-2.2c0,0,0,0,0,0h7.2c1.2,0,2.2,1,2.2,2.2v7.3c0,1.2-1,2.2-2.2,2.2h-7.2c-1.2,0-2.2-1-2.2-2.2V74.5z
	 M42.7,51.4c0-1.2,1-2.2,2.2-2.2h7.2c1.2,0,2.2,1,2.2,2.2v7.2c0,1.2-1,2.2-2.2,2.2h-7.2c-1.2,0-2.2-1-2.2-2.2c0,0,0,0,0,0V51.4z
	 M42.7,74.5c0-1.2,1-2.2,2.2-2.2c0,0,0,0,0,0h7.2c1.2,0,2.2,1,2.2,2.2v7.3c0,1.2-1,2.2-2.2,2.2h-7.2c-1.2,0-2.2-1-2.2-2.2
	c0,0,0,0,0,0V74.5z M19.7,51.4c0-1.2,1-2.2,2.2-2.2H29c1.2,0,2.2,1,2.2,2.2v7.2c0,1.2-1,2.2-2.2,2.2h-7.2c-1.2,0-2.2-1-2.2-2.2V51.4
	z M19.7,74.5c0-1.2,1-2.2,2.2-2.2c0,0,0,0,0,0H29c1.2,0,2.2,1,2.2,2.2v7.3c0,1.2-1,2.2-2.2,2.2h-7.2c-1.2,0-2.2-1-2.2-2.2V74.5z
	 M80.2,14.7h-8.6V6c0-1.6-1.3-2.9-2.9-2.9c0,0,0,0,0,0h-5.7C61.3,3.1,60,4.4,60,6c0,0,0,0,0,0v8.6H37V6c0-1.6-1.3-2.9-2.9-2.9h-5.8
	c-1.6,0-2.9,1.3-2.9,2.9v8.6h-8.6c-4.8,0-8.6,3.9-8.6,8.6c0,0,0,0,0,0V32h80.7v-8.6C88.8,18.6,85,14.7,80.2,14.7
	C80.2,14.7,80.2,14.7,80.2,14.7L80.2,14.7z"/>
</svg>
