<?xml version="1.0" encoding="utf-8"?>
<!-- Generator: Adobe Illustrator 24.1.3, SVG Export Plug-In . SVG Version: 6.00 Build 0)  -->
<svg version="1.1" id="Layer_1" xmlns="http://www.w3.org/2000/svg" xmlns:xlink="http://www.w3.org/1999/xlink" x="0px" y="0px"
	 viewBox="0 0 500 500" style="enable-background:new 0 0 500 500;" xml:space="preserve">
<g id="Cross" transform="translate(-0.714 -0.714)">
	<path id="Path" d="M422.6,483.3c17.3,16.1,44.5,15.2,60.6-2.1c15.4-16.5,15.4-42,0-58.5L311.3,250.8l171.9-172
		c16.1-17.3,15.2-44.5-2.1-60.6c-16.5-15.4-42-15.4-58.5,0L250.7,190.1L78.7,18.2C61.4,2.1,34.3,3,18.1,20.3
		c-15.4,16.5-15.4,42,0,58.5l171.9,172L18.1,422.7C1.9,440,2.9,467.1,20.2,483.3c16.5,15.4,42,15.4,58.5,0l172-171.9L422.6,483.3z"
		/>
</g>
</svg>
