<svg id="Layer_1" data-name="Layer 1" xmlns="http://www.w3.org/2000/svg" viewBox="0 0 90.52 51.88"><defs><style>.cls-1{fill:#fff;}</style></defs><g id="arrow-ios-right"><g id="Group_3" data-name="Group 3"><path id="_Icon_Сolor-2" data-name=" Icon Сolor-2" class="cls-1" d="M4.74,34.19a8.05,8.05,0,0,1,1.51-4.74,5.92,5.92,0,0,1,9.09-.93L50.07,61.66l34.69-32a5.93,5.93,0,0,1,8.38.22,5.83,5.83,0,0,1,.71.91,8.16,8.16,0,0,1-1,10.36L54.07,77a5.84,5.84,0,0,1-8.2,0L7.14,39.89a7.88,7.88,0,0,1-2.33-5.7" transform="translate(-4.74 -26.81)"/></g></g></svg>