<?xml version="1.0" encoding="UTF-8"?>
<svg id="Layer_1" data-name="Layer 1" xmlns="http://www.w3.org/2000/svg" viewBox="0 0 91.29 91.27">
  <defs>
    <style>
      .cls-1 {
        fill: #fff;
      }
    </style>
  </defs>
  <path class="cls-1" d="m55.76,91.24c-6.77,0-13.55.01-20.32,0-7.55-.02-13.83-5.37-14.91-12.88-.3-2.1-.2-4.27-.21-6.4,0-.79-.24-1-1.02-1.02-2.48-.07-5,.03-7.42-.41-5.9-1.09-10.72-5.98-11.54-11.9-.46-3.37-.32-6.84-.33-10.27-.04-8.63,0-17.26,0-25.9,0-2.68-.03-5.36.02-8.03C.14,8.49,4.52,2.73,10.2.84,12.43.1,14.69,0,17,0c13.11.01,26.22,0,39.33.02,6.66.02,13.02,5.2,14.22,11.77.44,2.42.36,4.94.41,7.42.02.87.26,1.09,1.12,1.11,2.42.05,4.9-.11,7.23.4,6.4,1.4,10.29,5.53,11.67,11.91.32,1.49.29,3.07.29,4.6.02,13.04.01,26.09,0,39.13,0,6.99-5.42,13.48-12.3,14.59-1.79.29-3.63.29-5.45.3-5.92.03-11.85.01-17.77.01,0,0,0-.02,0-.02Zm25.43-35.5c0-6.58,0-13.17,0-19.75,0-3.49-2.06-5.59-5.56-5.62-4.38-.03-8.76,0-13.14,0-8.79,0-17.58.02-26.37,0-3.58-.01-5.78,2.16-5.75,5.74.03,3.28.02,6.55.02,9.83,0,9.89-.03,19.78-.01,29.67,0,3.51,2.11,5.57,5.6,5.57,13.2,0,26.41,0,39.61,0,3.47,0,5.59-2.12,5.59-5.58,0-6.62,0-13.23,0-19.85Zm-20.32-35.45c0-1.85.05-3.6-.01-5.36-.1-2.72-2.33-4.84-5.05-4.85-13.52-.01-27.03-.01-40.55,0-2.92,0-5.16,2.23-5.17,5.14-.01,13.51-.01,27.02,0,40.53,0,2.34,1.52,4.53,3.81,4.88,2.05.31,4.18.06,6.4.06,0-.37,0-.77,0-1.17,0-8.06,0-16.13,0-24.19,0-8.22,6.81-15.04,15.03-15.05,8.07,0,16.13,0,24.2,0,.4,0,.81,0,1.35,0Z"/>
</svg>