<?xml version="1.0" encoding="utf-8"?>
<!-- Generator: Adobe Illustrator 24.1.3, SVG Export Plug-In . SVG Version: 6.00 Build 0)  -->
<svg version="1.1" id="Layer_1" xmlns="http://www.w3.org/2000/svg" xmlns:xlink="http://www.w3.org/1999/xlink" x="0px" y="0px"
	 viewBox="0 0 100 100" style="enable-background:new 0 0 100 100;" xml:space="preserve">
<style type="text/css">
	.st0{fill:#A5A5A5;}
</style>
<g id="Group_1207" transform="translate(-291.121 -396.764)">
	<path id="Path_11" class="st0" d="M387.3,431.6v42.6c0,0-0.1,0.1-0.1,0.1c-0.7,4.5-4.8,7.7-9.3,7.3h-75c-4.7,0-8.5-3.9-8.5-8.6
		c0,0,0-0.1,0-0.1c0-13.5,0-27.1,0-40.6c0-0.2,0-0.5,0.1-0.7c0.2,0.1,0.2,0.1,0.3,0.2l37.6,25.1c5,3.7,11.8,3.7,16.8,0l33.6-22.4
		C384.4,433.4,385.9,432.5,387.3,431.6z"/>
	<path id="Path_12" class="st0" d="M387.3,421.8c-0.2,1-0.6,1.9-1.1,2.7c-0.7,1.1-1.6,2.1-2.7,2.9c-12.6,8.5-25.2,16.9-37.9,25.3
		c-2.8,2.1-6.7,2.1-9.5,0c-12.7-8.4-25.3-16.8-38-25.3c-3-1.9-4.3-5.6-3.3-9.1c1-3.6,4.2-6.1,7.9-6.3h0.8h74.8
		c3.8-0.2,7.4,2.2,8.6,5.9c0.2,0.5,0.3,1,0.4,1.5L387.3,421.8z"/>
</g>
</svg>
