<?xml version="1.0" encoding="utf-8"?>
<!-- Generator: Adobe Illustrator 24.1.3, SVG Export Plug-In . SVG Version: 6.00 Build 0)  -->
<svg version="1.1" id="Layer_1" xmlns="http://www.w3.org/2000/svg" xmlns:xlink="http://www.w3.org/1999/xlink" x="0px" y="0px"
	 viewBox="0 0 100 100" style="enable-background:new 0 0 100 100;" xml:space="preserve">
<g id="Expand">
	<path id="Path" d="M58.1,22.7c0,2,1.6,3.6,3.6,3.6l0,0h12v12c0,2,1.6,3.6,3.6,3.6c2,0,3.6-1.6,3.6-3.6V22.7c0-2-1.6-3.6-3.6-3.6
		H61.7C59.7,19,58.1,20.6,58.1,22.7C58.1,22.7,58.1,22.7,58.1,22.7z"/>
	<path id="Path-2" d="M77.4,58.1c-2,0-3.6,1.6-3.6,3.6v12H61.7c-2,0-3.6,1.6-3.6,3.6s1.6,3.6,3.6,3.6h15.7c2,0,3.6-1.6,3.6-3.6V61.7
		C81,59.7,79.4,58.1,77.4,58.1z"/>
	<path id="Path-3" d="M22.7,58.1c2,0,3.6,1.6,3.6,3.6l0,0v12h12c2,0,3.6,1.6,3.6,3.6c0,2-1.6,3.6-3.6,3.6l0,0H22.7
		c-2,0-3.6-1.6-3.6-3.6V61.7C19,59.7,20.6,58.1,22.7,58.1C22.7,58.1,22.7,58.1,22.7,58.1z"/>
	<path id="Path-4" d="M41.9,22.7c0,2-1.6,3.6-3.6,3.6h-12v12c0,2-1.6,3.6-3.6,3.6c-2,0-3.6-1.6-3.6-3.6V22.7c0-2,1.6-3.6,3.6-3.6
		c0,0,0,0,0,0h15.7C40.3,19,41.9,20.7,41.9,22.7z"/>
</g>
</svg>
