<?xml version="1.0" encoding="utf-8"?>
<!-- Generator: Adobe Illustrator 24.1.3, SVG Export Plug-In . SVG Version: 6.00 Build 0)  -->
<svg version="1.1" id="Layer_1" xmlns="http://www.w3.org/2000/svg" xmlns:xlink="http://www.w3.org/1999/xlink" x="0px" y="0px"
	 viewBox="0 0 100 100" style="enable-background:new 0 0 100 100;" xml:space="preserve">
<style type="text/css">
	.st0{fill:#FFFFFF;}
</style>
<g id="Folder-open" transform="translate(0)">
	<path id="Shape" class="st0" d="M46.5,78.6c-7,0-14.1-0.3-21.1-0.7l-6.1-0.4c-5.3-0.4-9.7-4.3-10.6-9.5c-1.8-9.8-2.1-19.8-0.9-29.7
		L8.8,29c0.7-6,5.8-10.4,11.8-10.5h9.3c4.6,0,8.7,3.1,9.9,7.5h32.9c5.8,0,10.7,4.2,11.6,9.9l0.3,1.6c0.1,0.8,0.2,1.5,0.3,2.2h0.2
		c4.7,0,8.5,3.8,8.5,8.5c0,1-0.2,2.1-0.6,3.1l-5.1,13c-1.3,3.2-3.2,6.2-5.7,8.6c-1.9,2.6-4.9,4.2-8,4.4l-6.6,0.5
		C60.6,78.4,53.5,78.6,46.5,78.6z M20.6,24.7c-2.9,0-5.4,2.2-5.8,5.1L13.7,39c-1.1,9.3-0.8,18.7,0.8,27.8c0.5,2.5,2.6,4.4,5.1,4.6
		H20L29.5,47c1.7-4.3,5.8-7.1,10.4-7.1h38.9c-0.1-0.4-0.1-0.8-0.2-1.2L78.3,37c-0.4-2.8-2.8-4.8-5.6-4.8H37.4
		c-1.8,0-3.3-1.5-3.3-3.3c0-2.3-1.9-4.2-4.2-4.2L20.6,24.7z"/>
</g>
</svg>
