<?xml version="1.0" encoding="utf-8"?>
<!-- Generator: Adobe Illustrator 24.1.3, SVG Export Plug-In . SVG Version: 6.00 Build 0)  -->
<svg version="1.1" id="Layer_1" xmlns="http://www.w3.org/2000/svg" xmlns:xlink="http://www.w3.org/1999/xlink" x="0px" y="0px"
	 viewBox="0 0 100 100" style="enable-background:new 0 0 100 100;" xml:space="preserve">
<style type="text/css">
	.st0{fill:#FFFFFF;}
	.st1{fill:#A5A5A5;}
</style>
<g id="Save" transform="translate(-0.103 -0.75)">
	<path id="Shape" class="st0" d="M-240.88-328.25h-12.01c-1.33,0-2.45-0.99-2.62-2.31c-0.5-3.88-0.52-7.8-0.06-11.69l0.06-0.52
		c0.17-1.42,1.37-2.49,2.79-2.49h10.74c0.18,0,0.36,0.07,0.49,0.19l2.76,2.42c0.62,0.54,0.96,1.34,0.93,2.17l-0.34,9.57
		C-238.18-329.42-239.39-328.25-240.88-328.25z M-250.5-335.75h7c0.97,0,1.75,0.78,1.75,1.75v4.25h0.87c0.67,0,1.23-0.53,1.25-1.2
		l0.35-9.57c0.01-0.38-0.14-0.74-0.43-0.98l-2.54-2.23v2.34c0,0.97-0.78,1.75-1.75,1.75h-6c-0.97,0-1.75-0.78-1.75-1.75v-2.35h-0.97
		c-0.66,0-1.22,0.5-1.3,1.16l-0.06,0.52c-0.44,3.76-0.42,7.56,0.06,11.32c0.07,0.57,0.56,1,1.13,1h0.64V-334
		C-252.25-334.97-251.46-335.75-250.5-335.75z M-250.5-334.25c-0.14,0-0.25,0.11-0.25,0.25v4.25h7.5V-334
		c0-0.14-0.11-0.25-0.25-0.25H-250.5z M-250.25-343.75v2.35c0,0.14,0.11,0.25,0.25,0.25h6c0.14,0,0.25-0.11,0.25-0.25v-2.35H-250.25
		z"/>
</g>
<g id="Group_1665" transform="translate(2266.816 -964.872)">
	<path id="Path_124" class="st1" d="M-2175.59,1014.93v45.09c0,2.45-0.88,3.33-3.32,3.33h-35.42c-2.52,0-3.34-0.84-3.34-3.39
		c0-30.06,0-60.13,0-90.19c0-2.49,0.81-3.31,3.3-3.31h35.52c2.39,0,3.26,0.87,3.26,3.27V1014.93z M-2211.34,981.08
		c0,1.02,0,2.04,0,3.06c-0.08,1.36,0.96,2.53,2.33,2.61c0.06,0,0.12,0,0.18,0c2.1,0.06,4.21,0.06,6.31,0c1.35,0.05,2.49-1,2.55-2.36
		c0-0.04,0-0.08,0-0.12c0.07-2.17,0.08-4.34,0-6.51c-0.01-1.35-1.11-2.43-2.46-2.42c-0.05,0-0.09,0-0.14,0.01
		c-2.07,0-4.14-0.03-6.21,0c-1.36-0.05-2.5,1.02-2.55,2.38c0,0.06,0,0.11,0,0.17C-2211.35,978.97-2211.33,980.03-2211.34,981.08
		L-2211.34,981.08z M-2187.16,975.35c-1.02,0-2.04,0-3.06,0c-1.36-0.07-2.51,0.97-2.58,2.33c0,0.07,0,0.15,0,0.22
		c-0.04,2.12-0.04,4.23,0,6.31c-0.07,1.34,0.95,2.47,2.29,2.54c0.05,0,0.1,0,0.16,0c2.13,0.07,4.27,0.07,6.41,0
		c1.34,0.04,2.45-1.01,2.49-2.35c0-0.07,0-0.14,0-0.2c0.06-2.12,0.06-4.23,0-6.31c0.05-1.36-1.01-2.5-2.37-2.55
		c-0.09,0-0.19,0-0.28,0.01C-2185.12,975.33-2186.15,975.35-2187.16,975.35L-2187.16,975.35z M-2205.44,1019.19c1.05,0,2.1,0,3.19,0
		c1.34,0.09,2.5-0.92,2.6-2.26c0.01-0.11,0.01-0.22,0-0.34c0.02-1.81,0.02-3.62,0-5.43c0.1-1.33-0.9-2.49-2.23-2.59
		c-0.09-0.01-0.18-0.01-0.27-0.01c-2.12-0.06-4.26-0.06-6.41,0c-1.34-0.05-2.46,0.99-2.51,2.33c0,0.09,0,0.18,0,0.27
		c-0.02,1.81-0.02,3.62,0,5.43c-0.09,1.34,0.91,2.5,2.25,2.59c0.12,0.01,0.23,0.01,0.35,0
		C-2207.48,1019.22-2206.46,1019.2-2205.44,1019.19L-2205.44,1019.19z M-2205.4,1003.21c1.05,0,2.11,0,3.18,0
		c1.34,0.07,2.48-0.96,2.55-2.29c0.01-0.11,0-0.22,0-0.33c0-1.78,0-3.55,0-5.33c0.13-1.32-0.83-2.5-2.15-2.64
		c-0.1-0.01-0.2-0.01-0.29-0.01c-2.17-0.08-4.34-0.07-6.51,0c-1.33-0.03-2.44,1.02-2.47,2.35c0,0.09,0,0.19,0.01,0.28
		c0,1.78,0,3.55,0,5.33c-0.12,1.34,0.87,2.53,2.21,2.65c0.14,0.01,0.29,0.01,0.43,0
		C-2207.44,1003.24-2206.42,1003.22-2205.4,1003.21L-2205.4,1003.21z M-2205.6,1024.3h-3.26c-1.33-0.04-2.43,1.01-2.47,2.33
		c0,0.06,0,0.12,0,0.17c0,1.84,0,3.68,0,5.52c-0.1,1.33,0.89,2.48,2.21,2.59c0.09,0.01,0.19,0.01,0.28,0.01
		c2.12,0.06,4.26,0.06,6.41,0c1.33,0.04,2.45-1,2.49-2.33c0-0.07,0-0.14,0-0.22c0.05-1.87,0.05-3.75,0-5.62
		c0.05-1.32-0.99-2.43-2.31-2.48c-0.07,0-0.14,0-0.21,0C-2203.51,1024.27-2204.56,1024.3-2205.6,1024.3L-2205.6,1024.3z
		 M-2205.4,1039.27c-1.08,0-2.17-0.04-3.26,0c-1.31-0.04-2.41,0.99-2.45,2.3c0,0.08,0,0.17,0,0.25c-0.02,1.84-0.02,3.68,0,5.52
		c-0.11,1.29,0.85,2.43,2.14,2.54c0.07,0.01,0.15,0.01,0.22,0.01c2.24,0.08,4.46,0.08,6.71,0c1.3,0,2.35-1.05,2.35-2.35
		c0-0.07,0-0.13-0.01-0.2c0-1.84,0-3.68,0-5.52c0.09-1.31-0.9-2.45-2.21-2.54c-0.08-0.01-0.17-0.01-0.25,0
		C-2203.23,1039.27-2204.31,1039.27-2205.4,1039.27L-2205.4,1039.27z M-2186.93,1049.9h3.19c1.38,0.06,2.54-1.01,2.61-2.38
		c0-0.11,0-0.23-0.01-0.34c0-1.78,0-3.55,0-5.33c0.09-1.31-0.89-2.45-2.2-2.55c-0.12-0.01-0.23-0.01-0.34,0
		c-2.12-0.04-4.26-0.04-6.41,0c-1.31-0.07-2.42,0.94-2.49,2.25c0,0.11,0,0.23,0.01,0.34c0,1.75,0,3.48,0,5.23
		c-0.18,1.36,0.77,2.6,2.12,2.79c0.19,0.03,0.39,0.03,0.58,0.01C-2188.89,1049.93-2187.91,1049.9-2186.93,1049.9L-2186.93,1049.9z
		 M-2187.11,1003.21c1.05,0,2.11,0,3.19,0c1.3,0.08,2.42-0.9,2.5-2.2c0-0.09,0.01-0.18,0-0.26c0.05-1.87,0.05-3.75,0-5.62
		c0.09-1.29-0.88-2.41-2.17-2.5c-0.07,0-0.14-0.01-0.2-0.01c-2.2-0.08-4.41-0.08-6.61,0c-1.29-0.04-2.37,0.98-2.41,2.28
		c0,0.09,0,0.18,0.01,0.27c0,1.84,0,3.68,0,5.52c-0.09,1.3,0.89,2.41,2.19,2.5c0.09,0.01,0.18,0.01,0.26,0
		C-2189.28,1003.24-2188.19,1003.22-2187.11,1003.21L-2187.11,1003.21z M-2187.11,1019.19c1.02,0,2.04,0,3.06,0
		c1.32,0.13,2.49-0.84,2.62-2.16c0.01-0.13,0.01-0.26,0.01-0.39c0.04-1.84,0.04-3.68,0-5.52c0.09-1.31-0.9-2.45-2.21-2.54
		c-0.08-0.01-0.16-0.01-0.24,0c-2.17-0.06-4.34-0.06-6.5,0c-1.3-0.03-2.39,1-2.42,2.3c0,0.08,0,0.16,0.01,0.24c0,1.84,0,3.68,0,5.52
		c-0.1,1.31,0.88,2.45,2.19,2.55c0.12,0.01,0.24,0.01,0.36,0c1.03,0.03,2.08,0.01,3.13,0.01L-2187.11,1019.19z M-2187.07,1024.06
		L-2187.07,1024.06h-3.06h-0.29c-1.3-0.02-2.37,1.02-2.39,2.32c0,0.05,0,0.1,0,0.16c-0.03,1.87-0.03,3.75,0,5.62
		c-0.12,1.24,0.8,2.35,2.04,2.46c0.07,0.01,0.15,0.01,0.23,0.01c2.26,0.08,4.53,0.08,6.8,0c1.24,0.02,2.27-0.97,2.29-2.21
		c0-0.05,0-0.1,0-0.15c0.05-1.94,0.05-3.88,0-5.82c0.04-1.27-0.95-2.34-2.23-2.38c-0.05,0-0.09,0-0.14,0c-1.09-0.04-2.17,0-3.26,0
		L-2187.07,1024.06z"/>
	<path id="Path_125" class="st1" d="M-2217.94,1032.5c0,9.11,0,18.22,0,27.33c0,2.31-1.03,3.36-3.36,3.36c-10.95,0-21.9,0-32.85,0
		c-2.31,0-3.34-1.06-3.34-3.38v-54.67c-0.25-1.58,0.84-3.07,2.42-3.32c0.3-0.05,0.6-0.05,0.89,0c10.98,0,21.96,0,32.95,0
		c1.58-0.24,3.06,0.85,3.3,2.43c0.05,0.3,0.04,0.61-0.01,0.91C-2217.94,1014.27-2217.94,1023.39-2217.94,1032.5z M-2228.6,1023.9
		c-1.05,0-2.1,0-3.18,0c-1.38-0.09-2.57,0.95-2.66,2.33c-0.01,0.11-0.01,0.22,0,0.33c-0.02,1.78-0.02,3.55,0,5.33
		c-0.1,1.36,0.93,2.55,2.29,2.64c0.06,0,0.12,0.01,0.19,0.01c2.23,0.06,4.46,0.06,6.7,0c1.36,0,2.46-1.09,2.47-2.45
		c0-0.03,0-0.06,0-0.1c0.03-1.84,0.03-3.68,0-5.52c0.04-1.36-1.03-2.51-2.39-2.55c-0.05,0-0.1,0-0.16,0
		C-2226.42,1023.88-2227.51,1023.91-2228.6,1023.9L-2228.6,1023.9z M-2228.6,1018.81h3.25c1.37,0.03,2.51-1.05,2.55-2.42
		c0-0.04,0-0.09,0-0.13c0.04-1.84,0.04-3.68,0-5.52c0.05-1.36-1.01-2.5-2.37-2.55c-0.03,0-0.06,0-0.09,0c-2.23-0.06-4.46-0.06-6.7,0
		c-1.35-0.01-2.46,1.08-2.47,2.43c0,0.04,0,0.08,0,0.12c-0.03,1.84-0.03,3.68,0,5.52c-0.05,1.36,1.01,2.5,2.37,2.55
		c0.06,0,0.12,0,0.18,0C-2230.76,1018.82-2229.68,1018.81-2228.6,1018.81z M-2246.03,1023.9c-1.08,0-2.17,0-3.25,0
		c-1.37-0.08-2.54,0.95-2.63,2.32c0,0.06,0,0.11,0,0.17c-0.06,1.87-0.06,3.75,0,5.62c-0.04,1.36,1.03,2.5,2.39,2.55
		c0.04,0,0.07,0,0.11,0c2.2,0.06,4.4,0.06,6.61,0c1.35,0.05,2.49-1,2.55-2.35c0-0.08,0-0.16,0-0.24c0.03-1.81,0.03-3.61,0-5.42
		c0.08-1.37-0.96-2.54-2.32-2.62c-0.12-0.01-0.24-0.01-0.37,0C-2244.02,1023.89-2245.01,1023.9-2246.03,1023.9L-2246.03,1023.9z
		 M-2246.09,1018.81c1.05,0,2.1,0,3.18,0c1.36,0.11,2.55-0.91,2.66-2.27c0.01-0.13,0.01-0.25,0-0.38c0.03-1.78,0.03-3.55,0-5.33
		c0.1-1.36-0.92-2.55-2.28-2.65c-0.09-0.01-0.18-0.01-0.27-0.01c-2.16-0.05-4.33-0.05-6.5,0c-1.37-0.03-2.52,1.06-2.55,2.43
		c0,0.04,0,0.08,0,0.12c-0.05,1.84-0.06,3.68,0,5.52c-0.04,1.37,1.04,2.51,2.41,2.55c0.09,0,0.17,0,0.26-0.01
		C-2248.19,1018.82-2247.14,1018.81-2246.09,1018.81L-2246.09,1018.81z M-2246.09,1038.88c-1.08,0-2.17,0-3.25,0
		c-1.34-0.06-2.48,0.97-2.54,2.32c0,0.05,0,0.1,0,0.15c-0.06,1.87-0.06,3.75,0,5.62c-0.06,1.35,0.99,2.49,2.34,2.55
		c0.05,0,0.11,0,0.16,0c2.23,0.06,4.46,0.06,6.69,0c1.33,0.01,2.42-1.05,2.43-2.38c0-0.05,0-0.11,0-0.16c0-1.84,0.04-3.68,0-5.52
		c0.05-1.33-0.98-2.46-2.32-2.51c-0.05,0-0.11,0-0.16,0c-1.14-0.09-2.26-0.06-3.38-0.06H-2246.09z M-2228.58,1049.51
		c1.05,0,2.1,0,3.15,0c1.4,0.09,2.61-0.98,2.7-2.38c0.01-0.12,0.01-0.24,0-0.36c0-1.74,0-3.48,0-5.22c0.1-1.37-0.93-2.56-2.29-2.66
		c-0.12-0.01-0.24-0.01-0.36,0c-2.12-0.03-4.23-0.03-6.31,0c-1.37-0.11-2.58,0.91-2.69,2.29c-0.01,0.14-0.01,0.28,0,0.43
		c0,1.71,0,3.41,0,5.1c-0.14,1.4,0.89,2.65,2.29,2.78c0.15,0.01,0.3,0.02,0.45,0c0.99,0.06,2.01,0.03,3.03,0.03H-2228.58z"/>
</g>
</svg>
