<?xml version="1.0" encoding="utf-8"?>
<!-- Generator: Adobe Illustrator 24.1.3, SVG Export Plug-In . SVG Version: 6.00 Build 0)  -->
<svg version="1.1" id="Layer_1" xmlns="http://www.w3.org/2000/svg" xmlns:xlink="http://www.w3.org/1999/xlink" x="0px" y="0px"
	 viewBox="0 0 100 100" style="enable-background:new 0 0 100 100;" xml:space="preserve">
<style type="text/css">
	.st0{fill:#A5A5A5;}
</style>
<path class="st0" d="M73.8,70.56c-1.39,0.85-2.48,1.53-3.58,2.19c-6.16,3.7-12.31,7.43-18.52,11.03c-0.76,0.44-2.17,0.62-2.87,0.21
	c-7.22-4.19-14.35-8.51-21.51-12.81c-0.24-0.15-0.43-0.4-0.8-0.75c0.57-0.43,1-0.84,1.49-1.13c6.75-4.07,13.49-8.16,20.3-12.12
	c0.82-0.47,2.32-0.65,3.07-0.22c7.16,4.13,14.23,8.43,21.31,12.68C72.95,69.81,73.17,70.04,73.8,70.56z"/>
<path class="st0" d="M26.35,29.52c2.85-1.72,5.42-3.26,7.99-4.81c4.7-2.83,9.39-5.68,14.13-8.43c0.69-0.4,1.91-0.69,2.49-0.35
	c7.54,4.39,15,8.9,22.84,13.59c-0.76,0.58-1.23,1.02-1.76,1.35c-6.75,4.07-13.49,8.15-20.3,12.12c-0.77,0.45-2.18,0.65-2.88,0.24
	c-7.22-4.18-14.36-8.51-21.51-12.8C27.1,30.26,26.9,30.02,26.35,29.52z"/>
<path class="st0" d="M53.19,54.39c0.74-0.52,1.33-0.99,1.97-1.37c6.61-3.97,13.2-7.97,19.87-11.85c0.78-0.45,2.18-0.68,2.87-0.28
	c7.2,4.18,14.32,8.51,21.45,12.8c0.25,0.15,0.44,0.41,0.82,0.77c-0.51,0.43-0.9,0.88-1.39,1.17c-6.87,4.13-13.74,8.27-20.68,12.3
	c-0.69,0.4-2.01,0.47-2.67,0.08c-7.06-4.12-14.05-8.35-21.05-12.57C54,55.21,53.7,54.85,53.19,54.39z"/>
<path class="st0" d="M-0.17,54.5c0.63-0.51,1-0.89,1.45-1.16c6.87-4.13,13.74-8.28,20.66-12.33c0.66-0.39,1.88-0.57,2.48-0.22
	c7.26,4.24,14.45,8.6,21.65,12.92c0.27,0.16,0.56,0.29,1.13,0.57c-0.95,0.71-1.44,1.15-2,1.49c-6.68,4.01-13.38,7.97-20.03,12.03
	c-1.3,0.79-2.27,0.79-3.56,0c-6.71-4.1-13.48-8.1-20.23-12.15C0.92,55.38,0.53,55.02-0.17,54.5z"/>
<path class="st0" d="M26.62,38.43c3.7-2.99,3.71-3,7.35-0.83c4.78,2.85,9.57,5.68,14.29,8.62c1.29,0.8,2.26,0.82,3.56,0.01
	c4.92-3.06,9.92-5.99,14.89-8.97c2.95-1.76,4.02-1.55,6.7,1.36c-0.28,0.24-0.52,0.53-0.83,0.72c-7.09,4.26-14.16,8.53-21.29,12.72
	c-0.6,0.35-1.73,0.44-2.29,0.1c-7.33-4.3-14.6-8.71-21.88-13.09C26.96,38.97,26.86,38.73,26.62,38.43z"/>
</svg>
