<?xml version="1.0" encoding="utf-8"?>
<!-- Generator: Adobe Illustrator 24.1.3, SVG Export Plug-In . SVG Version: 6.00 Build 0)  -->
<svg version="1.1" id="Layer_1" xmlns="http://www.w3.org/2000/svg" xmlns:xlink="http://www.w3.org/1999/xlink" x="0px" y="0px"
	 viewBox="0 0 100 100" style="enable-background:new 0 0 100 100;" xml:space="preserve">
<style type="text/css">
	.st0{fill:#A5A5A5;}
</style>
<g id="Group_1024" transform="translate(-305.74 -243.294)">
	<path id="Path_50" class="st0" d="M400.82,313.98c-5.83-7.63-16.74-9.1-24.38-3.27c-7.63,5.83-9.1,16.74-3.27,24.38
		c0.93,1.22,2.02,2.32,3.25,3.25c-0.35,0.04-0.61,0.08-0.87,0.08c-16.45,0-32.9,0-49.39,0c-8.57,0.03-15.55-6.89-15.58-15.46
		c0-0.05,0-0.1,0-0.15c-0.03-19.67-0.03-39.34,0-59.02c-0.05-8.57,6.86-15.56,15.43-15.61c0.05,0,0.09,0,0.14,0
		c19.7-0.03,39.41-0.03,59.11,0c8.49,0,15.41,6.82,15.52,15.32c0.06,16.67,0,33.34,0,50.01
		C400.87,313.61,400.84,313.72,400.82,313.98z M331.44,310.66c-3.83,0-6.94,3.11-6.94,6.94c0,3.83,3.11,6.94,6.94,6.94
		c3.83,0,6.93-3.1,6.94-6.92C338.39,313.78,335.29,310.67,331.44,310.66C331.45,310.66,331.44,310.66,331.44,310.66L331.44,310.66z
		 M338.38,269.1c0.05-3.83-3.01-6.99-6.84-7.04c-3.83-0.05-6.99,3.01-7.04,6.84c-0.05,3.83,3,6.98,6.83,7.04
		C335.17,276,338.33,272.94,338.38,269.1C338.39,269.1,338.39,269.1,338.38,269.1L338.38,269.1z M338.38,293.24
		c-0.03-3.83-3.16-6.92-7-6.89s-6.92,3.16-6.89,7c0.03,3.83,3.15,6.9,6.98,6.89C335.32,300.21,338.41,297.08,338.38,293.24
		L338.38,293.24L338.38,293.24z M366.27,267.25h-18.44c-0.36-0.03-0.72-0.01-1.08,0.04c-0.93,0.18-1.54,1.09-1.36,2.02
		c0.13,0.69,0.67,1.23,1.36,1.36c0.36,0.06,0.72,0.07,1.08,0.05h36.69c0.32,0.03,0.65,0.03,0.97,0c0.94-0.11,1.63-0.96,1.52-1.9
		c-0.09-0.8-0.72-1.43-1.52-1.52c-0.32-0.03-0.65-0.03-0.97,0L366.27,267.25z M366.27,291.55h-18.44c-0.32-0.03-0.65-0.03-0.97,0
		c-0.94,0.11-1.63,0.96-1.52,1.9c0.09,0.8,0.72,1.43,1.52,1.52c0.32,0.03,0.65,0.03,0.97,0h36.69c0.32,0.03,0.65,0.03,0.97,0
		c0.94-0.11,1.63-0.96,1.52-1.9c-0.09-0.8-0.72-1.43-1.52-1.52c-0.32-0.03-0.65-0.03-0.97,0H366.27z M354.78,319.34
		c2.5,0,4.99,0,7.49,0c1.35,0,2.15-0.67,2.12-1.75c-0.04-1.08-0.8-1.71-2.18-1.71h-14.75c-1.36,0-2.15,0.66-2.12,1.75
		c0.04,1.09,0.8,1.71,2.18,1.72L354.78,319.34z"/>
	<path id="Path_51" class="st0" d="M387.02,310.66c7.67,0,13.89,6.21,13.89,13.88c0,7.67-6.21,13.89-13.88,13.89
		c-7.67,0-13.89-6.21-13.89-13.88c0-0.01,0-0.02,0-0.04C373.18,316.87,379.37,310.69,387.02,310.66z M388.75,322.81
		c0-1.66,0-3.18,0-4.69s-0.66-2.26-1.76-2.24c-1.11,0.01-1.69,0.8-1.71,2.19c0,0.4,0,0.8,0,1.19v3.53c-1.69,0-3.2,0-4.72,0
		s-2.24,0.71-2.22,1.78c0.03,1.08,0.82,1.68,2.21,1.68c1.55,0,3.08,0,4.73,0c0,1.59,0,3.05,0,4.53c-0.02,0.36,0.01,0.72,0.06,1.08
		c0.2,0.93,1.11,1.52,2.04,1.32c0.84-0.18,1.42-0.95,1.36-1.8c0-1.68,0-3.37,0-5.12c1.72,0,3.3,0,4.89,0c1.27,0,2.05-0.71,2.05-1.74
		c0-1.03-0.78-1.72-2.05-1.74c-1.62,0.02-3.2,0.03-4.91,0.03H388.75z"/>
</g>
</svg>
