<?xml version="1.0" encoding="utf-8"?>
<!-- Generator: Adobe Illustrator 24.1.3, SVG Export Plug-In . SVG Version: 6.00 Build 0)  -->
<svg version="1.1" id="Layer_1" xmlns="http://www.w3.org/2000/svg" xmlns:xlink="http://www.w3.org/1999/xlink" x="0px" y="0px"
	 viewBox="0 0 100 100" style="enable-background:new 0 0 100 100;" xml:space="preserve">
<style type="text/css">
	.st0{fill:#A5A5A5;}
</style>
<g id="Group_1622" transform="translate(2594.121 -604.639)">
	<path id="Path_48" class="st0" d="M-2514,694.2c-5.3,0-10.2-2.8-12.9-7.5c-10.2-17.5-20.3-35.1-30.4-52.7
		c-4.2-7.2-1.9-16.4,5.3-20.7c0.1-0.1,0.2-0.1,0.3-0.2c7.2-4.2,16.5-1.8,20.7,5.4c0.1,0.1,0.1,0.2,0.2,0.3
		c10.1,17.4,20.2,34.8,30.2,52.3c3,4.8,2.9,10.9-0.1,15.7C-2503.5,691.6-2508.6,694.3-2514,694.2z"/>
	<path id="Path_49" class="st0" d="M-2565.6,633.3c1.8,3.3,3.5,6.6,5.4,9.7c3.7,6.4,7.4,12.8,11.2,19.2c0.7,0.9,0.7,2.1,0.1,3
		c-4.1,7-8,14.2-12.3,21.1c-3,5.7-9.3,8.7-15.6,7.5c-6-0.7-10.8-5.1-12.3-10.9c-1.2-3.7-0.8-7.7,1.2-11.1
		c7.2-12.6,14.5-25.2,21.7-37.8C-2566,633.9-2565.8,633.6-2565.6,633.3z"/>
</g>
</svg>
