<?xml version="1.0" encoding="utf-8"?>
<!-- Generator: Adobe Illustrator 24.1.3, SVG Export Plug-In . SVG Version: 6.00 Build 0)  -->
<svg version="1.1" id="Layer_1" xmlns="http://www.w3.org/2000/svg" xmlns:xlink="http://www.w3.org/1999/xlink" x="0px" y="0px"
	 viewBox="0 0 100 100" style="enable-background:new 0 0 100 100;" xml:space="preserve">
<style type="text/css">
	.st0{fill:#FFFFFF;}
</style>
<g id="Fire">
	<path id="Path" class="st0" d="M49.2,3.8c-1.3-0.6-2.7-0.3-3.7,0.7c-0.9,1-1.3,2.3-1,3.6c0.5,2.2,0.7,4.4,0.7,6.7
		c0.2,4.3-1.1,8.5-3.6,11.9c-2.8,3.3-6.1,6.2-9.9,8.4c-0.1,0-0.1,0.1-0.2,0.2l-0.5,0.5c-15.2,9.8-19.6,30.1-9.8,45.3
		s30.1,19.6,45.3,9.8c14.1-9.1,19.1-27.4,11.5-42.3c-0.3-0.6-1-0.8-1.6-0.5c-0.1,0.1-0.3,0.2-0.4,0.3l-1,1.1
		c-3.5,5.2-8.8,9-14.8,10.8c-0.2,0.1-0.4,0-0.6-0.1c-0.2-0.1-0.4-0.4-0.4-0.6c-0.3-0.7-0.1-1.5,0.4-2c4.3-4.9,6.9-11.1,7.4-17.6
		C69.5,25.4,62.3,10.8,49.2,3.8z"/>
</g>
</svg>
