<?xml version="1.0" encoding="UTF-8"?>
<svg id="Layer_1" data-name="Layer 1" xmlns="http://www.w3.org/2000/svg" viewBox="0 0 100 100">
  <defs>
    <style>
      .cls-1 {
        fill: #a5a5a5;
      }
    </style>
  </defs>
  <path class="cls-1" d="m94.18,47.24v5.35c-.05.28-.1.55-.15.83-.36,2.3-.56,4.63-1.1,6.88-6.33,26.48-34.88,40.94-60.01,30.43C13.92,82.79,2.96,62.76,6.48,42.42,9.57,24.53,23.43,10.26,41.19,6.72c2.05-.41,4.14-.6,6.22-.9,1.78,0,3.57,0,5.35,0,.22.05.44.12.66.14,6.64.5,12.87,2.35,18.59,5.76,11.75,6.99,18.95,17.21,21.49,30.67.3,1.6.46,3.23.68,4.85Zm-50.91-4.99v30.98h9.52c0-.38,0-.72,0-1.05,0-4.83-.01-9.66,0-14.49,0-1.73.14-3.45.94-5.04,1.04-2.07,3.07-2.99,5.85-2.64,1.94.24,3.26,1.53,3.69,3.78.22,1.15.33,2.34.33,3.51.04,5,.02,10.01.02,15.01,0,.3,0,.61,0,.92h9.59c.02-.25.05-.45.05-.65,0-5.75.05-11.5-.04-17.25-.03-2-.26-4.02-.66-5.98-.74-3.63-2.75-6.34-6.48-7.31-1.56-.41-3.24-.59-4.85-.55-3.57.1-6.49,1.57-8.47,4.66-.05.07-.14.12-.36.31v-4.18h-9.12Zm-15.69,0v30.97h9.51v-30.97h-9.51Zm4.71-4.3c3.13,0,5.64-2.53,5.63-5.65-.02-3.05-2.59-5.59-5.64-5.56-3.08.03-5.57,2.55-5.57,5.63,0,3.09,2.5,5.59,5.59,5.58Z"/>
</svg>