<?xml version="1.0" encoding="utf-8"?>
<!-- Generator: Adobe Illustrator 24.1.3, SVG Export Plug-In . SVG Version: 6.00 Build 0)  -->
<svg version="1.1" id="Layer_1" xmlns="http://www.w3.org/2000/svg" xmlns:xlink="http://www.w3.org/1999/xlink" x="0px" y="0px"
	 viewBox="0 0 100 100" style="enable-background:new 0 0 100 100;" xml:space="preserve">
<style type="text/css">
	.st0{fill:#FFFFFF;}
</style>
<g id="Group_979" transform="translate(1173.241 -449.671)">
	<path id="Path_46" class="st0" d="M-1169.97,525.65c-1.14-1.13-1.74-2.7-1.63-4.3c0-12.87,0-25.73,0-38.59c0-1.9,0-3.8,0-5.69
		c-0.07-2.86,2.2-5.24,5.06-5.31c0.09,0,0.18,0,0.27,0c3.27-0.06,6.54-0.05,9.81,0c1.74-0.2,3.32,1.05,3.52,2.79
		c0.06,0.52-0.01,1.04-0.2,1.53c-0.36,1.49-0.94,2.91-1.32,4.39c-0.39,1.32-0.65,2.67-0.77,4.04c-0.2,2.19,1.1,4.23,3.16,4.98
		c2.24,0.99,4.77,1.08,7.08,0.25c2.59-0.66,4.22-3.23,3.71-5.85c-0.31-1.71-0.72-3.4-1.24-5.05c-0.29-1.12-0.72-2.21-0.92-3.35
		c-0.35-1.64,0.7-3.25,2.33-3.6c0.15-0.03,0.3-0.05,0.46-0.06c3.58-0.11,7.18-0.16,10.75,0c2.72,0.21,4.75,2.59,4.54,5.32
		c0,0.01,0,0.02,0,0.03c0,4.11,0,8.23,0,12.34c0,0.64,0,1.26,0,1.9c-0.09,1.4,0.96,2.61,2.36,2.7c0.38,0.02,0.75-0.03,1.1-0.17
		c1.26-0.35,2.45-1.01,3.72-1.32c1.4-0.43,2.84-0.69,4.31-0.77c2.06-0.06,3.95,1.14,4.77,3.03c1.36,2.74,1.41,5.95,0.13,8.72
		c-1.16,2.75-4.24,4.15-7.08,3.22c-1.73-0.39-3.38-1.17-5.05-1.73c-2.75-0.9-4.2,0.12-4.22,3.03c0,4.33,0,8.64,0,12.97
		c0.45,2.9-1.53,5.61-4.42,6.07c-0.54,0.09-1.1,0.09-1.64,0c-2.84,0-5.69,0-8.54,0c-1.75,0.25-3.37-0.97-3.62-2.73
		c-0.08-0.56-0.01-1.13,0.2-1.65c0.54-2.09,1.33-4.11,1.82-6.22c1.18-2.92-0.23-6.25-3.15-7.44c-0.79-0.32-1.64-0.46-2.49-0.41
		c-1.42-0.09-2.84,0.05-4.21,0.43c-2.57,0.52-4.28,2.98-3.87,5.57c0.25,1.66,0.62,3.3,1.11,4.91c0.23,0.92,0.6,1.8,0.84,2.71
		c0.81,3.03-0.54,4.8-3.7,4.81c-3.03,0-6.07,0.11-9.02-0.05c-1.41-0.2-2.79-0.54-4.14-1.01L-1169.97,525.65z"/>
	<path id="Path_47" class="st0" d="M-1108.33,490.05c-2.28-1.92-5.4-2.52-8.23-1.57c-0.76,0.21-1.5,0.52-2.25,0.74
		c-1.64,0.5-2.79-0.25-2.81-1.94c0-3.53-0.07-7.08,0-10.59c0.05-2.79,2.36-5.01,5.15-4.96c0.11,0,0.21,0.01,0.32,0.02
		c6.7,0,13.39,0,20.1,0c5.17,0,10.34,0,15.51,0c2.89-0.33,5.5,1.75,5.83,4.64c0.04,0.37,0.04,0.75,0.01,1.12c0,4.43,0,8.86,0,13.29
		c0,2.63-1.27,3.55-3.76,2.76c-1.41-0.44-2.75-1.06-4.16-1.52c-3.19-1.51-7-0.14-8.5,3.05c-0.34,0.72-0.54,1.49-0.59,2.27
		c-0.28,1.66-0.21,3.36,0.19,4.99c0.64,3.41,3.92,5.65,7.33,5.01c0.47-0.09,0.93-0.23,1.37-0.42c1.56-0.49,3.03-1.19,4.6-1.67
		c2.2-0.67,3.53,0.3,3.54,2.58c0,4.64,0,9.28,0,13.92c0.17,2.79-1.95,5.18-4.74,5.35c-0.17,0.01-0.34,0.01-0.51,0.01
		c-12.08,0.05-24.15,0.05-36.23,0c-2.84,0.18-5.28-1.97-5.46-4.81c-0.02-0.27-0.01-0.55,0.01-0.82c0-2.95,0-5.9,0-8.86
		c0-3.13,0.83-3.69,3.75-2.65c3.69,1.64,8.02,0.69,10.7-2.34C-1103.11,502.34-1103.59,494.81-1108.33,490.05z"/>
</g>
</svg>
