<?xml version="1.0" encoding="utf-8"?>
<!-- Generator: Adobe Illustrator 24.1.3, SVG Export Plug-In . SVG Version: 6.00 Build 0)  -->
<svg version="1.1" id="Layer_1" xmlns="http://www.w3.org/2000/svg" xmlns:xlink="http://www.w3.org/1999/xlink" x="0px" y="0px"
	 viewBox="0 0 100 100" style="enable-background:new 0 0 100 100;" xml:space="preserve">
<style type="text/css">
	.st0{fill:#FFFFFF;}
</style>
<g id="Comment">
	<path id="Path" class="st0" d="M52,8.2C29.2,7.9,10.5,26.1,10.2,48.9c-0.1,5.5,1,10.9,3,16L18,76.4c0.4,1,0.1,2.2-0.8,2.9l-10.1,8
		c-0.8,0.7-1.2,1.8-0.8,2.8c0.4,1,1.3,1.7,2.4,1.7h40.2c24.6,0.2,44.7-19.6,44.9-44.2c0,0,0,0,0,0C93.7,25.7,75.6,8,53.6,8.2
		c0,0,0,0,0,0H52z"/>
</g>
</svg>
