<?xml version="1.0" encoding="utf-8"?>
<!-- Generator: Adobe Illustrator 24.1.3, SVG Export Plug-In . SVG Version: 6.00 Build 0)  -->
<svg version="1.1" id="Layer_1" xmlns="http://www.w3.org/2000/svg" xmlns:xlink="http://www.w3.org/1999/xlink" x="0px" y="0px"
	 viewBox="0 0 100 100" style="enable-background:new 0 0 100 100;" xml:space="preserve">
<style type="text/css">
	.st0{fill:#FFFFFF;}
</style>
<g id="Clipboard-alt" transform="translate(0)">
	<path id="Shape" class="st0" d="M64.2,28.8H35.8c-2,0-3.5-1.6-3.5-3.5v-9.5c0-7.2,5.8-13,13-13h9.5c7.2,0,13,5.8,13,13v9.5
		C67.7,27.2,66.2,28.8,64.2,28.8z M45.3,9.9c-3.3,0-5.9,2.6-5.9,5.9c0,0,0,0,0,0v5.9h21.3v-5.9c0-3.3-2.6-5.9-5.9-5.9L45.3,9.9z"/>
	<path id="Shape-2" class="st0" d="M50,97.2c-7.2,0-14.3-0.4-21.4-1.3c-8-1-14-7.8-14.1-15.9V30.4c0-6.4,3.7-12.2,9.4-14.9
		c0.1-0.1,0.2-0.1,0.4-0.1c0.5,0,0.9,0.4,0.9,0.9v9c0,5.9,4.8,10.6,10.6,10.6h28.4c5.9,0,10.6-4.8,10.6-10.6v-9
		c0-0.5,0.4-0.9,0.9-0.9c0.1,0,0.3,0,0.4,0.1c5.7,2.8,9.4,8.6,9.4,14.9V80c0,8.1-6,14.9-14.1,15.9C64.3,96.8,57.2,97.2,50,97.2z
		 M35.8,63.1c-2,0-3.5,1.6-3.5,3.5c0,2,1.6,3.5,3.5,3.5h23.6c2,0,3.5-1.6,3.5-3.5c0-2-1.6-3.5-3.5-3.5H35.8z M35.8,48.9
		c-2,0-3.5,1.6-3.5,3.5c0,2,1.6,3.5,3.5,3.5c0,0,0,0,0,0h28.4c2,0,3.5-1.6,3.5-3.5c0-2-1.6-3.5-3.5-3.5c0,0,0,0,0,0H35.8z"/>
</g>
</svg>
