<?xml version="1.0" encoding="utf-8"?>
<!-- Generator: Adobe Illustrator 24.1.3, SVG Export Plug-In . SVG Version: 6.00 Build 0)  -->
<svg version="1.1" id="Layer_1" xmlns="http://www.w3.org/2000/svg" xmlns:xlink="http://www.w3.org/1999/xlink" x="0px" y="0px"
	 viewBox="0 0 100 100" style="enable-background:new 0 0 100 100;" xml:space="preserve">
<style type="text/css">
	.st0{fill:#A5A5A5;}
</style>
<path id="Icon_ionic-ios-call" class="st0" d="M91.7,75.2c-4.7-4.1-10-7.6-15.6-10.4c-4.7-2.2-6.4-2.2-9.7,0.2
	c-2.8,2-4.5,3.8-7.7,3.1c-5.9-2.7-11.2-6.6-15.5-11.5c-4.9-4.3-8.8-9.6-11.5-15.5c-0.7-3.2,1.2-4.9,3.1-7.7c2.4-3.3,2.5-5,0.2-9.7
	c-2.8-5.6-6.3-10.9-10.4-15.6c-3.4-3.4-4.2-2.7-6-2c-1.9,0.8-3.8,1.8-5.5,3c-2.9,1.6-5.2,4.1-6.6,7c-1.3,2.8-2.8,8.1,4.9,22
	c5.7,10.6,13,20.3,21.6,28.7l0,0l0,0l0,0l0,0c8.5,8.6,18.2,15.8,28.8,21.6c13.8,7.8,19.1,6.2,22,4.9c3-1.5,5.4-3.8,7-6.6
	c1.2-1.8,2.1-3.6,3-5.5C94.4,79.4,95.1,78.6,91.7,75.2z"/>
</svg>
