<?xml version="1.0" encoding="utf-8"?>
<!-- Generator: Adobe Illustrator 24.1.3, SVG Export Plug-In . SVG Version: 6.00 Build 0)  -->
<svg version="1.1" id="Layer_1" xmlns="http://www.w3.org/2000/svg" xmlns:xlink="http://www.w3.org/1999/xlink" x="0px" y="0px"
	 viewBox="0 0 100 100" style="enable-background:new 0 0 100 100;" xml:space="preserve">
<style type="text/css">
	.st0{fill:#A5A5A5;}
</style>
<path class="st0" d="M13.6,57.79c0-10.2,0-20.4,0-30.6c0-3.68,1.41-6.72,4.24-9.07c1.93-1.6,4.18-2.45,6.69-2.58
	c0.44-0.02,0.55,0.13,0.54,0.55c-0.02,1.33-0.02,2.66,0,3.98c0.01,0.38-0.12,0.5-0.48,0.53c-2.24,0.17-3.91,1.27-5.07,3.16
	c-0.65,1.06-0.89,2.22-0.89,3.46c0.01,14.93,0.01,29.87,0.01,44.8c0,5.43-0.01,10.86,0,16.3c0,3.19,1.94,5.7,5,6.44
	c0.62,0.15,1.28,0.18,1.92,0.18c10.52,0.01,21.05,0.01,31.57,0.01c5.94,0,11.89,0.01,17.83-0.01c2.83-0.01,5.38-1.95,6.12-4.68
	c0.16-0.58,0.25-1.21,0.25-1.81c0.01-20.47,0.01-40.94,0.01-61.41c0-3.38-2.53-6.15-5.89-6.43c-0.4-0.03-0.56-0.16-0.55-0.58
	c0.03-1.29,0.03-2.59,0.01-3.88c-0.01-0.46,0.12-0.63,0.6-0.6c2.5,0.14,4.72,0.99,6.64,2.58c2.85,2.36,4.24,5.44,4.24,9.13
	c0.01,20.4,0.01,40.8,0,61.2c0,5.77-4.32,10.7-10.01,11.44c-0.52,0.07-1.05,0.1-1.58,0.1c-16.53,0.01-33.07,0-49.6,0
	c-5.74,0-10.56-4.08-11.47-9.73c-0.11-0.68-0.13-1.39-0.13-2.09C13.6,78.05,13.6,67.92,13.6,57.79z"/>
<path class="st0" d="M49.94,26.02c-5.4,0-10.8,0-16.19,0c-3.26,0-5.64-2.37-5.64-5.64c0-1.62-0.01-3.24,0-4.85
	c0.01-2.71,2.15-5.06,4.85-5.28c1.17-0.09,2.35-0.08,3.52-0.07c0.44,0,0.6-0.16,0.73-0.56c1.62-5,4.98-8.16,10.11-9.31
	c6.63-1.49,13.63,2.76,15.43,9.3c0.13,0.47,0.34,0.58,0.78,0.57c1.12-0.01,2.25-0.05,3.37,0.06c2.74,0.28,4.68,2.11,4.92,4.88
	c0.18,2.03,0.16,4.09-0.03,6.12c-0.28,2.86-2.61,4.78-5.5,4.79c-2.72,0.01-5.45,0-8.17,0C55.39,26.01,52.67,26.01,49.94,26.02z
	 M41.45,10.12c5.72,0,11.38,0,17.06,0c-0.84-2.69-3.82-5.7-7.94-5.94C45.97,3.91,42.53,6.96,41.45,10.12z"/>
<path class="st0" d="M35.57,38.82c-0.61,0-1.21,0-1.82,0c-1.12,0-2.25,0.02-3.37-0.01c-0.43-0.01-0.59,0.1-0.59,0.57
	c0.01,14.54,0.01,29.08,0,43.62c0,0.45,0.11,0.63,0.59,0.62c1.6-0.03,3.2-0.01,4.8-0.01c0.11,0,0.23-0.01,0.34-0.02
	c0.04-0.04,0.07-0.09,0.11-0.13c-0.59-0.55-1.2-1.09-1.77-1.66c-0.45-0.45-0.52-1.01-0.26-1.55c0.24-0.49,0.78-0.81,1.35-0.71
	c0.28,0.05,0.6,0.19,0.8,0.39c1.39,1.36,2.76,2.73,4.12,4.11c0.54,0.55,0.57,1.28,0.03,1.84c-1.37,1.42-2.77,2.82-4.19,4.19
	c-0.54,0.52-1.41,0.45-1.89-0.06c-0.49-0.52-0.48-1.34,0.05-1.89c0.56-0.57,1.14-1.11,1.72-1.67c-0.02-0.05-0.04-0.09-0.05-0.14
	c-0.18,0-0.35,0-0.53,0c-2.09,0-4.19,0-6.28,0c-1.15,0-1.64-0.5-1.64-1.65c0-15.63,0-31.26,0-46.89c0-1.1,0.53-1.64,1.62-1.64
	c2.04-0.01,4.09,0,6.13,0c0.2,0,0.4,0,0.59,0c0.02-0.04,0.04-0.08,0.06-0.12c-0.42-0.43-0.85-0.85-1.27-1.28
	c-0.19-0.19-0.39-0.39-0.54-0.61c-0.39-0.57-0.3-1.23,0.21-1.71c0.48-0.45,1.14-0.5,1.68-0.11c0.22,0.16,0.41,0.36,0.6,0.55
	c1.17,1.17,2.34,2.33,3.5,3.5c0.79,0.8,0.79,1.5,0,2.29c-1.29,1.29-2.57,2.58-3.87,3.86c-0.39,0.39-0.86,0.55-1.4,0.38
	c-0.52-0.16-0.83-0.52-0.94-1.05c-0.1-0.51,0.1-0.93,0.46-1.29c0.56-0.54,1.12-1.08,1.68-1.62C35.61,38.9,35.59,38.86,35.57,38.82z"
	/>
<path class="st0" d="M64.38,70.84c0.53,0.5,1.06,1,1.58,1.51c0.64,0.62,0.7,1.49,0.17,2.04c-0.54,0.57-1.43,0.51-2.08-0.14
	c-1.28-1.27-2.55-2.55-3.83-3.83c-0.7-0.7-0.71-1.45-0.02-2.15c1.29-1.31,2.59-2.61,3.9-3.9c0.65-0.65,1.46-0.66,2.03-0.07
	c0.54,0.56,0.49,1.35-0.14,1.99c-0.5,0.51-1.01,1.02-1.51,1.53c-0.02,0.02-0.01,0.06-0.02,0.16c0.19,0,0.37,0,0.55,0
	c2.09,0,4.19,0,6.28,0c1.05,0,1.58,0.52,1.59,1.57c0.01,3.01,0,6.03,0,9.04c0,2.18,0.01,4.35-0.02,6.53
	c-0.01,1.12-0.51,1.58-1.61,1.59c-3.18,0.01-6.37,0.01-9.55,0c-1.07,0-1.63-0.5-1.61-1.41c0.02-0.76,0.55-1.27,1.36-1.28
	c2.64-0.01,5.28,0,7.92,0c0.14,0,0.27-0.01,0.41,0c0.32,0.01,0.41-0.17,0.41-0.45c-0.01-4.13-0.02-8.27-0.02-12.4
	c0-0.27-0.03-0.47-0.37-0.47c-1.77,0-3.54,0-5.31,0C64.45,70.74,64.42,70.79,64.38,70.84z"/>
<path class="st0" d="M64.41,54.24c0.57,0.55,1.13,1.11,1.7,1.66c0.41,0.4,0.49,0.9,0.32,1.42c-0.16,0.49-0.53,0.85-1.04,0.85
	c-0.39,0-0.89-0.12-1.16-0.37c-1.42-1.35-2.8-2.74-4.16-4.15c-0.53-0.55-0.51-1.28,0.04-1.84c1.37-1.4,2.75-2.78,4.15-4.15
	c0.52-0.51,1.35-0.47,1.85,0.02c0.51,0.5,0.54,1.33,0.03,1.9c-0.43,0.48-0.91,0.92-1.36,1.38c-0.12,0.12-0.23,0.24-0.4,0.42
	c0.22,0.02,0.36,0.04,0.5,0.04c1.55,0,3.1-0.02,4.65,0.01c0.51,0.01,0.63-0.18,0.63-0.65c-0.01-3.68-0.01-7.36-0.01-11.03
	c0-0.19,0-0.37,0-0.56c0-1.1,0-1.1-1.13-1.1c-2.47,0-4.94,0-7.41,0c-0.95,0-1.51-0.5-1.52-1.34c0-0.84,0.55-1.36,1.5-1.36
	c3.22-0.01,6.44-0.01,9.65,0c1.14,0,1.63,0.52,1.63,1.68c0,2.33,0.01,4.67,0,7c-0.01,1.41-0.05,2.82-0.05,4.23
	c0,1.34,0.05,2.69,0.05,4.03c0.01,1.31-0.47,1.78-1.79,1.78c-2.03,0-4.05,0-6.08,0c-0.18,0-0.36,0-0.54,0
	C64.45,54.16,64.43,54.2,64.41,54.24z"/>
<path class="st0" d="M49.95,31.51c1.67,0,3.34,0,5.01,0c1.37,0,2.1,0.72,2.1,2.07c0,2.25,0,4.5,0,6.74c0,1.36-0.64,2.08-2.01,2.11
	c-1.74,0.04-3.47-0.01-5.21-0.01c-1.5,0-2.99,0.02-4.49,0.02c-0.27,0-0.54-0.02-0.81-0.05c-0.93-0.11-1.58-0.76-1.59-1.7
	c-0.03-2.49-0.03-4.97,0-7.46c0.01-1.01,0.83-1.72,1.9-1.73C46.55,31.5,48.25,31.51,49.95,31.51z M50.01,39.71
	c1.28,0,2.55-0.01,3.83,0.01c0.4,0.01,0.54-0.13,0.53-0.53c-0.02-1.48-0.02-2.96,0-4.44c0-0.39-0.11-0.54-0.52-0.53
	c-2.55,0.01-5.11,0.01-7.66,0c-0.42,0-0.57,0.12-0.56,0.55c0.02,1.46,0.02,2.93,0,4.39c-0.01,0.47,0.17,0.58,0.6,0.57
	C47.49,39.69,48.75,39.71,50.01,39.71z"/>
<path class="st0" d="M50.02,63.51c1.65,0,3.3-0.01,4.95,0c1.38,0.01,2.07,0.7,2.08,2.08c0.01,2.28,0.01,4.56,0,6.84
	c-0.01,1.27-0.74,2-2.01,2c-3,0-5.99-0.02-8.99-0.04c-0.54,0-1.09,0.02-1.63-0.04c-0.89-0.11-1.48-0.77-1.49-1.67
	c-0.02-2.45-0.02-4.9,0-7.35c0.01-1.1,0.77-1.81,1.92-1.82C46.58,63.5,48.3,63.51,50.02,63.51z M50.03,66.2
	c-1.29,0-2.59,0.01-3.88-0.01c-0.36,0-0.52,0.09-0.52,0.48c0.02,1.53,0.01,3.06,0,4.59c0,0.34,0.08,0.49,0.46,0.49
	c2.6-0.01,5.21-0.01,7.81,0c0.35,0,0.48-0.12,0.47-0.47c-0.01-1.51-0.02-3.03,0-4.54c0.01-0.43-0.15-0.56-0.57-0.55
	C52.55,66.21,51.29,66.2,50.03,66.2z"/>
<path class="st0" d="M50.04,47.54c1.7,0,3.4-0.01,5.11,0c1.16,0,1.89,0.7,1.9,1.87c0.02,2.37,0.02,4.73,0,7.1
	c-0.01,1.22-0.75,1.91-1.97,1.91c-3.39,0-6.77,0-10.16,0c-1.25,0-1.97-0.71-1.98-1.96c-0.01-2.37,0-4.73,0-7.1
	c0-1.08,0.72-1.81,1.84-1.82C46.53,47.53,48.29,47.54,50.04,47.54z M49.99,55.72C49.99,55.72,49.99,55.72,49.99,55.72
	c1.29,0,2.59-0.01,3.88,0.01c0.34,0,0.5-0.08,0.49-0.46c-0.01-1.53-0.01-3.06,0-4.6c0-0.33-0.13-0.45-0.45-0.45
	c-2.6,0.01-5.21,0.01-7.81,0c-0.36,0-0.47,0.14-0.47,0.49c0.01,1.5,0.02,3,0,4.49c-0.01,0.41,0.15,0.53,0.54,0.52
	C47.44,55.71,48.72,55.72,49.99,55.72z"/>
<path class="st0" d="M50.01,90.41c-1.72,0-3.44,0-5.16,0c-1.2,0-1.91-0.71-1.91-1.91c-0.01-2.37-0.01-4.73,0-7.1
	c0-1.09,0.77-1.88,1.86-1.88c3.46-0.01,6.91-0.01,10.37,0c1.1,0,1.87,0.71,1.88,1.79c0.03,2.43,0.03,4.87,0,7.3
	c-0.01,1.1-0.78,1.78-1.88,1.79C53.45,90.42,51.73,90.41,50.01,90.41z M49.95,87.72c1.28,0,2.55-0.01,3.83,0.01
	c0.44,0.01,0.6-0.12,0.59-0.58c-0.02-1.46-0.02-2.93,0-4.39c0.01-0.45-0.17-0.54-0.57-0.54c-2.54,0.01-5.07,0.01-7.61,0
	c-0.41,0-0.57,0.1-0.57,0.54c0.02,1.46,0.03,2.93,0,4.39c-0.01,0.47,0.17,0.58,0.6,0.57C47.47,87.71,48.71,87.72,49.95,87.72z"/>
</svg>
