<?xml version="1.0" encoding="utf-8"?>
<!-- Generator: Adobe Illustrator 24.1.3, SVG Export Plug-In . SVG Version: 6.00 Build 0)  -->
<svg version="1.1" id="Layer_1" xmlns="http://www.w3.org/2000/svg" xmlns:xlink="http://www.w3.org/1999/xlink" x="0px" y="0px"
	 viewBox="0 0 100 100" style="enable-background:new 0 0 100 100;" xml:space="preserve">
<style type="text/css">
	.st0{fill:#A5A5A5;}
</style>
<g id="Group_1023_1_" transform="translate(433.178 -189.596)">
	<path id="Path_16_1_" class="st0" d="M-347.37,205.38v68.67l-33.94,10.71c0-0.36,0-0.62,0-0.89c0-12.94,0.01-25.87,0.04-38.81
		c0-10.29,0.06-20.57,0.07-30.85c0-0.65,0.2-0.84,0.82-0.99c7.43-1.77,14.86-3.57,22.28-5.36l10.32-2.49
		C-347.64,205.36-347.5,205.36-347.37,205.38z M-361.52,245.62c0.09,0.01,0.18,0.01,0.27,0c3.36-1.13,6.71-2.24,10.05-3.4
		c0.26-0.15,0.43-0.41,0.46-0.7c0.06-1.5,0.07-3,0.08-4.51c0-1.72,0-3.44,0-5.19c-0.15-0.01-0.31-0.01-0.46,0l-9.85,2.76
		c-0.42,0.08-0.69,0.47-0.63,0.89c0,3.22,0,6.42,0,9.64C-361.61,245.28-361.57,245.45-361.52,245.62z M-376.55,251.01
		c3.6-1.22,7.04-2.39,10.55-3.59c0.18-0.06,0.34-0.46,0.34-0.7c0-3.06,0-6.11,0-9.15c-0.01-0.17-0.03-0.33-0.06-0.49
		c-0.1-0.01-0.19-0.01-0.29,0c-3.35,0.96-6.7,1.93-10.05,2.87c-0.42,0.12-0.49,0.33-0.49,0.7c0,1.79,0,3.57,0,5.35
		c-0.05,1.61-0.05,3.24-0.05,5L-376.55,251.01z M-376.55,232.23c0.44-0.14,0.81-0.24,1.16-0.36c3.01-1.02,6.02-2.05,9.05-3.05
		c0.46-0.07,0.77-0.49,0.71-0.95c0,0,0-0.01,0-0.01c0-2.93,0-5.87,0-8.8c0-0.25,0-0.49,0-0.7c-0.1-0.01-0.2-0.01-0.3,0
		c-3.37,0.96-6.74,1.94-10.12,2.88c-0.51,0.14-0.44,0.47-0.44,0.82c0,2.47,0,4.95,0,7.42c-0.09,0.84-0.09,1.74-0.09,2.74
		L-376.55,232.23z M-365.67,255.22c-0.35,0.07-0.61,0.11-0.84,0.18c-3.13,0.9-6.25,1.82-9.39,2.69c-0.42,0.05-0.72,0.42-0.67,0.84
		c0,0.02,0,0.04,0.01,0.05c0,2.6,0,5.2,0,7.8c0,0.77,0,1.54,0,2.39c0.3-0.08,0.45-0.11,0.59-0.15c2.77-0.94,5.54-1.89,8.31-2.81
		c2-0.67,2.01-0.65,2.01-2.75L-365.67,255.22z M-350.73,213.71c-0.26,0.06-0.41,0.08-0.55,0.12c-3.23,0.93-6.45,1.88-9.69,2.77
		c-0.51,0.14-0.62,0.36-0.62,0.84c0,3.22,0,6.42,0,9.64c0.01,0.2,0.04,0.4,0.07,0.59c3.52-1.2,7-2.36,10.46-3.55
		c0.18-0.11,0.29-0.31,0.3-0.52c0-3.25-0.01-6.51-0.01-9.88L-350.73,213.71z M-361.57,264.6c0.25-0.06,0.37-0.09,0.49-0.13
		c3.21-1.08,6.41-2.17,9.63-3.23c0.48-0.08,0.81-0.53,0.75-1.01c0-3,0-6.02,0-9.02c-0.01-0.19-0.04-0.38-0.08-0.56
		c-3.52,1.01-6.95,1.98-10.38,3c-0.18,0.06-0.36,0.45-0.37,0.7c0,1.86,0,3.72,0,5.58L-361.57,264.6z"/>
	<path id="Path_17_1_" class="st0" d="M-418.91,205.26l5.04,1.21l23.99,5.8c1.31,0.32,2.62,0.65,3.95,0.91
		c0.7,0.13,0.89,0.39,0.89,1.1c0,4.83,0,9.65,0,14.47c0,9.52,0,19.04,0,28.56c0,8.88,0,17.76,0,26.63c0,0.23,0,0.44-0.04,0.76
		l-5.74-1.8c-9.13-2.88-18.26-5.76-27.4-8.63c-0.5-0.08-0.85-0.55-0.77-1.05c0-0.01,0-0.01,0-0.02c0-9.83,0-19.65,0-29.48
		c0-12.45,0-24.9,0-37.34L-418.91,205.26z M-415.25,232.23c-0.04,0.09-0.07,0.19-0.09,0.29c0,3.38,0,6.77,0,10.15
		c0,0.19,0.32,0.48,0.55,0.54c2.04,0.62,4.09,1.2,6.15,1.79l4.09,1.15c0-0.49,0.06-0.86,0.06-1.24c0-2.78,0-5.56,0-8.33
		c0.08-0.47-0.23-0.93-0.7-1.02c-2.24-0.7-4.47-1.54-6.71-2.3C-413.02,232.9-414.15,232.57-415.25,232.23L-415.25,232.23z
		 M-389.58,250.69c0-3.26,0-6.42,0-9.59c0.07-0.48-0.26-0.93-0.75-1.01c-2.59-0.84-5.16-1.73-7.74-2.6
		c-0.76-0.25-1.52-0.49-2.28-0.7c-0.04,0.08-0.07,0.16-0.09,0.25c0,3.37,0,6.73,0,10.1c0,0.49,0.29,0.56,0.65,0.7
		c2.01,0.58,4,1.2,6,1.78C-392.43,249.94-391.06,250.29-389.58,250.69L-389.58,250.69z M-415.28,250.04
		c-0.03,0.1-0.06,0.2-0.07,0.31c0,3.37,0,6.74,0,10.1c0,0.45,0.25,0.53,0.59,0.63c2.11,0.59,4.16,1.21,6.23,1.8
		c1.31,0.37,2.62,0.7,4.03,1.13c0-3.4,0-6.68,0-9.97c-0.05-0.23-0.2-0.42-0.42-0.51C-408.36,252.36-411.79,251.22-415.28,250.04
		L-415.28,250.04z M-400.37,254.74c-0.03,0.15-0.06,0.3-0.07,0.45c0,3.29,0,6.59,0,9.85c0,0.46,0.2,0.61,0.6,0.7
		c1.84,0.52,3.67,1.06,5.5,1.58l4.75,1.36v-10.36L-400.37,254.74z M-400.37,217.79c-0.04,0.14-0.06,0.28-0.08,0.42
		c0,3.31,0,6.63,0,9.94c0,0.47,0.24,0.58,0.63,0.7c2.96,0.84,5.92,1.7,8.88,2.54c0.43,0.12,0.86,0.23,1.36,0.37
		c0-3.41,0-6.69,0-9.98c0-0.18-0.29-0.45-0.49-0.52c-1.25-0.45-2.5-0.84-3.76-1.27L-400.37,217.79z M-404.52,227.27
		c0-0.88,0-1.66,0-2.44c0-2.45,0-4.93,0-7.34c0.05-0.38-0.21-0.74-0.6-0.79c0,0,0,0-0.01,0c-2.18-0.7-4.34-1.46-6.51-2.2
		c-1.22-0.41-2.44-0.81-3.68-1.22c-0.03,0.1-0.05,0.2-0.06,0.3c0,3.37,0,6.73,0,10.1c0,0.46,0.25,0.54,0.58,0.64l4.62,1.32
		L-404.52,227.27z"/>
	<path id="Path_18_1_" class="st0" d="M-348.29,201.33l-9.78,2.72l-19.96,5.5c-1.49,0.42-2.98,0.87-4.47,1.24
		c-0.44,0.09-0.9,0.08-1.33-0.04c-6.98-1.88-13.95-3.79-20.92-5.73c-4.42-1.22-8.83-2.46-13.42-3.74l5.19-1.06l18.13-3.64
		c3.64-0.7,7.27-1.56,10.93-2.11c1.31-0.09,2.63,0.05,3.9,0.41c9.71,1.93,19.42,3.88,29.12,5.85l2.62,0.51L-348.29,201.33z"/>
</g>
</svg>
