<?xml version="1.0" encoding="utf-8"?>
<!-- Generator: Adobe Illustrator 24.1.3, SVG Export Plug-In . SVG Version: 6.00 Build 0)  -->
<svg version="1.1" id="Layer_1" xmlns="http://www.w3.org/2000/svg" xmlns:xlink="http://www.w3.org/1999/xlink" x="0px" y="0px"
	 viewBox="0 0 100 100" style="enable-background:new 0 0 100 100;" xml:space="preserve">
<style type="text/css">
	.st0{fill:#FFFFFF;}
</style>
<g id="Key" transform="translate(0 0)">
	<path id="Shape" class="st0" d="M27.16,77.29C12.37,76.99,0.62,64.79,0.88,50c-0.26-14.79,11.5-26.99,26.28-27.29
		c9.74,0.08,18.64,5.56,23.08,14.24h40.89c4.51,0.09,8.09,3.81,8.01,8.32c0,0,0,0,0,0v11.86c0.03,1.93-1.5,3.52-3.43,3.56H85.42v8.3
		c0.04,1.93-1.5,3.53-3.43,3.57H70.56c-1.93-0.04-3.46-1.64-3.43-3.57v-8.3H51.34C47.41,70.63,37.85,77.2,27.16,77.29z M27.16,40.51
		c-5.13,0.1-9.21,4.33-9.14,9.46c-0.07,5.13,4.01,9.36,9.14,9.46c5.13-0.1,9.21-4.33,9.14-9.46C36.37,44.84,32.29,40.61,27.16,40.51
		z"/>
</g>
</svg>
