<?xml version="1.0" encoding="utf-8"?>
<!-- Generator: Adobe Illustrator 24.1.3, SVG Export Plug-In . SVG Version: 6.00 Build 0)  -->
<svg version="1.1" id="Layer_1" xmlns="http://www.w3.org/2000/svg" xmlns:xlink="http://www.w3.org/1999/xlink" x="0px" y="0px"
	 viewBox="0 0 100 100" style="enable-background:new 0 0 100 100;" xml:space="preserve">
<style type="text/css">
	.st0{fill:#FFFFFF;}
	.st1{fill:#A5A5A5;}
</style>
<g id="Save" transform="translate(-0.103 -0.75)">
	<path id="Shape" class="st0" d="M-240.88-328.25h-12.01c-1.33,0-2.45-0.99-2.62-2.31c-0.5-3.88-0.52-7.8-0.06-11.69l0.06-0.52
		c0.17-1.42,1.37-2.49,2.79-2.49h10.74c0.18,0,0.36,0.07,0.49,0.19l2.76,2.42c0.62,0.54,0.96,1.34,0.93,2.17l-0.34,9.57
		C-238.18-329.42-239.39-328.25-240.88-328.25z M-250.5-335.75h7c0.97,0,1.75,0.78,1.75,1.75v4.25h0.87c0.67,0,1.23-0.53,1.25-1.2
		l0.35-9.57c0.01-0.38-0.14-0.74-0.43-0.98l-2.54-2.23v2.34c0,0.97-0.78,1.75-1.75,1.75h-6c-0.97,0-1.75-0.78-1.75-1.75v-2.35h-0.97
		c-0.66,0-1.22,0.5-1.3,1.16l-0.06,0.52c-0.44,3.76-0.42,7.56,0.06,11.32c0.07,0.57,0.56,1,1.13,1h0.64V-334
		C-252.25-334.97-251.46-335.75-250.5-335.75z M-250.5-334.25c-0.14,0-0.25,0.11-0.25,0.25v4.25h7.5V-334
		c0-0.14-0.11-0.25-0.25-0.25H-250.5z M-250.25-343.75v2.35c0,0.14,0.11,0.25,0.25,0.25h6c0.14,0,0.25-0.11,0.25-0.25v-2.35H-250.25
		z"/>
</g>
<g id="Group_1664" transform="translate(1107.066 -863.951)">
	<path id="Path_115" class="st1" d="M-1019.04,954.46h-7.14c0-0.39,0-0.73,0-1.06c0-5.36,0-10.7,0-16.09
		c0.15-3.5-1.9-6.73-5.13-8.09c-4.35-2.02-9.51-0.14-11.53,4.21c-0.5,1.07-0.77,2.24-0.81,3.42c-0.04,5.49,0,10.98,0,16.47v1.11
		h-7.12c0-0.36-0.06-0.74-0.06-1.1c0-14.14,0-28.29,0-42.43c0-7.3,0-14.61,0-21.91c-0.04-0.59,0.19-1.17,0.63-1.57
		c4.62-4.48,9.2-8.98,13.76-13.49c1.1-1.08,1.79-1.09,2.88,0c4.68,4.58,9.36,9.17,14.03,13.76c0.31,0.33,0.48,0.76,0.5,1.21
		c0.02,17.28,0.02,34.56,0,51.85c0,4.17,0,8.33,0,12.51L-1019.04,954.46z M-1023.86,909.67L-1023.86,909.67c0-2.48,0-4.95,0-7.43
		c0-1.12-0.1-1.23-1.26-1.23c-2.47,0-4.95,0-7.43,0c-0.84,0-1.16,0.25-1.16,1.13c0.03,5.08,0.03,10.15,0,15.22
		c0,0.82,0.3,1.1,1.11,1.1c2.52,0,5.07-0.04,7.61,0c0.89,0,1.13-0.37,1.13-1.18C-1023.88,914.74-1023.87,912.2-1023.86,909.67
		L-1023.86,909.67z M-1046.12,909.71c0,2.52,0,5.03,0,7.6c0,0.84,0.26,1.17,1.13,1.16c2.52-0.04,5.02-0.04,7.51,0
		c0.92,0,1.2-0.36,1.19-1.26c-0.02-5.01-0.02-10.03,0-15.04c0-0.92-0.36-1.2-1.26-1.18c-2.52,0.04-5.02,0.04-7.52,0
		c-0.81,0-1.1,0.26-1.09,1.09C-1046.1,904.63-1046.12,907.17-1046.12,909.71L-1046.12,909.71z M-1034.89,894.52
		c3.4-0.04,6.13-2.8,6.14-6.19c-0.02-3.4-2.76-6.15-6.16-6.18c-3.39,0.02-6.15,2.72-6.25,6.1c-0.02,3.44,2.76,6.25,6.2,6.27
		C-1034.93,894.52-1034.91,894.52-1034.89,894.52L-1034.89,894.52z"/>
	<path id="Path_116" class="st1" d="M-1017.34,956.93v4.73h-80.27v-4.73H-1017.34z"/>
	<path id="Path_118" class="st1" d="M-1053.51,954.49h-37.52v-18.07h37.52L-1053.51,954.49z M-1070.75,941.77
		c0,2.74,0,5.39,0.03,8.04c0,0.18,0.47,0.52,0.73,0.52c4.04,0.03,8.08,0,12.12,0.04c0.7,0,0.84-0.27,0.83-0.89c0-1.47,0-2.95,0-4.41
		v-3.3L-1070.75,941.77z M-1073.94,941.77h-13.54v8.53h13.54V941.77z"/>
	<path id="Path_119" class="st1" d="M-1053.49,922.81v11.22c-0.35,0-0.67,0.07-1,0.07h-41.39c-0.15,0.03-0.31,0.03-0.47,0
		c-0.42-0.2-1.03-0.36-1.18-0.7c-0.1-0.47,0.02-0.96,0.33-1.32c1.26-1.34,2.62-2.61,3.95-3.89c1.66-1.62,3.31-3.25,5.04-4.82
		c0.38-0.35,0.87-0.55,1.39-0.58c10.85-0.03,21.7-0.03,32.55,0C-1054.05,922.75-1053.8,922.78-1053.49,922.81z"/>
	<path id="Path_121" class="st1" d="M-1053.52,902.12v18.13c-0.28,0-0.55,0.08-0.82,0.08h-26.06c-0.55,0-0.94,0-0.94-0.77
		c0-5.71,0-11.41,0-17.12c0.01-0.11,0.03-0.22,0.06-0.33L-1053.52,902.12z M-1066.15,906.42v6.68h10.61c0-1.33,0-2.62,0-3.9
		c0-0.89,0.21-2.08-0.26-2.6c-0.47-0.52-1.64-0.18-2.52-0.18c-2.61,0-5.22,0.01-7.83,0.01L-1066.15,906.42z M-1079.19,913.09h10.49
		v-6.62h-10.49V913.09z"/>
	<path id="Path_122" class="st1" d="M-1053.51,888.34v11.41h-1.26h-25.21c-1.85,0-3.7,0.07-5.54,0c-0.57-0.03-1.1-0.28-1.49-0.7
		c-0.45-0.57,0.06-1.11,0.49-1.54c3.01-2.93,6.01-5.87,9.05-8.75c0.38-0.27,0.84-0.4,1.3-0.37c3.83,0,7.65,0,11.47,0
		c3.39,0,6.77,0,10.16,0L-1053.51,888.34z"/>
	<path id="Path_123" class="st1" d="M-1019.03,885.6c-1.4-1.36-2.63-2.52-3.85-3.73c-3.63-3.55-7.25-7.12-10.88-10.7
		c-0.88-0.86-1.6-0.84-2.52,0.06c-4.42,4.32-8.82,8.64-13.22,12.97c-0.33,0.38-0.62,0.79-0.88,1.21l-0.44-0.24
		c0.05-0.69,0.05-1.38,0-2.07c-0.28-1.98,0.51-3.95,2.09-5.18c3.87-3.56,7.55-7.33,11.33-11.01c1.34-1.32,3.48-1.34,4.85-0.06
		c4.26,4.16,8.52,8.32,12.72,12.54c0.47,0.56,0.75,1.25,0.81,1.98C-1018.95,882.72-1019.03,884.04-1019.03,885.6z"/>
</g>
</svg>
