<?xml version="1.0" encoding="utf-8"?>
<!-- Generator: Adobe Illustrator 24.1.3, SVG Export Plug-In . SVG Version: 6.00 Build 0)  -->
<svg version="1.1" id="Layer_1" xmlns="http://www.w3.org/2000/svg" xmlns:xlink="http://www.w3.org/1999/xlink" x="0px" y="0px"
	 viewBox="0 0 100 100" style="enable-background:new 0 0 100 100;" xml:space="preserve">
<style type="text/css">
	.st0{fill:#FFFFFF;}
	.st1{fill:#FF6700;}
</style>
<g id="Save" transform="translate(-0.103 -0.75)">
	<path id="Shape" class="st0" d="M-240.88-328.25h-12.01c-1.33,0-2.45-0.99-2.62-2.31c-0.5-3.88-0.52-7.8-0.06-11.69l0.06-0.52
		c0.17-1.42,1.37-2.49,2.79-2.49h10.74c0.18,0,0.36,0.07,0.49,0.19l2.76,2.42c0.62,0.54,0.96,1.34,0.93,2.17l-0.34,9.57
		C-238.18-329.42-239.39-328.25-240.88-328.25z M-250.5-335.75h7c0.97,0,1.75,0.78,1.75,1.75v4.25h0.87c0.67,0,1.23-0.53,1.25-1.2
		l0.35-9.57c0.01-0.38-0.14-0.74-0.43-0.98l-2.54-2.23v2.34c0,0.97-0.78,1.75-1.75,1.75h-6c-0.97,0-1.75-0.78-1.75-1.75v-2.35h-0.97
		c-0.66,0-1.22,0.5-1.3,1.16l-0.06,0.52c-0.44,3.76-0.42,7.56,0.06,11.32c0.07,0.57,0.56,1,1.13,1h0.64V-334
		C-252.25-334.97-251.46-335.75-250.5-335.75z M-250.5-334.25c-0.14,0-0.25,0.11-0.25,0.25v4.25h7.5V-334
		c0-0.14-0.11-0.25-0.25-0.25H-250.5z M-250.25-343.75v2.35c0,0.14,0.11,0.25,0.25,0.25h6c0.14,0,0.25-0.11,0.25-0.25v-2.35H-250.25
		z"/>
</g>
<g id="Save_1_" transform="translate(-0.103 -0.75)">
	<path id="Shape_1_" class="st1" d="M83.01,97.78H16.68C9.34,97.77,3.15,92.32,2.2,85.04c-2.74-21.42-2.85-43.1-0.35-64.55
		l0.33-2.87C3.1,9.79,9.74,3.88,17.62,3.89h59.34c1,0,1.97,0.37,2.73,1.03L94.94,18.3c3.43,3.01,5.32,7.4,5.15,11.96l-1.9,52.88
		C97.93,91.32,91.2,97.81,83.01,97.78z M29.88,56.36h38.66c5.34,0.01,9.66,4.33,9.67,9.67V89.5h4.82c3.72,0.01,6.78-2.94,6.9-6.66
		l1.91-52.88c0.07-2.07-0.79-4.07-2.35-5.43L75.44,12.2v12.95c-0.01,5.33-4.32,9.65-9.65,9.67H32.64c-5.34-0.01-9.66-4.33-9.67-9.67
		V12.17h-5.35c-3.67,0.01-6.76,2.77-7.18,6.41l-0.34,2.87c-2.43,20.78-2.33,41.77,0.31,62.52c0.4,3.15,3.09,5.52,6.26,5.52h3.51
		V66.02C20.2,60.68,24.54,56.35,29.88,56.36z M29.88,64.64c-0.76,0-1.38,0.62-1.38,1.38V89.5h41.43V66.02
		c0-0.76-0.62-1.38-1.38-1.38H29.88z M31.26,12.17v12.98c0,0.76,0.62,1.38,1.38,1.38h33.14c0.76,0,1.38-0.62,1.38-1.38V12.17H31.26z
		"/>
</g>
</svg>
