<?xml version="1.0" encoding="utf-8"?>
<!-- Generator: Adobe Illustrator 24.1.3, SVG Export Plug-In . SVG Version: 6.00 Build 0)  -->
<svg version="1.1" id="Layer_1" xmlns="http://www.w3.org/2000/svg" xmlns:xlink="http://www.w3.org/1999/xlink" x="0px" y="0px"
	 viewBox="0 0 100 100" style="enable-background:new 0 0 100 100;" xml:space="preserve">
<style type="text/css">
	.st0{fill:#FFFFFF;}
</style>
<g id="Save" transform="translate(-0.103 -0.75)">
	<path id="Shape" class="st0" d="M-240.88-328.25h-12.01c-1.33,0-2.45-0.99-2.62-2.31c-0.5-3.88-0.52-7.8-0.06-11.69l0.06-0.52
		c0.17-1.42,1.37-2.49,2.79-2.49h10.74c0.18,0,0.36,0.07,0.49,0.19l2.76,2.42c0.62,0.54,0.96,1.34,0.93,2.17l-0.34,9.57
		C-238.18-329.42-239.39-328.25-240.88-328.25z M-250.5-335.75h7c0.97,0,1.75,0.78,1.75,1.75v4.25h0.87c0.67,0,1.23-0.53,1.25-1.2
		l0.35-9.57c0.01-0.38-0.14-0.74-0.43-0.98l-2.54-2.23v2.34c0,0.97-0.78,1.75-1.75,1.75h-6c-0.97,0-1.75-0.78-1.75-1.75v-2.35h-0.97
		c-0.66,0-1.22,0.5-1.3,1.16l-0.06,0.52c-0.44,3.76-0.42,7.56,0.06,11.32c0.07,0.57,0.56,1,1.13,1h0.64V-334
		C-252.25-334.97-251.46-335.75-250.5-335.75z M-250.5-334.25c-0.14,0-0.25,0.11-0.25,0.25v4.25h7.5V-334
		c0-0.14-0.11-0.25-0.25-0.25H-250.5z M-250.25-343.75v2.35c0,0.14,0.11,0.25,0.25,0.25h6c0.14,0,0.25-0.11,0.25-0.25v-2.35H-250.25
		z"/>
</g>
<path id="Path_5" class="st0" d="M69.48,34.87c0.11,6.9-1.97,13.66-5.96,19.3c-1.19,1.68-0.82,2.59,0.45,3.98
	c1.62,2.36,4.56,3.43,7.32,2.65c3.47-0.65,7.02,0.6,9.31,3.29C85.81,69.27,91,74.48,96.18,79.71c3.83,3.41,4.91,8.96,2.65,13.56
	c-1.83,4.53-6.57,7.16-11.38,6.33c-2.54-0.34-4.93-1.43-6.85-3.13c-5.66-5.18-11.01-10.72-16.4-16.22c-2.64-2.9-3.71-6.9-2.87-10.72
	c0.29-2.13-2.59-6.83-4.62-7.15c-0.97,0.08-1.89,0.45-2.65,1.07c-15.79,10.63-37.2,6.45-47.83-9.33
	c-8.4-12.47-7.74-28.95,1.62-40.71C9.82,11.13,11.94,9,14.2,7.03c0.75-0.66,1.58-1.23,2.47-1.7c2.7-1.56,5.15-1.19,6.41,0.88
	c1.13,1.87,0.36,3.93-2.03,5.76c-1.68,1.21-3.28,2.55-4.77,3.99c-7.04,6.58-9.68,16.62-6.78,25.81c2.5,9.48,10.11,16.76,19.7,18.84
	c14.31,3.18,28.48-5.85,31.66-20.15c0.6-2.7,0.77-5.48,0.51-8.23c-0.8-10.57-7.93-19.59-18.02-22.83c-0.39-0.14-0.8-0.27-1.19-0.44
	c-2.57-1.19-3.72-3.28-2.9-5.33c0.99-2.17,3.55-3.12,5.71-2.14c0,0,0,0,0.01,0C59.6,6.03,69.54,19.57,69.48,34.87z"/>
</svg>
