<?xml version="1.0" encoding="utf-8"?>
<!-- Generator: Adobe Illustrator 24.1.3, SVG Export Plug-In . SVG Version: 6.00 Build 0)  -->
<svg version="1.1" id="Layer_1" xmlns="http://www.w3.org/2000/svg" xmlns:xlink="http://www.w3.org/1999/xlink" x="0px" y="0px"
	 viewBox="0 0 100 100" style="enable-background:new 0 0 100 100;" xml:space="preserve">
<style type="text/css">
	.st0{fill:#FFFFFF;}
</style>
<g id="Group_1210" transform="translate(-209.5 -321.184)">
	<path id="Path" class="st0" d="M250.3,331.7c-9,0-16.2,7.3-16.2,16.2c0,9,7.3,16.2,16.2,16.2c9,0,16.2-7.3,16.2-16.2c0,0,0,0,0,0
		C266.5,339,259.3,331.7,250.3,331.7z"/>
	<path id="Path-2" class="st0" d="M233,372.8c-9,0-16.2,7.3-16.2,16.2c0,0,0,0,0,0v5.1c0,3.3,2.4,6,5.6,6.6
		c9.5,1.6,19.2,2.3,28.9,2.3c0.5,0,0.9-0.4,0.9-0.9c0-0.2,0-0.3-0.1-0.5c-4.2-7.5-5-16.4-2.2-24.5c0.2-0.5-0.1-1-0.6-1.2
		c-0.1,0-0.2,0-0.2,0c-2.8-0.1-5.6-0.6-8.3-1.5l-3.7-1.2c-0.8-0.2-1.5-0.4-2.3-0.4H233z"/>
	<path id="Shape" class="st0" d="M278.4,410.6c-13.1,0-23.8-10.6-23.8-23.8s10.6-23.8,23.8-23.8c13.1,0,23.8,10.6,23.8,23.8l0,0
		C302.2,400,291.5,410.6,278.4,410.6z M278.4,369.6c-9.5,0-17.3,7.7-17.3,17.3s7.7,17.3,17.3,17.3c9.5,0,17.3-7.7,17.3-17.3
		c0,0,0,0,0,0C295.7,377.3,288,369.6,278.4,369.6z"/>
	<path id="Path-3" class="st0" d="M278.4,377.2c1.2,0,2.2,1,2.2,2.2v5.2h5.2c1.2,0,2.2,1,2.2,2.2c0,1.2-1,2.2-2.2,2.2h-5.2v5.2
		c0,1.2-1,2.2-2.2,2.2c-1.2,0-2.2-1-2.2-2.2v-5.2H271c-1.2,0-2.2-1-2.2-2.2c0-1.2,1-2.2,2.2-2.2h5.2v-5.2
		C276.2,378.2,277.2,377.2,278.4,377.2z"/>
</g>
</svg>
