<?xml version="1.0" encoding="utf-8"?>
<!-- Generator: Adobe Illustrator 24.1.3, SVG Export Plug-In . SVG Version: 6.00 Build 0)  -->
<svg version="1.1" id="Layer_1" xmlns="http://www.w3.org/2000/svg" xmlns:xlink="http://www.w3.org/1999/xlink" x="0px" y="0px"
	 viewBox="0 0 100 100" style="enable-background:new 0 0 100 100;" xml:space="preserve">
<style type="text/css">
	.st0{fill:#FFFFFF;}
</style>
<g id="Invoice" transform="translate(0 0)">
	<path id="Shape" class="st0" d="M77.9,87.1H25.2c-7.8,0-14.2-6.4-14.2-14.2V20c0-3.4,2.7-6.1,6.1-6.1c0.7,0,1.3,0.1,2,0.3
		c0.6,0.2,1.1,0.5,1.6,0.8l0.7,0.5c1.7,1.2,3.8,1.9,5.9,1.9c2.1,0,4.2-0.7,5.9-1.9c5-3.5,11.6-3.5,16.6,0c1.7,1.2,3.8,1.9,5.9,1.9
		c2.1,0,4.2-0.6,5.9-1.9l0.7-0.5c1-0.7,2.3-1.1,3.5-1.1c3.4,0,6.1,2.7,6.1,6.1v30.6H86c1.7,0,3,1.4,3,3V76
		C89,82.1,84,87.1,77.9,87.1z M72.8,56.7V76c0,2.8,2.3,5.1,5.1,5.1c2.8,0,5.1-2.3,5.1-5.1l0,0V56.7H72.8z M28.2,60.8
		c-1.7,0.1-3,1.5-2.9,3.2c0.1,1.6,1.3,2.8,2.9,2.9h24.3c1.7-0.1,3-1.5,2.9-3.2c-0.1-1.6-1.3-2.8-2.9-2.9L28.2,60.8z M28.2,48.6
		c-1.7,0-3,1.4-3,3s1.4,3,3,3h20.3c1.7,0,3-1.4,3-3c0-1.7-1.4-3-3-3H28.2z M28.2,36.5c-1.7,0.1-3,1.5-2.9,3.2
		c0.1,1.6,1.3,2.8,2.9,2.9h24.3c1.7-0.1,3-1.5,2.9-3.2c-0.1-1.6-1.3-2.8-2.9-2.9H28.2z"/>
</g>
</svg>
