<?xml version="1.0" encoding="utf-8"?>
<!-- Generator: Adobe Illustrator 24.1.3, SVG Export Plug-In . SVG Version: 6.00 Build 0)  -->
<svg version="1.1" id="Layer_1" xmlns="http://www.w3.org/2000/svg" xmlns:xlink="http://www.w3.org/1999/xlink" x="0px" y="0px"
	 viewBox="0 0 100 100" style="enable-background:new 0 0 100 100;" xml:space="preserve">
<style type="text/css">
	.st0{fill:#A5A5A5;}
</style>
<path id="Icon_ionic-ios-contact" class="st0" d="M50.6,5.2L50.6,5.2C27.6,5.2,8.4,22.5,6,45.4c-0.3,3.1-0.3,6.3,0,9.5
	C8.4,77.7,27.6,95,50.6,95l0,0c24.8-1,44.1-21.9,43.1-46.7C92.7,24.9,74,6.2,50.6,5.2L50.6,5.2z M79.9,75.5
	c-4.9-1.9-12.8-4.6-17.8-6c-0.5-0.1-0.6-0.2-0.6-2.3c0.1-1.8,0.6-3.5,1.4-5c1-2.2,1.7-4.5,2-6.8c1.6-2.1,2.6-4.5,2.9-7.1
	c0.6-1.9,0.6-4-0.1-6c0-0.1-0.1-0.2-0.1-0.4c-0.1-2.8,0.1-5.6,0.7-8.4c0.4-4-0.8-7.9-3.2-11c-3.1-3.8-7.7-6-12.6-6h-3.8
	c-4.9,0.1-9.4,2.3-12.5,6c-2.5,3.1-3.6,7.1-3.2,11c0.5,2.8,0.7,5.6,0.7,8.4c0,0.1-0.1,0.3-0.1,0.4c-0.7,1.9-0.7,4-0.1,6
	c0.4,2.6,1.4,5,2.9,7.1c0.3,2.4,1,4.6,2,6.8c0.6,1.6,0.9,3.4,0.8,5.1c0,2.1-0.1,2.2-0.6,2.3c-5.1,1.5-12.7,4.2-17.3,6
	C7.2,59.4,8.9,34.8,25,20.7s40.7-12.4,54.8,3.7C92.6,39.1,92.6,60.9,79.9,75.5L79.9,75.5z"/>
</svg>
