<?xml version="1.0" encoding="utf-8"?>
<!-- Generator: Adobe Illustrator 24.1.3, SVG Export Plug-In . SVG Version: 6.00 Build 0)  -->
<svg version="1.1" id="Layer_1" xmlns="http://www.w3.org/2000/svg" xmlns:xlink="http://www.w3.org/1999/xlink" x="0px" y="0px"
	 viewBox="0 0 100 100" style="enable-background:new 0 0 100 100;" xml:space="preserve">
<style type="text/css">
	.st0{fill:#13990A;}
</style>
<g id="Whatsapp" transform="translate(0)">
	<g id="Group_144">
		<path id="Combined_Shape" class="st0" d="M49.8,94.8H48c-6.9-0.3-13.7-2.1-19.7-5.4l-20,5.2c-0.2,0-0.4,0.1-0.6,0.1
			c-0.7,0-1.4-0.3-1.8-0.9c-0.4-0.6-0.6-1.3-0.4-2l5.3-19.4l-0.8-1.5C7,65,5.2,58.4,4.9,51.7v-1.6C5,25.3,25.3,5.3,50.1,5.4
			c11.8,0.1,23.1,4.8,31.4,13.1c8.4,8.3,13.2,19.7,13.1,31.6C94.6,74.8,74.5,94.8,49.8,94.8z M33.3,28.7c-1.2,0-2.3,0.6-3.1,1.4
			L30,30.4c-2.5,2.5-3.9,5.9-3.8,9.4c0.4,4.4,2,8.5,4.7,12l0,0l0.2,0.3c4.7,7.5,11.5,13.5,19.6,17.1c3.6,1.7,7.5,2.8,11.5,3.1
			c0.6,0,1.2,0,1.8-0.1l0.6-0.1c3.3-0.6,6.1-2.6,7.8-5.5c0.8-1.7,1-3.6,0.7-5.5c-0.2-0.4-0.8-0.6-1.6-1l-0.7-0.3
			c-1.1-0.5-6.9-3.4-8-3.8c-0.4-0.2-0.8-0.3-1.2-0.3c-0.6,0-1.1,0.4-1.4,0.9c-0.4,0.5-1.3,1.8-3.7,4.5c-0.3,0.4-0.8,0.6-1.3,0.7
			c-0.4,0-0.9-0.2-1.3-0.4c-0.2-0.1-0.4-0.2-0.8-0.3c-3.1-1.3-6-3.1-8.5-5.4c-2.5-2.3-4.7-5-6.5-8c-0.7-1.2,0-1.9,0.5-2.4
			c0.3-0.3,0.7-0.8,1.1-1.2c0.2-0.3,0.4-0.5,0.7-0.8c0.4-0.5,0.8-1.1,1-1.7l0.1-0.3c0.3-0.6,0.3-1.4-0.1-2c-0.1-0.3-0.7-1.5-1.3-3
			c-0.8-1.9-1.8-4.3-2.3-5.5c-0.9-1.9-1.8-2-2.6-2C34.9,28.7,34.1,28.7,33.3,28.7z"/>
	</g>
</g>
</svg>
