<svg xmlns="http://www.w3.org/2000/svg" viewBox="0 0 29.52 10.86"><path d="M1.71,2.86H2.94V7.18H5.61v1H1.71Z"/><path d="M7,5.52A2.75,2.75,0,0,1,9.93,2.77a2.75,2.75,0,1,1,0,5.5A2.75,2.75,0,0,1,7,5.52Zm4.57,0a1.67,1.67,0,1,0-3.33,0,1.67,1.67,0,1,0,3.33,0Z"/><path d="M18.5,5.44h1.13V7.6a3.71,3.71,0,0,1-2.16.67,2.75,2.75,0,1,1,0-5.5,2.82,2.82,0,0,1,2.22.92l-.79.73a1.78,1.78,0,0,0-1.37-.6,1.63,1.63,0,0,0-1.74,1.7,1.63,1.63,0,0,0,1.72,1.7,2,2,0,0,0,1-.22Z"/><path d="M21.57,5.52a2.75,2.75,0,0,1,2.91-2.75,2.75,2.75,0,1,1,0,5.5A2.75,2.75,0,0,1,21.57,5.52Zm4.58,0a1.67,1.67,0,1,0-3.33,0,1.67,1.67,0,1,0,3.33,0Z"/></svg>