<svg id="Layer_1" data-name="Layer 1" xmlns="http://www.w3.org/2000/svg" viewBox="0 0 246.52 267.18"><defs><style>.cls-1{fill:#fff;}</style></defs><path class="cls-1" d="M-488.66-275c4.32-7.29,8.62-14.48,12.8-21.73a4.74,4.74,0,0,0,.18-3q-5.62-29.49-11.34-59c-.19-1-.3-2-.53-3.56,3.39,0,6.56-.07,9.72,0,2.42.07,3.35-1,3.31-3.35-.09-5.07,0-10.13,0-15.62h3.6c12.36,0,24.71-.11,37.07.07a33,33,0,0,1,9.73,1.55A85.28,85.28,0,0,1-365.76-299c.05,9.55,0,19.11,0,28.66,0,.91-.09,1.82-.15,2.93h-40.82v-44.3a6.61,6.61,0,0,0-.15-2.76,3.17,3.17,0,0,0-2.13-1.68c-.72,0-1.64,1-2.05,1.79a5.65,5.65,0,0,0-.12,2.45q0,20.42,0,40.81v3.65H-566.86v-44.37c0-.73.23-1.59-.08-2.15a12.43,12.43,0,0,0-2-2.3c-.78.77-2.14,1.46-2.25,2.31a59.83,59.83,0,0,0-.12,7.46v39.09h-40.61a3.53,3.53,0,0,1-.32-1c.12-12.76-.28-25.56.51-38.29,2.09-33.87,29.09-65.87,61.91-74.07a10.24,10.24,0,0,1,2.46-.31q20.86,0,41.74,0c.6,0,1.2.13,2.13.23,0,5.07.12,10,0,15-.1,2.89,1.06,3.91,3.86,3.76s5.78,0,9.22,0c-.85,4.62-1.61,8.94-2.44,13.25-3.14,16.39-6.33,32.79-9.44,49.19a5.08,5.08,0,0,0,.27,3.22c4.09,7,8.32,13.88,12.51,20.8C-489.41-275.48-489.1-275.34-488.66-275Z" transform="translate(612.25 534.63)"/><path class="cls-1" d="M-552-491.13c14.18,10.54,29.43,13.6,45.88,8.12s26.46-17.14,31.4-33.23c3.34,3.41,6.33,7,9.9,10a46.14,46.14,0,0,0,34.42,10.71c1.82-.15,2.74.25,3.52,2,17,38.56-7.82,85.12-49.36,92.55-37.56,6.71-71.85-16.67-79.15-54.15a64.71,64.71,0,0,1,2.66-34.34C-552.52-489.93-552.29-490.38-552-491.13Z" transform="translate(612.25 534.63)"/><path class="cls-1" d="M-481.92-534.16c1.13,3.31,2.29,6.41,3.21,9.59a8.44,8.44,0,0,1,.21,3.93c-3.42,16-12.65,27.42-28.08,33s-30,2.86-42.92-7.5a2.23,2.23,0,0,1-.38-.48C-540.83-517.89-513.44-538-481.92-534.16Z" transform="translate(612.25 534.63)"/><path class="cls-1" d="M-473-532.75c18.68,4.86,32.77,15.58,42.86,32.51a38.19,38.19,0,0,1-16.52-1.38c-9.14-2.71-16.41-8.05-22.48-15.4C-473-521.64-474-526.63-473-532.75Z" transform="translate(612.25 534.63)"/><path class="cls-1" d="M-479.27-366.81h-19.5v-14.05h19.5Z" transform="translate(612.25 534.63)"/></svg>