<svg id="Layer_1" data-name="Layer 1" xmlns="http://www.w3.org/2000/svg" viewBox="0 0 153.99 169.39"><defs><style>.cls-1{fill:#fff;}</style></defs><path class="cls-1" d="M779.89,530.42v-.09c-9.49,0-19,0-28.47,0-5.47,0-8.86,2.89-9.4,7.68-.57,5.17,2.07,8.63,7.68,9.83a48.85,48.85,0,0,0,5.92.74c10.94,1,21.9,1.85,32.81,3,1.39.15,2.6,1.89,3.9,2.9-1.51.68-3.07,2.05-4.53,2-12.45-.85-24.88-1.93-37.32-3-6.33-.56-11.19-3.54-13.29-9.71s-.42-11.54,4.67-15.64c2.36-1.89,1.86-3.42.14-5.37-3.85-4.37-7.48-9-11.39-13.26-4.52-5-11.45-5.75-16.11-2.08-4.93,3.89-5.63,10.84-1.34,16.55,9.82,13,19.58,26.12,29.86,38.79a19.45,19.45,0,0,0,10.25,6.14c12.35,2.69,24.84,4.86,37.36,6.62,8.33,1.17,15.45,3.74,20.15,11.16,1.72,2.72,3.76,2.7,6.2.61q11.57-9.91,23.32-19.62c2.87-2.35,2.83-4.31.43-7-6.92-7.88-13.79-15.81-20.4-24a16.08,16.08,0,0,0-13.46-6.26C797.88,530.46,788.89,530.42,779.89,530.42Zm46.51,81.44a18.67,18.67,0,0,0,3.74-2q15.89-13.27,31.67-26.7c3.08-2.61,3.32-5.58.75-8.73-1.27-1.54-2.47-3.14-3.81-4.62-3.93-4.29-6-4.58-10.6-.78-10,8.27-19.83,16.74-29.75,25.11-2.63,2.21-4.61,5-2.63,8.21C818.21,606.4,820.66,610.79,826.4,611.86Z" transform="translate(-710.33 -442.47)"/><path class="cls-1" d="M779.89,530.42c9,0,18,0,27,0a16.08,16.08,0,0,1,13.46,6.26c6.61,8.15,13.48,16.08,20.4,24,2.4,2.72,2.44,4.68-.43,7q-11.77,9.68-23.32,19.62c-2.44,2.09-4.48,2.11-6.2-.61-4.7-7.42-11.82-10-20.15-11.16-12.52-1.76-25-3.93-37.36-6.62A19.45,19.45,0,0,1,743,562.75C732.74,550.08,723,537,713.16,524c-4.29-5.71-3.59-12.66,1.34-16.55,4.66-3.67,11.59-2.88,16.11,2.08,3.91,4.31,7.54,8.89,11.39,13.26,1.72,2,2.22,3.48-.14,5.37-5.09,4.1-6.76,9.49-4.67,15.64s7,9.15,13.29,9.71c12.44,1.09,24.87,2.17,37.32,3,1.46.1,3-1.27,4.53-2-1.3-1-2.51-2.75-3.9-2.9-10.91-1.19-21.87-2-32.81-3a48.85,48.85,0,0,1-5.92-.74c-5.61-1.2-8.25-4.66-7.68-9.83.54-4.79,3.93-7.65,9.4-7.68,9.49-.06,19,0,28.47,0Z" transform="translate(-710.33 -442.47)"/><path class="cls-1" d="M826.4,611.86c-5.74-1.07-8.19-5.46-10.63-9.48-2-3.25,0-6,2.63-8.21,9.92-8.37,19.76-16.84,29.75-25.11,4.6-3.8,6.67-3.51,10.6.78,1.34,1.48,2.54,3.08,3.81,4.62,2.57,3.15,2.33,6.12-.75,8.73Q846,596.6,830.14,609.89A18.67,18.67,0,0,1,826.4,611.86Z" transform="translate(-710.33 -442.47)"/><path class="cls-1" d="M798.26,462.93a4.21,4.21,0,0,0,1-2.24,3.94,3.94,0,0,0-1.19-3.41,1.6,1.6,0,0,1-.53-1.55c.11-.65.22-1.31.38-2s.27-.61.71-.2a13.78,13.78,0,0,1-5.6,23.49,13.09,13.09,0,0,1-9.6-1,1.46,1.46,0,0,0-1.83,0,1,1,0,0,1-1.33,0,14.52,14.52,0,0,0-1.36-.83.74.74,0,0,0-.51,0,2,2,0,0,0-1.31,1.43c-.23.73-.5,1.45-.8,2.15s-.68.94-1.5.68c-1-.31-2-.66-3-1a1.38,1.38,0,0,0-1.09.11,1.85,1.85,0,0,0-1.26,1.89,5.8,5.8,0,0,1-.18,1.22,1.07,1.07,0,0,1-1,.94,3,3,0,0,1-.79,0,2.3,2.3,0,0,0-2.28,1.4c-.15.39-.33.76-.51,1.13a1.25,1.25,0,0,1-1.33.75,3.6,3.6,0,0,0-2.53.66c-.55.36-1.12.67-1.69,1a.77.77,0,0,1-.53.09c-2-.68-4.06-1.38-6.09-2.08-.55-.19-.74-.43-.64-1,.32-1.82.66-3.64,1.06-5.44.13-.61.69-.93,1.2-1.23L770,468.59l5.64-3.27c.19-.11.36-.2.34-.49a13.36,13.36,0,0,1,2.13-8.44,12.84,12.84,0,0,1,9-6.06,13.73,13.73,0,0,1,6.17.27c.7.2.7.23.53.95a27.39,27.39,0,0,0-.78,3.52,6.9,6.9,0,0,1-1.08,3.12,3.66,3.66,0,0,0,0,4,3.85,3.85,0,0,0,3.55,2,2.49,2.49,0,0,0,.39-.06c-2.62-5-2.72-9.91.17-14.74a13.73,13.73,0,0,1,9.34-6.6,14.24,14.24,0,0,1,16.91,11.92,14.06,14.06,0,0,1-10.07,15.8c-.15-.76-.3-1.52-.42-2.28,0-.09.2-.25.33-.3a11.93,11.93,0,0,0,6.5-5.74,11.61,11.61,0,0,0-11.41-17,11.65,11.65,0,0,0-10.5,9.28,11.35,11.35,0,0,0,1.1,7.83C797.94,462.47,798.09,462.66,798.26,462.93ZM777,469l-.38.2c-4.2,2.43-8.4,4.85-12.58,7.31-2.52,1.47-5,3-7.49,4.49-.67.4-.69.78-.21,1.39a.53.53,0,0,0,.76.17c.46-.26.94-.48,1.4-.74l17-9.78,2.28-1.33Z" transform="translate(-710.33 -442.47)"/><path class="cls-1" d="M785.6,478.76c5.63,1.26,10.65.18,14.78-3.81s5.5-8.89,4.58-14.52l.17-.07c.71.67,1.47,1.29,2.11,2a13,13,0,0,1,3.3,6.58c1.32,8.28-3.61,14-9.66,15.79a25.14,25.14,0,0,1-3.47.59.9.9,0,0,0-.82.56,1.54,1.54,0,0,1-1.76,1l-.44,0c-1.12,0-1.13-.05-1.61.95a1.17,1.17,0,0,0-.07.67c.13.88.31,1.76.42,2.65s-.1,1.25-1,1.47-1.93.41-2.9.57a1.39,1.39,0,0,0-1,.62A1.81,1.81,0,0,0,788,496a6,6,0,0,1,.5,1.32.92.92,0,0,1-.36,1.2,6.48,6.48,0,0,1-.79.49,2.17,2.17,0,0,0-1.22,2.45s0,.06,0,.09c.2,1.7.15,2-1.33,2.77a2.5,2.5,0,0,0-.83.82c-.43.63-.8,1.3-1.18,2a1.7,1.7,0,0,1-1.21.86c-1.78.33-3.54.73-5.32,1.07-1,.19-1.27.06-1.64-.93-.53-1.41-1-2.85-1.5-4.28a2,2,0,0,1,.18-1.73c2.77-4.9,5.52-9.81,8.3-14.71,1.36-2.42,2.75-4.83,4.15-7.23.24-.41.35-.74,0-1.13A2,2,0,0,1,785.6,478.76Zm3.22,3.65c-.12.2-.21.33-.29.47q-3.76,6.58-7.52,13.17c-1.36,2.38-2.7,4.78-4,7.17a.63.63,0,0,0,0,.74,1,1,0,0,0,1.71-.06l11.57-20.14c0-.09.07-.18.12-.29Z" transform="translate(-710.33 -442.47)"/></svg>