<svg id="Layer_1" data-name="Layer 1" xmlns="http://www.w3.org/2000/svg" viewBox="0 0 318.63 173.54"><defs><style>.cls-1{fill:#fff;}</style></defs><path class="cls-1" d="M795.9,601.8h19.33v13.64H500.63V602H520V520H504.89c-.3-3.81-.54-6.89-.82-10.47,2.5-.11,4.61-.29,6.72-.29,36.83,0,73.67-.11,110.5.09a23.56,23.56,0,0,0,14.78-4.81c15.19-11.13,30.5-22.08,45.66-33.23,2.62-1.93,4.43-2.19,7.39-.26q27.39,17.91,55.16,35.25a19.83,19.83,0,0,0,9.77,2.79c20,.26,40,.14,60,.15h5.21v10.48H795.9Zm-107.77-73v71.62h26.43V528.83Zm-31.19-.06v71.69h26.43V528.77ZM594,590.27V537c-4.42,0-8.53.15-12.63-.05-3.16-.16-3.94,1.18-3.92,4.11.1,15.46,0,30.92.07,46.38a17.72,17.72,0,0,0,.49,2.88ZM781.3,590V537.37H764.89v39.31C764.9,592.25,764.9,592.25,781.3,590ZM561.51,537.26H545.64v53h15.87ZM694.13,505c.09-4.59-4.16-9-8.83-9.09a9.19,9.19,0,0,0-9.12,8.7,9.35,9.35,0,0,0,9.3,9.54C690,514.17,694,509.92,694.13,505Z" transform="translate(-500.63 -441.9)"/><path class="cls-1" d="M788.6,496.26c-12.06,0-23.36.1-34.65-.09-1.66,0-3.42-1.21-4.93-2.17-19.8-12.63-39.61-25.24-59.3-38.05-3.41-2.21-5.71-2.32-9.17.23-17.28,12.76-34.79,25.23-52.33,37.64a12.81,12.81,0,0,1-6.79,2.4c-30.67.16-61.33.11-92,.09a10.92,10.92,0,0,1-1.9-.42,27,27,0,0,1,2-2.76c15-16.05,30-32.15,45.24-48A11.17,11.17,0,0,1,582,442q76-.27,152,0c2.1,0,4.85.62,6.18,2,15.9,16.61,31.6,33.41,47.33,50.18A12.73,12.73,0,0,1,788.6,496.26Z" transform="translate(-500.63 -441.9)"/><path class="cls-1" d="M695.27,536.34h12V572c-3.22,0-6.48.18-9.69-.11a3.39,3.39,0,0,1-2.25-2.42C695.21,558.55,695.27,547.61,695.27,536.34Z" transform="translate(-500.63 -441.9)"/><path class="cls-1" d="M676.11,571.78H663.82V553.39c0-4,.28-8-.11-11.95-.45-4.55,1.39-6,5.66-5.49a59.91,59.91,0,0,0,6.74,0Z" transform="translate(-500.63 -441.9)"/></svg>