<svg id="Layer_1" data-name="Layer 1" xmlns="http://www.w3.org/2000/svg" viewBox="0 0 207.07 171.61"><defs><style>.cls-1{fill:#fff;}</style></defs><path class="cls-1" d="M601.82,384.28c0,3.14-.05,6.21,0,9.27a35.83,35.83,0,0,0,.45,5.67,9,9,0,0,0,6.52,7.35,9.14,9.14,0,0,0,9.56-2.26,10.45,10.45,0,0,0,3.33-7.74c.08-3.63.11-7.25.16-10.88,0-.47,0-.93,0-1.47h20.92c0,.56,0,1.06,0,1.56.07,3.84.09,7.68.23,11.53a9.54,9.54,0,0,0,3.77,7.63,9,9,0,0,0,9.62,1.34c3.47-1.52,5.81-4.11,6.06-8,.27-4.14.31-8.29.44-12.43,0-.47,0-.95,0-1.54h20.45c0,2-.06,3.93,0,5.86a75.31,75.31,0,0,0,.56,9.28A9.69,9.69,0,0,0,703.07,398c.2-4,.22-8,.31-12,0-.51,0-1,0-1.65h21c0,.52,0,1,0,1.51.08,4,.1,8,.28,11.91a9.75,9.75,0,0,0,18.17,4.52,11.37,11.37,0,0,0,1.22-4.69c.28-4,.31-7.94.45-11.91,0-.42,0-.85.09-1.45h20.09c4.1,0,7.11,2.08,9.46,5.21a9.41,9.41,0,0,1,1.83,5.69c.07,6.91.26,13.82.25,20.73q-.07,42.64-.24,85.27c0,1.92.25,3.95-.9,5.67a11,11,0,0,1-2.29,2.75c-14.15,10.64-28.35,21.21-42.51,31.84a9.12,9.12,0,0,1-5.67,1.79c-7.3.08-14.6.25-21.9.27q-48.39.11-96.79.15c-8.46,0-16.93.13-25.39,0a10.3,10.3,0,0,1-4.41-1.6,15.43,15.43,0,0,1-6.85-8.34,3.31,3.31,0,0,1-.12-1.14q0-63.12.11-126.22c0-4.15.19-8.29.36-12.43a5.51,5.51,0,0,1,.66-2.47c2.37-4,5.65-6.83,10.52-7,6.78-.18,13.56-.15,20.34-.2C601.27,384.16,601.43,384.22,601.82,384.28Zm-26.29,37.55c0,.87-.12,1.51-.12,2.15-.06,17-.19,33.95-.16,50.92,0,18.49.24,37,.32,55.46a6.55,6.55,0,0,0,2.31,5,6.83,6.83,0,0,0,4.84,1.82c4.71,0,9.41.16,14.12.16l124.64-.08c.41,0,.82,0,1.33-.09v-1.42c.09-5.22.14-10.45.28-15.67.08-3.15.16-6.31.47-9.44a10.33,10.33,0,0,1,8.7-8.68c2.4-.27,4.82-.42,7.23-.46,9.5-.15,19-.24,28.5-.36h1.83v-79.3Zm154,111.44c12.05-8.54,23.8-16.87,35.56-25.19l-.17-.37a8.4,8.4,0,0,0-.85-.08c-4.1-.07-8.19-.2-12.29-.2-5.27,0-10.54,0-15.79.25-3.72.19-6.54,2.08-6.53,6.32,0,5.91-.11,11.82-.17,17.73A14.77,14.77,0,0,0,729.52,533.27Z" transform="translate(-569.11 -371.97)"/><path class="cls-1" d="M649.89,386.07c0-3.71,0-7.42,0-11.13,0-2.17,1.06-2.8,2.85-2.89a2.53,2.53,0,0,1,2.93,2.82c.06,7.5.07,15,0,22.51a2.83,2.83,0,1,1-5.66.33c-.11-3.88-.06-7.76-.06-11.64Z" transform="translate(-569.11 -371.97)"/><path class="cls-1" d="M614.73,386.2c0,3.7,0,7.41,0,11.12a2.8,2.8,0,0,1-3.22,2.89c-1.59,0-2.44-.74-2.49-2.34q-.19-6.6-.21-13.19c0-3.36,0-6.73.17-10.08.07-1.75,1.1-2.57,2.87-2.57a2.55,2.55,0,0,1,2.85,2.66c.14,3.53.16,7.07.23,10.6v.91Z" transform="translate(-569.11 -371.97)"/><path class="cls-1" d="M731.4,386c0-3.67-.06-7.34,0-11,.05-2.17,1.38-3.21,3.46-2.9a2.36,2.36,0,0,1,2.26,2.12,18.06,18.06,0,0,1,.17,2.06q0,9.84,0,19.68a13.3,13.3,0,0,1-.09,1.55,3,3,0,0,1-4.44,2.42,2.61,2.61,0,0,1-1.17-1.53,13.74,13.74,0,0,1-.26-3.08c0-3.11,0-6.21,0-9.32Z" transform="translate(-569.11 -371.97)"/><path class="cls-1" d="M690.41,386.23c0-3.45,0-6.91,0-10.36,0-2.7,1-3.89,2.94-3.9s2.95,1.19,3,3.87c0,6.9,0,13.81,0,20.72,0,3.53-2,3.83-3.92,3.56a1.92,1.92,0,0,1-1.83-1.86c-.07-1-.19-2-.2-3,0-3,0-6,0-9.06Z" transform="translate(-569.11 -371.97)"/><path class="cls-1" d="M712.78,444.75c.7,7.62-6.31,16.29-16.19,16.25-10.13,0-16.12-9.07-16.24-16.1-.18-9.55,8.55-16.67,16.19-16.65C704.82,428.27,713.54,435.87,712.78,444.75Zm-26-1.7c-.29.32-.51.53-.69.76-1.17,1.48-1.19,1.57.26,2.78,2.35,2,4.74,3.88,7.12,5.8.75.61,1.54,1.19,2.3,1.78l12.74-12.92-1.92-2L695.67,450Z" transform="translate(-569.11 -371.97)"/><path class="cls-1" d="M649.11,531.59c-8.46.95-16.39-7.51-16.42-16.32,0-7.91,7.83-15.95,15.77-16.15,9.55-.25,17.88,8.49,16.79,16.43C666.34,523.41,657.63,532.65,649.11,531.59Zm-.76-10.69-9.14-7.06c-.28.32-.49.53-.67.77-1.17,1.46-1.2,1.5.28,2.72,2.8,2.31,5.66,4.54,8.45,6.84a1.29,1.29,0,0,0,2.07-.14c3.79-3.78,7.62-7.51,11.43-11.27a1.71,1.71,0,0,0,.28-.39l-1.94-2.27Z" transform="translate(-569.11 -371.97)"/><path class="cls-1" d="M588.86,435.19h26.79v16.37H588.86Z" transform="translate(-569.11 -371.97)"/><path class="cls-1" d="M729.65,435.18h26.82v16.39H729.65Z" transform="translate(-569.11 -371.97)"/><path class="cls-1" d="M662.35,451.64H635.92V435.11h1.35c7.9,0,15.8,0,23.71,0,1.11,0,1.48.24,1.47,1.42-.07,4.58,0,9.16,0,13.74C662.41,450.67,662.38,451.09,662.35,451.64Z" transform="translate(-569.11 -371.97)"/><path class="cls-1" d="M682.55,523.88v-16c.47,0,.86-.06,1.24-.06,8.12,0,16.23,0,24.35,0,1.05,0,1.42.25,1.4,1.36-.06,4.53,0,9.07,0,13.6,0,.74-.07,1.2-1,1.2-8.42,0-16.84,0-25.26,0A5.58,5.58,0,0,1,682.55,523.88Z" transform="translate(-569.11 -371.97)"/><path class="cls-1" d="M682.53,487.7V471.77H709.4a8.73,8.73,0,0,1,.11,1c0,4.62,0,9.23,0,13.85,0,.73,0,1.21-1,1.21-8.46,0-16.91,0-25.37,0A4.47,4.47,0,0,1,682.53,487.7Z" transform="translate(-569.11 -371.97)"/><path class="cls-1" d="M588.86,471.75h26.78v15.94H588.86Z" transform="translate(-569.11 -371.97)"/><path class="cls-1" d="M662.32,487.74H635.5v-16h26.82Z" transform="translate(-569.11 -371.97)"/><path class="cls-1" d="M729.62,487.69V471.75H756.5v15.94Z" transform="translate(-569.11 -371.97)"/><path class="cls-1" d="M615.66,523.9H588.87V508h26.79Z" transform="translate(-569.11 -371.97)"/></svg>