<?xml version="1.0" encoding="UTF-8"?>
<svg id="Layer_1" data-name="Layer 1" xmlns="http://www.w3.org/2000/svg" viewBox="0 0 100 100">
  <defs>
    <style>
      .cls-1 {
        fill: #a5a5a5;
      }

      .cls-2 {
        stroke: #231f20;
        stroke-miterlimit: 10;
        stroke-width: 2px;
      }

      .cls-3 {
        fill: #231f20;
      }
    </style>
  </defs>
  <g>
    <path class="cls-1" d="m5.05,88.29c.51-1.72,1.72-2.92,2.95-4.14,7.91-7.89,15.84-15.76,23.68-23.72,1.8-1.83,4.04-2.7,6.57-.76,1.78-1.78,3.55-3.55,5.22-5.22-1.35-2.06-2.89-4.07-4.07-6.26-8.48-15.79-.48-35.88,16.54-41.51,2.09-.69,4.31-.98,6.47-1.45.2-.04.39-.11.58-.16,1.64,0,3.28,0,4.92,0,1.77.34,3.59.53,5.3,1.06,11.97,3.68,19.31,11.68,21.36,24.05,2.56,15.53-8.1,30.49-23.49,33.29-9.43,1.72-17.83-.63-25.12-6.87-.09-.08-.18-.15-.2-.16-1.79,1.81-3.58,3.6-5.39,5.43.96,1.04,1.38,2.45.88,3.98-.23.72-.7,1.43-1.23,1.97-8.4,8.44-16.86,16.82-25.22,25.29-3.35,3.39-8.62,1.77-9.59-2.34-.02-.07-.1-.13-.16-.19,0-.76,0-1.52,0-2.28Zm33.62-53.76c-.01,14.76,11.95,26.74,26.77,26.81,14.74.07,26.88-12.04,26.88-26.81,0-14.73-12.05-26.8-26.79-26.83-14.76-.04-26.84,12.03-26.85,26.84Zm-8.59,31.33c-.09.08-.18.16-.27.24-7.01,7.01-14.03,14.03-21.04,21.04-.19.19-.37.38-.52.59-1.17,1.64-.4,3.86,1.54,4.44,1.29.39,2.27-.13,3.15-1.01,6.91-6.91,13.82-13.82,20.73-20.73.18-.18.34-.37.46-.51-1.37-1.37-2.68-2.69-4.05-4.07Zm2.07-2.17c1.45,1.44,2.78,2.77,4.17,4.15.61-.63,1.31-1.33,1.98-2.06.64-.7.68-1.44.06-2.12-.65-.71-1.33-1.4-2.05-2.04-.65-.59-1.39-.57-2.05.03-.76.68-1.47,1.41-2.12,2.03Z"/>
    <path class="cls-1" d="m10.57,95.94c-.6,0-1.21-.08-1.8-.25-2.22-.62-3.87-2.28-4.47-4.47,0,0,0,0,0,0l-.24-.28.04-2.93c.58-1.95,1.9-3.26,3.17-4.53l3.13-3.12c6.76-6.74,13.75-13.7,20.57-20.61,2.26-2.29,4.78-2.76,7.16-1.35l4.05-4.05c-.28-.42-.57-.83-.85-1.24-.97-1.41-1.98-2.86-2.81-4.42-4.18-7.78-4.67-17.04-1.34-25.4,3.33-8.36,10.05-14.75,18.45-17.53,1.48-.49,3.02-.78,4.51-1.07.69-.13,1.38-.26,2.06-.41.11-.02.22-.06.33-.09l.47-.1,5.11.02c.55.11,1.11.2,1.66.29,1.23.2,2.51.41,3.75.79,12.55,3.86,19.96,12.22,22.05,24.85,2.65,16.07-8.25,31.52-24.29,34.44-9.44,1.72-18-.52-25.44-6.67l-4.13,4.17c.79,1.25.98,2.74.51,4.2-.27.83-.81,1.69-1.48,2.37-3.38,3.4-6.77,6.79-10.16,10.17-4.95,4.94-10.06,10.05-15.06,15.12-1.37,1.39-3.13,2.13-4.94,2.13Zm-4.51-5.73c.05.09.1.19.13.31.37,1.58,1.54,2.79,3.12,3.24,1.68.47,3.47-.04,4.78-1.36,5-5.07,10.12-10.18,15.07-15.13,3.39-3.39,6.78-6.77,10.16-10.17.45-.45.82-1.04.99-1.57.35-1.08.11-2.14-.67-2.99l-.65-.7,6.71-6.75.7.57c.06.04.14.11.22.18,7.07,6.06,15.24,8.3,24.29,6.65,14.98-2.73,25.16-17.15,22.68-32.15-1.95-11.82-8.9-19.64-20.66-23.26-1.11-.34-2.26-.53-3.49-.73-.54-.09-1.08-.18-1.62-.28h-4.72c-.15.06-.31.1-.47.14-.7.15-1.41.29-2.11.42-1.49.28-2.9.55-4.26,1-7.83,2.59-14.11,8.56-17.22,16.38-3.11,7.81-2.66,16.45,1.25,23.72.78,1.46,1.75,2.86,2.69,4.23.45.65.9,1.3,1.33,1.96l.45.68-6.41,6.41-.7-.53c-1.12-.86-2.89-1.72-5.25.67-6.82,6.92-13.82,13.89-20.58,20.63l-3.11,3.1c-1.14,1.14-2.19,2.19-2.65,3.58v1.77Zm4.58,3.1c-.37,0-.75-.06-1.14-.17-1.24-.37-2.19-1.27-2.6-2.48-.41-1.19-.21-2.47.54-3.51.2-.28.42-.51.63-.72l21.04-21.04c.08-.08.16-.15.24-.22l.71-.62.74.6,4.72,4.74-.74.82c-.12.13-.25.29-.4.43l-20.73,20.73c-.96.96-1.95,1.43-3.01,1.43Zm19.43-26.05l-20.59,20.59c-.15.15-.29.3-.42.47-.37.51-.46,1.13-.27,1.7.2.58.66,1.02,1.28,1.2.76.23,1.39,0,2.15-.76l20.51-20.51-2.68-2.69Zm6.27,2.01l-5.62-5.59,1.32-1.27c.49-.48,1.02-1,1.56-1.49,1.04-.95,2.37-.96,3.39-.03.73.66,1.44,1.37,2.11,2.11.96,1.05.93,2.38-.07,3.47-.48.53-.98,1.04-1.45,1.51l-1.25,1.29Zm-2.76-5.57l2.74,2.73c.41-.42.84-.86,1.26-1.31.36-.39.26-.55.06-.77-.63-.69-1.29-1.36-1.98-1.98-.23-.21-.39-.25-.71.03-.47.43-.93.88-1.37,1.3Zm31.99-1.36h-.13c-15.32-.07-27.77-12.55-27.76-27.81h1s-1,0-1,0c0-7.44,2.92-14.45,8.21-19.72,5.25-5.24,12.2-8.12,19.57-8.12h.07c15.32.04,27.79,12.52,27.79,27.83,0,7.42-2.92,14.42-8.23,19.7-5.26,5.23-12.19,8.11-19.52,8.11Zm-.11-53.65c-6.83,0-13.28,2.67-18.15,7.53-4.91,4.9-7.62,11.4-7.63,18.3-.01,14.17,11.55,25.74,25.77,25.81h.12c6.8,0,13.23-2.67,18.11-7.53,4.93-4.9,7.64-11.4,7.64-18.28,0-14.21-11.57-25.8-25.79-25.83h-.07Z"/>
  </g>
  <g>
    <path class="cls-1" d="m65.48,10.7c11.95,0,22.09,8.82,23.62,20.64.83,6.43-.73,12.29-4.58,17.52-.45.62-.99,1.02-1.79.67-.65-.29-.9-.84-.75-1.51.08-.32.31-.62.51-.9,6.51-8.9,5.25-21.07-2.95-28.43-7.33-6.57-18.55-7.12-26.48-1.31-1.15.84-1.89.89-2.44.16-.56-.74-.3-1.44.84-2.29,3.98-2.94,8.98-4.56,14.01-4.56Z"/>
    <path class="cls-1" d="m83.3,50.66c-.36,0-.69-.09-.97-.21-1.09-.47-1.59-1.49-1.32-2.66.12-.5.41-.9.64-1.21,6.23-8.51,5.02-20.15-2.78-27.14-7.02-6.29-17.62-6.82-25.22-1.25-2.02,1.48-3.19.79-3.83-.04-.49-.64-.52-1.24-.47-1.63.1-.73.58-1.38,1.51-2.07,4.16-3.07,9.34-4.76,14.59-4.76h0c12.44,0,23.03,9.25,24.62,21.52.86,6.63-.74,12.77-4.76,18.24-.68.92-1.39,1.21-2.03,1.21Zm-17.83-38.32c5.3,0,10.59,1.89,14.74,5.6,8.56,7.67,9.89,20.47,3.09,29.76-.15.2-.32.43-.34.54-.05.23-.01.28.17.36.15.07.25.11.58-.35,3.71-5.04,5.18-10.69,4.39-16.8-1.46-11.27-11.19-19.77-22.63-19.77h0c-4.83,0-9.59,1.55-13.41,4.37-.65.48-.72.73-.72.74,0,0,.01.05.08.13.07.1.11.12.11.12h0s.25.03.94-.48c3.86-2.83,8.44-4.23,13-4.23Z"/>
  </g>
  <g>
    <path class="cls-1" d="m41.62,35.34c.09-6,1.58-10.74,4.68-14.94.72-.98,1.49-1.24,2.19-.73.7.5.68,1.32-.04,2.3-8.1,11.04-3.87,26.75,8.75,32.02,7.25,3.02,14.22,2.15,20.71-2.33.17-.12.32-.25.49-.36.73-.47,1.51-.38,1.94.24.43.61.29,1.41-.39,1.93-2.68,2.05-5.66,3.51-8.95,4.25-13.21,2.99-25.82-4.94-28.8-18.13-.37-1.64-.47-3.35-.59-4.24Z"/>
    <path class="cls-1" d="m65.42,59.34c-4.68,0-9.22-1.28-13.18-3.78-5.6-3.52-9.51-9.12-11.01-15.76-.28-1.26-.41-2.54-.51-3.47-.03-.33-.06-.63-.09-.86v-.07s0-.07,0-.07c.09-6.2,1.64-11.13,4.88-15.52,1.25-1.7,2.67-1.6,3.58-.95.5.36.81.85.9,1.42.11.71-.13,1.48-.72,2.28-3.71,5.06-4.88,11.41-3.21,17.43,1.65,5.94,5.86,10.7,11.54,13.07,6.83,2.85,13.48,2.1,19.76-2.23.06-.04.12-.09.18-.13.11-.09.22-.17.34-.25,1.17-.76,2.56-.55,3.3.5.74,1.05.49,2.47-.6,3.3-2.85,2.18-5.99,3.67-9.33,4.43-1.94.44-3.88.66-5.8.66Zm-22.8-24.06c.03.24.06.53.09.85.09.88.21,2.09.47,3.23,1.38,6.12,4.98,11.27,10.12,14.51s11.35,4.26,17.48,2.87c3.06-.69,5.94-2.06,8.56-4.07.09-.07.36-.3.18-.55-.14-.2-.39-.1-.58.02-.07.05-.14.1-.21.15-.09.07-.17.13-.26.2-6.87,4.74-14.16,5.56-21.67,2.43-6.25-2.61-10.88-7.85-12.7-14.38-1.84-6.61-.56-13.59,3.52-19.15.31-.43.37-.7.36-.79,0-.03-.04-.07-.1-.11-.07-.05-.27-.19-.79.51-2.97,4.02-4.39,8.56-4.49,14.29Z"/>
  </g>
  <g>
    <path d="m65.29,40.2c3.04.09,5.65.95,7.83,2.92.83.75.96,1.47.39,2.12-.56.65-1.32.61-2.15-.12-3.36-2.95-8.3-2.98-11.7-.06-.04.04-.09.08-.13.12-.78.66-1.55.68-2.09.07-.52-.6-.44-1.34.27-2.01,1.71-1.62,3.75-2.54,6.06-2.88.55-.08,1.1-.12,1.51-.16Z"/>
    <path class="cls-3" d="m72.59,46.7c-.63,0-1.27-.28-1.89-.82-2.99-2.63-7.36-2.65-10.38-.05l-.14.12c-1.18,1-2.58.98-3.48-.04-.88-1.01-.75-2.37.33-3.39,1.8-1.71,4.03-2.76,6.61-3.14.41-.06.82-.1,1.18-.13l.44-.04h.07c3.45.11,6.22,1.15,8.47,3.18,1.83,1.66.82,3.11.47,3.52-.42.48-.95.76-1.53.79-.05,0-.1,0-.14,0Zm-7.1-4.81c2.33,0,4.65.83,6.54,2.49.3.27.52.32.58.32.05,0,.13-.09.15-.11.11-.13.22-.25-.3-.72-1.89-1.71-4.16-2.56-7.13-2.66l-.33.03c-.33.03-.7.06-1.07.12-2.2.32-4,1.18-5.52,2.62-.41.39-.28.53-.2.62.07.08.2.24.69-.17l.12-.11c1.88-1.62,4.18-2.42,6.47-2.42Z"/>
  </g>
  <path class="cls-2" d="m72.53,32.08c-.69.72-1.23,1.33-1.81,1.89-.62.6-1.42.61-1.95.08-.53-.53-.51-1.34.09-1.95.57-.58,1.17-1.13,1.85-1.77-.65-.63-1.22-1.17-1.76-1.72-.66-.67-.73-1.45-.2-2.02.58-.62,1.33-.58,2.07.12.55.52,1.09,1.06,1.63,1.58.02.02.05.02.23.1.51-.55,1.04-1.16,1.62-1.73.68-.67,1.44-.68,2-.09.54.57.5,1.27-.13,1.95-.28.3-.56.59-.87.87-.3.27-.63.51-1.12.89.75.67,1.37,1.17,1.92,1.73.72.72.74,1.49.13,2.07-.57.53-1.33.46-2.02-.2-.28-.26-.55-.53-.8-.81-.26-.28-.5-.57-.87-1Z"/>
  <g>
    <path d="m58.41,28.56c.74-.78,1.28-1.39,1.87-1.95.62-.59,1.32-.59,1.88-.08.58.54.6,1.3-.01,1.94-.58.61-1.21,1.17-1.93,1.85.69.64,1.31,1.18,1.87,1.76.67.69.67,1.44.06,2-.54.51-1.33.47-1.95-.14-.56-.55-1.09-1.13-1.88-1.96-.55.67-1.02,1.3-1.55,1.87-.69.72-1.51.77-2.07.2-.58-.59-.53-1.34.21-2.07.54-.53,1.11-1.02,1.76-1.62-.7-.68-1.29-1.23-1.85-1.81-.65-.68-.68-1.46-.1-2.01.57-.55,1.29-.53,1.94.11.58.57,1.1,1.2,1.75,1.91Z"/>
    <path class="cls-3" d="m55.57,35.44c-.59,0-1.16-.24-1.59-.68-.99-1-.91-2.37.21-3.49.32-.32.65-.62,1-.93-.39-.38-.75-.73-1.1-1.09-.49-.51-.76-1.1-.79-1.7-.03-.64.23-1.25.72-1.73.97-.93,2.31-.89,3.33.11.37.36.71.74,1.07,1.15.41-.44.78-.83,1.17-1.2.99-.94,2.3-.97,3.25-.08.47.44.74,1.01.75,1.6.02.63-.23,1.24-.73,1.76-.37.39-.76.76-1.18,1.16.4.36.77.71,1.12,1.07.67.7.8,1.38.79,1.82-.02.6-.28,1.15-.76,1.61-.94.88-2.34.81-3.34-.16-.36-.35-.71-.72-1.12-1.16-.29.36-.57.7-.89,1.03-.55.57-1.22.9-1.89.9h-.02Zm.03-8.29c-.08,0-.14.05-.2.11-.11.11-.11.17-.11.19,0,.04.02.19.23.4.37.38.75.75,1.17,1.16l1.41,1.37-1.38,1.25c-.4.36-.78.69-1.13,1.05-.43.43-.3.56-.2.66.09.09.14.09.17.09.1,0,.27-.08.46-.28.34-.35.66-.75.99-1.18.17-.21.33-.42.51-.63l.72-.87,1.47,1.55c.43.46.79.84,1.16,1.2.16.16.39.3.57.13.08-.07.13-.15.13-.19,0-.07-.06-.21-.23-.38-.37-.39-.77-.75-1.2-1.14l-1.41-1.31,1.43-1.35c.44-.41.85-.79,1.23-1.2.11-.12.18-.24.18-.32,0-.08-.08-.16-.12-.2-.12-.11-.21-.2-.5.07-.38.36-.74.75-1.16,1.2-.21.23-.43.47-.68.72l-.74.78-.72-.79c-.21-.23-.41-.45-.6-.67-.38-.43-.74-.83-1.12-1.2-.16-.16-.27-.21-.35-.21Z"/>
  </g>
</svg>