<?xml version="1.0" encoding="UTF-8"?>
<svg id="Layer_1" data-name="Layer 1" xmlns="http://www.w3.org/2000/svg" viewBox="0 0 100 100">
  <defs>
    <style>
      .cls-1 {
        fill: #a5a5a5;
      }
    </style>
  </defs>
  <g>
    <path class="cls-1" d="m78.22,48.99c-1.46,0-2.9-.02-4.33,0-.75.02-1.46.07-2.15-.4-.37-.25-.93-.3-1.4-.3-18.99-.01-37.97-.01-56.96,0-2.04,0-3.43,1.41-3.44,3.46,0,1,0,1.99,0,3.08h49.09c-.23.27-.33.41-.45.53-3.34,3.07-5.7,6.76-6.97,11.12-.17.58-.46.66-.99.66-13.21-.01-26.42-.01-39.63-.01-.31,0-.63,0-1.06,0,0,.3,0,.56,0,.81,0,5.34,0,10.67,0,16.01,0,2.29,1.35,3.63,3.64,3.63,13.57,0,27.15,0,40.72,0,.53,0,.86.15,1.22.58,1.24,1.46,2.55,2.86,3.87,4.32-.15,0-.38.03-.6.03-15.11,0-30.22,0-45.33,0-4.93,0-8.44-3.57-8.46-8.6-.02-7.63,0-15.25,0-22.88,0-3.05-.02-6.09,0-9.14.03-4.03,2.41-7.22,6.11-8.2.7-.18,1.44-.27,2.17-.27,19.03-.01,38.07-.02,57.1,0,3.57,0,6.1,1.73,7.63,4.94.07.15.13.31.19.47.02.07.02.14.03.18Z"/>
    <path class="cls-1" d="m33.29,93.73c-6.61,0-13.22,0-19.83,0-5.61,0-9.69-4.14-9.71-9.84-.01-5.34,0-10.68,0-16.02v-6.86s0-2.79,0-2.79c0-2.12,0-4.24,0-6.35.04-4.59,2.8-8.28,7.04-9.4.78-.21,1.61-.31,2.48-.31,19.03-.01,38.07-.02,57.1,0,3.96,0,6.99,1.96,8.76,5.65.09.19.17.4.24.6.08.21.09.4.09.48l.08,1.33-1.33.04h-1.29c-1.01,0-2.01-.01-3.01,0h-.14c-.78.02-1.76.05-2.74-.62,0,0-.17-.08-.7-.08-18.98-.01-37.97-.01-56.95,0-1.34,0-2.19.85-2.2,2.21,0,.6,0,1.2,0,1.82h50.55l-1.95,2.29c-.15.18-.25.3-.37.41-3.21,2.96-5.43,6.51-6.61,10.56-.45,1.56-1.76,1.57-2.19,1.56-11.12-.01-22.24,0-33.37,0h-6.06v4.27s0,11.3,0,11.3c0,1.6.78,2.38,2.39,2.38h2.55c12.73,0,25.45,0,38.18,0h0c.9,0,1.57.31,2.16,1.02.89,1.05,1.8,2.05,2.77,3.11l2.84,3.14-2.75.14c-.16,0-.35.02-.54.02h-8c-5.83,0-11.67,0-17.5,0Zm12.1-49.1c-10.7,0-21.41,0-32.11.01-.65,0-1.29.08-1.85.23-3.16.84-5.15,3.52-5.18,7-.02,2.11-.01,4.22,0,6.33v2.8s0,6.86,0,6.86c0,5.34,0,10.67,0,16.01.01,4.33,2.97,7.35,7.21,7.35,12.44,0,24.89,0,37.33,0h5.79c-.68-.75-1.36-1.51-2.02-2.29-.08-.09-.12-.12-.12-.12h0s-.04,0-.13,0c-12.73.01-25.45,0-38.18,0h-2.54c-2.97,0-4.88-1.92-4.89-4.88v-11.3s0-6.77,0-6.77h8.56c11.08,0,22.15,0,33.23,0,1.12-3.68,3-6.96,5.61-9.81H8.69v-2.25c0-.71,0-1.4,0-2.09.02-2.72,1.99-4.7,4.69-4.7,18.99,0,37.97,0,56.96,0,.58,0,1.43.06,2.11.52.3.2.62.2,1.26.19h.15c.79-.02,1.57-.02,2.37-.02-1.35-2.07-3.28-3.08-5.86-3.08-8.33,0-16.66-.01-24.99-.01Zm31.63,4.59s0,0,0,0c0,0,0,0,0,0Z"/>
  </g>
  <path class="cls-1" d="m41.04,6.61c8.03,8.03,16.15,16.14,24.28,24.28-.21,0-.46,0-.72,0-3.51,0-7.02.01-10.52-.01-.6,0-.8.16-.78.77.04,1.97.01,3.95.01,5.92,0,.26,0,.53,0,.85h-24.52v-7.5h-12.05c8.15-8.15,16.27-16.26,24.3-24.3Z"/>
  <g>
    <path d="m95.01,73.49c-.02,11.02-9,19.93-20.06,19.9-11-.03-19.86-9.01-19.83-20.11.03-10.97,9-19.81,20.08-19.77,10.95.04,19.83,9,19.81,19.98Zm-3.69-.07c-.03-8.99-7.32-16.26-16.3-16.24-8.97.02-16.26,7.35-16.23,16.31.03,8.94,7.34,16.22,16.26,16.21,8.99-.02,16.3-7.33,16.26-16.28Z"/>
    <path d="m75.01,94.39h-.06c-11.51-.03-20.86-9.5-20.83-21.11.01-5.57,2.21-10.8,6.19-14.72,3.96-3.9,9.22-6.05,14.81-6.05h.07c11.5.04,20.83,9.45,20.81,20.98,0,5.6-2.21,10.85-6.19,14.8-3.97,3.93-9.23,6.1-14.82,6.1Zm.12-39.88c-5.07,0-9.83,1.94-13.41,5.47-3.6,3.54-5.59,8.27-5.6,13.3-.03,10.51,8.42,19.08,18.83,19.11h.05c5.06,0,9.82-1.96,13.41-5.52,3.6-3.57,5.59-8.32,5.6-13.38h0c.02-10.43-8.42-18.94-18.82-18.98h-.07Zm-.1,36.19c-9.48,0-17.21-7.71-17.24-17.2-.02-4.6,1.77-8.94,5.03-12.21,3.26-3.28,7.59-5.09,12.2-5.1h.04c9.49,0,17.23,7.73,17.26,17.24h0c.02,4.58-1.76,8.9-5.01,12.17-3.27,3.29-7.62,5.1-12.25,5.11h-.03Zm.03-32.52h-.03c-4.07,0-7.9,1.61-10.79,4.51-2.88,2.9-4.46,6.73-4.45,10.8.03,8.39,6.86,15.21,15.24,15.21h.03c4.09,0,7.94-1.61,10.83-4.52,2.87-2.89,4.45-6.71,4.43-10.75h0c-.03-8.41-6.87-15.25-15.26-15.25Z"/>
  </g>
  <g>
    <path d="m74.14,74.09c0-.31,0-.54,0-.77,0-2.86,0-5.73,0-8.59,0-1.21,1.02-1.97,2.06-1.54.68.28.96.83.96,1.55,0,2.21,0,4.42,0,6.64,0,1.36,0,2.73,0,4.09-.01,1.09-.61,1.68-1.7,1.68-2.33,0-4.66,0-7,0-1.01,0-1.67-.62-1.67-1.52,0-.9.65-1.52,1.67-1.53,1.66-.01,3.32,0,4.98,0,.21,0,.42,0,.7,0Z"/>
    <path d="m71.96,78.15c-1.17,0-2.33,0-3.5,0-1.55,0-2.67-1.06-2.67-2.52,0-1.48,1.09-2.52,2.66-2.53,1.14-.01,2.28,0,3.42,0h1.27s0-2.52,0-2.52c0-1.95,0-3.9,0-5.85,0-.94.43-1.78,1.15-2.26.67-.45,1.51-.53,2.29-.21,1.02.42,1.58,1.3,1.58,2.48,0,1.52,0,3.04,0,4.56v3.22c0,.98,0,1.97,0,2.95-.02,1.64-1.05,2.66-2.7,2.67-1.17,0-2.34,0-3.5,0Zm-1.44-3.07c-.68,0-1.37,0-2.05,0-.68,0-.68.4-.68.53s0,.52.68.52c2.33,0,4.66,0,6.99,0,.55,0,.7-.15.7-.69,0-.98,0-1.95,0-2.93v-3.23c0-1.52,0-3.04,0-4.57,0-.45-.15-.55-.34-.63-.16-.07-.3-.06-.42.02-.16.11-.26.33-.26.6,0,1.95,0,3.89,0,5.84v4.52s-3.27,0-3.27,0c-.45,0-.9,0-1.35,0Z"/>
  </g>
</svg>