<?xml version="1.0" encoding="utf-8"?>
<!-- Generator: Adobe Illustrator 24.1.3, SVG Export Plug-In . SVG Version: 6.00 Build 0)  -->
<svg version="1.1" id="Layer_1" xmlns="http://www.w3.org/2000/svg" xmlns:xlink="http://www.w3.org/1999/xlink" x="0px" y="0px"
	 viewBox="0 0 100 100" style="enable-background:new 0 0 100 100;" xml:space="preserve">
<style type="text/css">
	.st0{fill:#FFFFFF;}
	.st1{fill: var(--logo-color) !important;}
</style>
<g id="Group_28" transform="translate(-217 -53)">
	<path id="Fill_526" class="st0" d="M264.26,54.97c-3.02-2.51-7.51-2.11-10.02,0.91l-35.59,42.71c-2.17,2.6-2.2,6.38-0.08,9.02
		l34.36,42.71c2.45,3.08,6.93,3.58,10,1.14s3.58-6.93,1.14-10c-0.02-0.02-0.03-0.04-0.05-0.06l-30.71-38.17l31.86-38.23
		C267.69,61.98,267.28,57.49,264.26,54.97"/>
	<path id="Fill_528" class="st1" d="M283.14,103.23L315,65c2.52-3.02,2.11-7.51-0.91-10.03c-3.02-2.52-7.51-2.11-10.03,0.91
		L268.47,98.6c-2.17,2.6-2.2,6.38-0.08,9.02l34.36,42.71c2.46,3.06,6.95,3.55,10.01,1.09s3.55-6.95,1.09-10.01L283.14,103.23z"/>
</g>
</svg>
