<?xml version="1.0" encoding="utf-8"?>
<!-- Generator: Adobe Illustrator 24.1.3, SVG Export Plug-In . SVG Version: 6.00 Build 0)  -->
<svg version="1.1" id="Layer_1" xmlns="http://www.w3.org/2000/svg" xmlns:xlink="http://www.w3.org/1999/xlink" x="0px" y="0px"
	 viewBox="0 0 100 100" style="enable-background:new 0 0 100 100;" xml:space="preserve">
<style type="text/css">
	.st0{fill:#FF6700;}
	.st1{fill:#FFFFFF;}
</style>
<g id="Group_1852" transform="translate(-217 -53)">
	<path id="Fill_526" class="st0" d="M265.57,85.8c-0.97-0.81-2.42-0.68-3.24,0.29l-11.49,13.79c-0.7,0.84-0.71,2.06-0.03,2.91
		l11.1,13.79c0.79,0.99,2.24,1.16,3.23,0.37c0.99-0.79,1.16-2.24,0.37-3.23c-0.01-0.01-0.01-0.01-0.02-0.02l-9.92-12.32l10.29-12.34
		C266.67,88.06,266.54,86.61,265.57,85.8"/>
	<path id="Fill_528" class="st1" d="M271.67,101.38l10.29-12.34c0.81-0.98,0.68-2.42-0.3-3.24c-0.98-0.81-2.42-0.68-3.24,0.3
		l-11.49,13.79c-0.7,0.84-0.71,2.06-0.03,2.91l11.1,13.79c0.8,0.99,2.24,1.15,3.23,0.35s1.15-2.24,0.35-3.23L271.67,101.38z"/>
</g>
</svg>
