<?xml version="1.0" encoding="utf-8"?>
<!-- Generator: Adobe Illustrator 24.1.3, SVG Export Plug-In . SVG Version: 6.00 Build 0)  -->
<svg version="1.1" id="Layer_1" xmlns="http://www.w3.org/2000/svg" xmlns:xlink="http://www.w3.org/1999/xlink" x="0px" y="0px"
	 viewBox="0 0 100 100" style="enable-background:new 0 0 100 100;" xml:space="preserve">
<style type="text/css">
	.st0{fill:#FFFFFF;}
</style>
<g id="Contacts" transform="translate(-0.469 -0.564)">
	<path id="Shape" class="st0" d="M50.47,100.56c-7.9,0-15.79-0.57-23.62-1.69c-7.77-1.1-13.77-7.41-14.46-15.23l-0.68-7.42
		c-1.55-17.09-1.55-34.28,0-51.37l0.68-7.42c0.71-7.8,6.7-14.09,14.46-15.19C42.51,0,58.42,0,74.08,2.25
		c7.78,1.1,13.77,7.41,14.46,15.23l0.67,7.42c1.55,17.09,1.55,34.28,0,51.37l-0.67,7.42c-0.69,7.82-6.68,14.14-14.46,15.23
		C66.26,100.03,58.37,100.58,50.47,100.56z M45.17,53.21c-8.78,0-15.9,7.12-15.9,15.9c0,2.93,2.37,5.3,5.3,5.3h31.79
		c2.93,0,5.3-2.37,5.3-5.3c0-8.78-7.12-15.9-15.9-15.9H45.17z M50.47,24.07c-5.85,0-10.6,4.74-10.6,10.6s4.74,10.6,10.6,10.6
		s10.6-4.74,10.6-10.6l0,0C61.07,28.81,56.32,24.07,50.47,24.07z"/>
</g>
</svg>
