<?xml version="1.0" encoding="utf-8"?>
<!-- Generator: Adobe Illustrator 24.1.3, SVG Export Plug-In . SVG Version: 6.00 Build 0)  -->
<svg version="1.1" id="Layer_1" xmlns="http://www.w3.org/2000/svg" xmlns:xlink="http://www.w3.org/1999/xlink" x="0px" y="0px"
	 viewBox="0 0 100 100" style="enable-background:new 0 0 100 100;" xml:space="preserve">
<style type="text/css">
	.st0{fill:#FFFFFF;}
</style>
<g id="Chart-pie" transform="translate(-0.5 -0.547)">
	<path id="Path" class="st0" d="M46.52,1.95c0-0.58-0.46-1.05-1.04-1.05c-0.03,0-0.06,0-0.09,0C18.15,3.69-1.68,28.04,1.1,55.28
		s27.13,47.07,54.38,44.29c11.41-1.17,22.07-6.26,30.15-14.4c0.4-0.42,0.38-1.08-0.04-1.48c-0.02-0.02-0.04-0.03-0.05-0.05
		L47.95,53.28c-0.92-0.74-1.46-1.86-1.46-3.04L46.52,1.95z"/>
	<path id="Path-2" class="st0" d="M90.47,77.57c0.45,0.36,1.11,0.28,1.47-0.18c0.01-0.02,0.03-0.03,0.04-0.05
		c4.33-6.62,7.01-14.18,7.8-22.05c0.04-0.57-0.39-1.08-0.96-1.12c-0.02,0-0.04,0-0.07,0H64.45c-0.58,0-1.04,0.47-1.04,1.04
		c0,0.32,0.14,0.62,0.39,0.81L90.47,77.57z"/>
	<path id="Path-3" class="st0" d="M98.72,46.32c0.58,0,1.05-0.46,1.05-1.04c0-0.03,0-0.06,0-0.09C97.37,21.8,78.87,3.3,55.48,0.91
		c-0.57-0.05-1.08,0.38-1.12,0.96c0,0.03,0,0.06,0,0.09v42.8c0,0.86,0.7,1.57,1.57,1.57c0,0,0,0,0,0H98.72z"/>
</g>
</svg>
