<?xml version="1.0" encoding="utf-8"?>
<!-- Generator: Adobe Illustrator 24.1.3, SVG Export Plug-In . SVG Version: 6.00 Build 0)  -->
<svg version="1.1" id="Layer_1" xmlns="http://www.w3.org/2000/svg" xmlns:xlink="http://www.w3.org/1999/xlink" x="0px" y="0px"
	 viewBox="0 0 100 100" style="enable-background:new 0 0 100 100;" xml:space="preserve">
<style type="text/css">
	.st0{fill:#FFFFFF;}
</style>
<g id="Folder-open">
	<path id="Shape" class="st0" d="M45.64,86.14c-7.97,0-16.03-0.3-23.97-0.88l-6.98-0.52c-6.11-0.51-11.1-5.11-12.1-11.16
		C0.57,62.15,0.22,50.48,1.57,38.94L2.81,28.2c0.73-6.88,6.5-12.11,13.41-12.19h10.57c5.3,0.07,9.92,3.66,11.28,8.78h37.39
		c6.67,0.05,12.3,4.98,13.22,11.59l0.29,1.9c0.14,0.92,0.26,1.76,0.37,2.57h0.22c3.22-0.01,6.22,1.61,7.97,4.31
		c1.82,2.71,2.21,6.14,1.03,9.19l-5.76,15.21c-1.42,3.76-3.64,7.17-6.49,10c-2.14,2.98-5.49,4.86-9.15,5.14l-7.55,0.55
		C61.68,85.84,53.61,86.14,45.64,86.14z M16.22,23.11c-3.38,0.04-6.19,2.6-6.54,5.96L8.44,39.81C7.17,50.64,7.5,61.6,9.41,72.34
		c0.48,2.89,2.86,5.09,5.79,5.33l0.41,0.03l10.74-28.51c1.83-4.95,6.52-8.26,11.79-8.33h44.24c-0.07-0.47-0.14-0.93-0.21-1.45
		l-0.29-1.9c-0.45-3.2-3.17-5.59-6.4-5.62H35.32c-2.08-0.04-3.74-1.75-3.72-3.83c0.03-2.69-2.12-4.91-4.81-4.95H16.22z"/>
</g>
</svg>
