<?xml version="1.0" encoding="utf-8"?>
<!-- Generator: Adobe Illustrator 24.1.3, SVG Export Plug-In . SVG Version: 6.00 Build 0)  -->
<svg version="1.1" id="Layer_1" xmlns="http://www.w3.org/2000/svg" xmlns:xlink="http://www.w3.org/1999/xlink" x="0px" y="0px"
	 viewBox="0 0 100 100" style="enable-background:new 0 0 100 100;" xml:space="preserve">
<g id="Filter" transform="translate(0 0)">
	<path id="Path" d="M83.62,2.32c-22.33-2.71-44.9-2.71-67.22,0c-4.24,0.81-7.02,4.9-6.21,9.14c0.23,1.2,0.74,2.34,1.49,3.31
		l19.44,26.02c5.62,7.63,8.62,16.87,8.58,26.35v17.55c-0.01,1.3,0.57,2.54,1.58,3.36l14.3,11.35c1.31,0.99,3.18,0.73,4.17-0.58
		c0.44-0.58,0.65-1.3,0.59-2.03V67.14c-0.05-9.48,2.96-18.71,8.57-26.35l19.4-26.02c2.64-3.41,2.01-8.32-1.41-10.96
		C85.95,3.06,84.82,2.55,83.62,2.32z"/>
</g>
</svg>
