<?xml version="1.0" encoding="utf-8"?>
<!-- Generator: Adobe Illustrator 24.1.3, SVG Export Plug-In . SVG Version: 6.00 Build 0)  -->
<svg version="1.1" id="Layer_1" xmlns="http://www.w3.org/2000/svg" xmlns:xlink="http://www.w3.org/1999/xlink" x="0px" y="0px"
	 viewBox="0 0 100 100" style="enable-background:new 0 0 100 100;" xml:space="preserve">
<style type="text/css">
	.st0{fill:#FFFFFF;}
</style>
<path id="Icon_ionic-logo-usd" class="st0" d="M84.65,60.55c-0.71-2.17-1.79-4.21-3.19-6.02c-1.5-1.94-3.3-3.62-5.33-4.99
	c-2.3-1.53-4.83-2.69-7.49-3.44c-1.15-0.3-3.17-0.78-5.83-1.43c-1.9-0.46-3.68-0.94-5.69-1.42v-23.6c1.75,0.5,3.4,1.29,4.89,2.33
	c3.39,2.32,5.52,6.07,5.77,10.16h15.44c-0.05-3.59-0.97-7.11-2.68-10.27c-1.79-3.26-4.29-6.07-7.31-8.25c-3.27-2.3-6.93-4-10.8-5.01
	c-1.75-0.51-3.53-0.9-5.33-1.16V0H42.84v7.4c-1.56,0.23-3.38,0.54-5.01,0.95c-3.64,0.88-7.11,2.37-10.25,4.41
	c-2.96,1.92-5.45,4.49-7.28,7.51c-1.89,3.25-2.84,6.96-2.73,10.71c0,2.13,0.32,4.26,0.93,6.3c0.65,2.13,1.72,4.12,3.14,5.84
	c1.67,2,3.69,3.69,5.96,4.99c2.89,1.66,6.02,2.88,9.28,3.61c2.07,0.51,4.2,1.02,5.99,1.47v26.69c-2.44-0.61-4.75-1.63-6.85-3.01
	c-2-1.35-3.63-3.18-4.73-5.33c-1.09-2.27-1.66-4.75-1.68-7.26H14.27c0.06,4.3,1.1,8.53,3.05,12.36c1.88,3.59,4.58,6.69,7.88,9.06
	c3.44,2.46,7.32,4.24,11.43,5.24c2.06,0.5,4.14,0.89,6.24,1.17V100h14.28v-7.71c2.14-0.23,4.27-0.6,6.37-1.09
	c3.97-0.87,7.77-2.4,11.23-4.53c3.23-2.01,5.95-4.73,7.95-7.96c2.09-3.55,3.14-7.62,3.02-11.74C85.7,64.78,85.35,62.62,84.65,60.55z
	 M42.83,39.66c-2.59-0.71-5.02-1.92-7.15-3.56c-1.94-1.72-2.98-4.23-2.83-6.82c-0.06-1.84,0.49-3.66,1.57-5.16
	c0.98-1.37,2.27-2.49,3.77-3.27c1.48-0.72,3.04-1.26,4.65-1.6L42.83,39.66z M69.41,73.09c-0.72,1.56-1.81,2.92-3.19,3.95
	c-1.78,1.28-3.78,2.23-5.89,2.81c-1.03,0.34-2.1,0.58-3.18,0.72V56.66c2.23,0.58,4.07,1.19,5.87,1.81c1.89,0.66,3.61,1.73,5.03,3.15
	c1.67,1.9,2.5,4.4,2.3,6.93C70.37,70.12,70.04,71.66,69.41,73.09z"/>
</svg>
