<?xml version="1.0" encoding="utf-8"?>
<!-- Generator: Adobe Illustrator 24.1.3, SVG Export Plug-In . SVG Version: 6.00 Build 0)  -->
<svg version="1.1" id="Layer_1" xmlns="http://www.w3.org/2000/svg" xmlns:xlink="http://www.w3.org/1999/xlink" x="0px" y="0px"
	 viewBox="0 0 100 100" style="enable-background:new 0 0 100 100;" xml:space="preserve">
<style type="text/css">
	.st0{fill:#FFFFFF;}
</style>
<g id="Fire">
	<path id="Path" class="st0" d="M50.31,0.31c-1.36-0.61-2.95-0.3-3.98,0.78c-0.99,1.03-1.39,2.48-1.08,3.87
		c0.53,2.36,0.79,4.77,0.79,7.19c0.21,4.61-1.16,9.14-3.87,12.87c-3.01,3.6-6.61,6.68-10.63,9.11c-0.07,0.05-0.14,0.1-0.2,0.16
		l-0.55,0.55C14.37,45.45,9.65,67.37,20.26,83.79s32.51,21.15,48.94,10.55c15.21-9.82,20.56-29.53,12.41-45.69
		c-0.33-0.65-1.12-0.9-1.76-0.58c-0.15,0.08-0.29,0.18-0.4,0.31l-1.09,1.27c-3.81,5.61-9.44,9.74-15.95,11.67
		c-0.22,0.07-0.47,0.05-0.67-0.07c-0.22-0.16-0.39-0.39-0.47-0.65c-0.28-0.74-0.13-1.57,0.39-2.17c4.64-5.29,7.44-11.94,7.99-18.96
		C71.59,23.51,64.33,6.45,50.31,0.31z"/>
</g>
</svg>
