<?xml version="1.0" encoding="utf-8"?>
<!-- Generator: Adobe Illustrator 24.1.3, SVG Export Plug-In . SVG Version: 6.00 Build 0)  -->
<svg version="1.1" id="Layer_1" xmlns="http://www.w3.org/2000/svg" xmlns:xlink="http://www.w3.org/1999/xlink" x="0px" y="0px"
	 viewBox="0 0 100 100" style="enable-background:new 0 0 100 100;" xml:space="preserve">
<style type="text/css">
	.st0{fill:#FFFFFF;}
</style>
<g id="Comment">
	<path id="Path" class="st0" d="M52.19,4.26C26.97,3.94,6.26,24.13,5.94,49.35c-0.08,6.06,1.05,12.08,3.33,17.7l5.31,12.82
		c0.48,1.15,0.13,2.49-0.86,3.25L2.51,91.98c-0.94,0.73-1.3,1.99-0.91,3.11c0.41,1.14,1.5,1.89,2.71,1.87h44.5
		c27.24,0.23,49.51-21.67,49.74-48.91c0,0,0-0.01,0-0.01C98.35,23.66,78.4,4.05,54.01,4.26c0,0-0.01,0-0.01,0H52.19z"/>
</g>
</svg>
