<?xml version="1.0" encoding="utf-8"?>
<!-- Generator: Adobe Illustrator 24.1.3, SVG Export Plug-In . SVG Version: 6.00 Build 0)  -->
<svg version="1.1" id="Layer_1" xmlns="http://www.w3.org/2000/svg" xmlns:xlink="http://www.w3.org/1999/xlink" x="0px" y="0px"
	 viewBox="0 0 100 100" style="enable-background:new 0 0 100 100;" xml:space="preserve">
<style type="text/css">
	.st0{fill:#FFFFFF;}
</style>
<path id="Icon_open-bell" class="st0" d="M49.6,0.92C36.01,0.96,25,11.97,24.96,25.56C24.65,38.4,18.59,50.42,8.46,58.3
	C3.4,62.31,0.42,68.38,0.32,74.83h98.55c-0.03-6.46-3.03-12.56-8.13-16.53c-10.14-7.88-16.2-19.9-16.51-32.74
	C74.24,11.96,63.21,0.92,49.6,0.92C49.61,0.92,49.6,0.92,49.6,0.92z M37.28,87.15c0,6.8,5.52,12.32,12.32,12.32
	c6.8,0,12.32-5.52,12.32-12.32H37.28z"/>
</svg>
