<?xml version="1.0" encoding="utf-8"?>
<!-- Generator: Adobe Illustrator 24.1.3, SVG Export Plug-In . SVG Version: 6.00 Build 0)  -->
<svg version="1.1" id="Layer_1" xmlns="http://www.w3.org/2000/svg" xmlns:xlink="http://www.w3.org/1999/xlink" x="0px" y="0px"
	 viewBox="0 0 100 100" style="enable-background:new 0 0 100 100;" xml:space="preserve">
<style type="text/css">
	.st0{fill:#FF6700;}
	.st1{fill:#FFFFFF;}
</style>
<g id="Group_1852" transform="translate(-217 -53)">
	<path id="Fill_526" class="st0" d="M267.22,85.8c-0.97,0.81-1.11,2.26-0.29,3.24l10.29,12.34l-9.92,12.32
		c-0.01,0.01-0.01,0.01-0.02,0.02c-0.79,0.99-0.63,2.44,0.37,3.23c0.99,0.79,2.44,0.63,3.23-0.37l11.1-13.79
		c0.69-0.85,0.68-2.07-0.03-2.91l-11.49-13.79C269.65,85.12,268.2,84.99,267.22,85.8"/>
	<path id="Fill_528" class="st1" d="M251.21,113.7c-0.8,0.99-0.64,2.44,0.35,3.23s2.44,0.64,3.23-0.35l11.1-13.79
		c0.69-0.85,0.68-2.07-0.03-2.91l-11.49-13.79c-0.81-0.98-2.26-1.11-3.24-0.3c-0.98,0.81-1.11,2.26-0.3,3.24l10.29,12.34
		L251.21,113.7z"/>
</g>
</svg>
