<?xml version="1.0" encoding="utf-8"?>
<!-- Generator: Adobe Illustrator 24.1.3, SVG Export Plug-In . SVG Version: 6.00 Build 0)  -->
<svg version="1.1" id="Layer_1" xmlns="http://www.w3.org/2000/svg" xmlns:xlink="http://www.w3.org/1999/xlink" x="0px" y="0px"
	 viewBox="0 0 100 100" style="enable-background:new 0 0 100 100;" xml:space="preserve">
<style type="text/css">
	.st0{fill:#FFFFFF;}
</style>
<g id="Group_948" transform="translate(303.658 -641.105)">
	<path id="Path_36" class="st0" d="M-283.12,686.06v-7.6c0-6.62,0-13.24,0-19.87c0-1.47,1-2.75,2.43-3.09
		c3.3-0.79,6.6-1.55,9.9-2.32l12.65-2.96l23.25-5.42c2.25-0.52,4.5-1.06,6.75-1.55c1.74-0.37,3.45,0.74,3.82,2.48
		c0.04,0.19,0.06,0.39,0.07,0.59c0.03,1.94,0,3.88,0,5.82c0,4.39,0.01,8.78,0.04,13.17c0.03,0.21,0.12,0.41,0.28,0.56
		c4.76,4.77,9.52,9.54,14.29,14.31c1.57,1.58,3.15,3.16,4.73,4.73c0.58,0.55,0.9,1.32,0.89,2.11c0,12.85,0,25.7,0,38.56
		c0,3.31,0,6.62,0,9.94c0.14,1.51-0.98,2.84-2.48,2.98c-0.16,0.01-0.32,0.02-0.49,0h-93.37c-1.51,0.11-2.81-1.03-2.92-2.53
		c-0.01-0.13-0.01-0.26,0-0.4c0-15.53,0-31.06,0-46.58c-0.1-1.49,1.03-2.78,2.52-2.88c0.11-0.01,0.22-0.01,0.34,0
		c2.52,0,5.04,0.03,7.56,0.03c3.19,0,6.38,0,9.57-0.03C-283.24,686.09-283.18,686.07-283.12,686.06z M-209.55,722.73v-0.38
		c0-2.49,0-4.98,0-7.46c0-8.7,0-17.4,0-26.1c0.02-0.44-0.16-0.87-0.48-1.17c-4.18-4.16-8.36-8.33-12.52-12.51
		c-0.52-0.52-1.03-1.09-1.68-1.73v49.36L-209.55,722.73z M-297.79,732.94h14.64v-41.28h-14.64V732.94z M-249.09,723.03v-11.86h-9.36
		v11.86H-249.09z M-264.97,701.37v-11.8h-9.37v11.83L-264.97,701.37z M-249.08,667.89h-9.35v11.86h9.35V667.89z M-264.99,679.75
		v-11.86h-9.33v11.86H-264.99z M-242.53,667.89v11.86h9.32v-11.86H-242.53z M-249.08,701.38v-11.86h-9.34v11.86H-249.08z
		 M-242.53,689.52v11.86h9.31v-11.86H-242.53z M-265.01,722.99v-11.86h-9.33v11.86H-265.01z M-233.21,722.99v-11.86h-9.32v11.86
		H-233.21z"/>
	<path id="Path_37" class="st0" d="M-213.84,709.75v6.57h-6.12v-6.57H-213.84z"/>
	<path id="Path_38" class="st0" d="M-213.88,701.03h-6.11v-6.54h6.11V701.03z"/>
	<path id="Path_39" class="st0" d="M-293.52,707.14v-7.8h6.12v7.8H-293.52z"/>
	<path id="Path_40" class="st0" d="M-287.4,725.25h-6.14v-7.8h6.14V725.25z"/>
</g>
</svg>
