<?xml version="1.0" encoding="utf-8"?>
<!-- Generator: Adobe Illustrator 24.1.3, SVG Export Plug-In . SVG Version: 6.00 Build 0)  -->
<svg version="1.1" id="Layer_1" xmlns="http://www.w3.org/2000/svg" xmlns:xlink="http://www.w3.org/1999/xlink" x="0px" y="0px"
	 viewBox="0 0 100 100" style="enable-background:new 0 0 100 100;" xml:space="preserve">
<style type="text/css">
	.st0{fill:#FFFFFF;}
</style>
<g id="Group_947" transform="translate(-292.162 -495.051)">
	<path id="Path_30" class="st0" d="M328.15,581.98c2.33-0.4,4.59-0.67,6.8-1.17c14.48-3.48,25.38-15.43,27.54-30.16
		c0.19-1.47,0.32-2.95,0.4-4.43c0.09-1.99-0.47-2.54-2.43-2.54h-32.29v-44.39c0-1.99,0.5-2.51,2.48-2.51h40.95v1.19
		c0,4.09,0,8.18,0,12.27c-0.22,2.89,1.94,5.41,4.83,5.63c0.26,0.02,0.53,0.02,0.79,0c4.45,0,8.89,0,13.48,0v75.69
		c0,1.99-0.51,2.5-2.5,2.5h-57.55c-1.99,0-2.5-0.51-2.5-2.5V581.98z M350.62,540.2h16.82c1.89,0,2.49-0.56,2.39-2.48
		c-0.1-1.95-0.3-3.89-0.6-5.81c-3.11-17.05-17.8-29.55-35.12-29.91c-1.92-0.03-2.46,0.51-2.46,2.41v33.42
		c0,1.84,0.54,2.39,2.39,2.39L350.62,540.2z M355.95,574.91c-0.02,8.63,6.96,15.65,15.6,15.67c8.63,0.02,15.65-6.96,15.67-15.6
		c0.02-8.57-6.87-15.56-15.44-15.67c-8.65-0.1-15.74,6.83-15.84,15.47c0,0.04,0,0.07,0,0.11L355.95,574.91z M387.17,522.91h-13.74
		v3.34h13.76L387.17,522.91z M373.38,533.3v3.36h13.76v-3.36H373.38z M387.17,543.75h-13.74v3.34h13.76L387.17,543.75z"/>
	<path id="Path_31" class="st0" d="M301.97,567.34c-12.19-13.38-11.23-34.1,2.15-46.29c5.65-5.15,12.92-8.16,20.56-8.51v1.06
		c0,10.05-0.01,20.11-0.02,30.16c0,0.52-0.18,1.02-0.51,1.42c-7.24,7.29-14.5,14.56-21.78,21.81
		C302.24,567.12,302.1,567.23,301.97,567.34z"/>
	<path id="Path_32" class="st0" d="M304.47,569.86c0.17-0.18,0.33-0.37,0.5-0.54c7.19-7.19,14.38-14.36,21.58-21.54
		c0.38-0.36,0.87-0.57,1.38-0.6c10.16-0.03,20.33-0.04,30.49-0.02c0.28,0,0.56,0.03,0.85,0.05c-0.86,18.08-16.22,32.03-34.3,31.17
		C317.36,578.01,310.11,575,304.47,569.86L304.47,569.86z"/>
	<path id="Path_33" class="st0" d="M375.06,499.56l12.79,12.78c-0.22,0.03-0.43,0.05-0.65,0.06c-3.29,0-6.59,0-9.88,0
		c-1.65,0-2.25-0.59-2.25-2.19c0-3.33,0-6.66,0-9.99L375.06,499.56z"/>
	<path id="Path_34" class="st0" d="M335.15,536.67v-31.1c16.79,0.88,30.21,14.31,31.07,31.1H335.15z"/>
	<path id="Path_35" class="st0" d="M383.74,574.86c0.05,6.71-5.36,12.2-12.07,12.24c-6.71,0.05-12.2-5.36-12.24-12.07
		c-0.05-6.68,5.31-12.15,11.99-12.24c6.73-0.08,12.25,5.32,12.32,12.05C383.74,574.84,383.74,574.85,383.74,574.86z M361.66,576.22
		l4.82,4.77c1.26,1.24,2.02,1.24,3.3-0.04c3.1-3.09,6.19-6.18,9.28-9.28c0.22-0.22,0.42-0.47,0.63-0.7l-2.43-2.47l-9.28,9.34
		l-3.83-3.94L361.66,576.22z"/>
</g>
</svg>
