<?xml version="1.0" encoding="utf-8"?>
<!-- Generator: Adobe Illustrator 24.1.3, SVG Export Plug-In . SVG Version: 6.00 Build 0)  -->
<svg version="1.1" id="Layer_1" xmlns="http://www.w3.org/2000/svg" xmlns:xlink="http://www.w3.org/1999/xlink" x="0px" y="0px"
	 viewBox="0 0 100 100" style="enable-background:new 0 0 100 100;" xml:space="preserve">
<style type="text/css">
	.st0{fill:#FFFFFF;}
</style>
<g id="Settings-alt" transform="translate(-0.61 -0.61)">
	<path id="Path" class="st0" d="M35.19,50.87c0-8.52,6.91-15.42,15.42-15.42s15.42,6.91,15.42,15.42s-6.91,15.42-15.42,15.42
		S35.19,59.39,35.19,50.87z"/>
	<path id="Shape" class="st0" d="M50.61,100.17c-0.97,0-1.89-0.39-2.56-1.09L35.84,86.46H18.58c-1.97,0-3.56-1.59-3.56-3.56V65.63
		L2.39,53.43c-1.41-1.36-1.45-3.61-0.09-5.03c0.03-0.03,0.06-0.06,0.09-0.09L15.02,36.1V18.84c0-1.97,1.59-3.56,3.56-3.56h17.26
		L48.05,2.65c1.36-1.41,3.61-1.45,5.03-0.09c0.03,0.03,0.06,0.06,0.09,0.09l12.2,12.63h17.27c1.97,0,3.56,1.6,3.56,3.56V36.1
		l12.63,12.21c1.41,1.36,1.45,3.61,0.09,5.03c-0.03,0.03-0.06,0.06-0.09,0.09L86.2,65.63V82.9c0,1.96-1.59,3.56-3.56,3.56H65.37
		l-12.2,12.64C52.5,99.79,51.58,100.18,50.61,100.17z M50.61,28.33c-12.45,0-22.54,10.09-22.54,22.54s10.09,22.54,22.54,22.54
		s22.54-10.09,22.54-22.54C73.14,38.43,63.06,28.34,50.61,28.33L50.61,28.33z"/>
</g>
</svg>
