<?xml version="1.0" encoding="utf-8"?>
<!-- Generator: Adobe Illustrator 24.1.3, SVG Export Plug-In . SVG Version: 6.00 Build 0)  -->
<svg version="1.1" id="Layer_1" xmlns="http://www.w3.org/2000/svg" xmlns:xlink="http://www.w3.org/1999/xlink" x="0px" y="0px"
	 viewBox="0 0 100 100" style="enable-background:new 0 0 100 100;" xml:space="preserve">
<style type="text/css">
	.st0{fill:#FFFFFF;}
</style>
<g id="Group_946" transform="translate(-293.687 -450.757)">
	<path id="Path_27" class="st0" d="M339.36,550.75c-1.85-0.13-3.69-0.25-5.54-0.4c-7.06-0.35-14-1.88-20.56-4.52
		c-3.15-1.26-5.98-3.21-8.29-5.7c-1.26-1.21-1.78-3-1.37-4.7c0.83-4.41,2.19-8.7,4.07-12.77c1.01-2.24,2.7-4.1,4.82-5.33
		c5.78-3.18,11.54-6.4,17.28-9.63c0.67-0.45,1.56-0.4,2.18,0.13c2.19,1.69,4.71,2.92,7.39,3.59c0.77,0.18,1.39,0.76,1.61,1.52
		c0.84,2.27,1.72,4.53,2.66,6.99c0.2-0.45,0.33-0.67,0.45-0.9c0.76-2,1.55-4,2.28-6.01c0.22-0.8,0.87-1.41,1.67-1.59
		c2.66-0.66,5.15-1.87,7.31-3.55c0.6-0.53,1.48-0.61,2.17-0.19c5.62,3.14,11.22,6.28,16.88,9.35c2.7,1.54,4.81,3.96,5.97,6.85
		c1.7,4.04,2.9,8.28,3.55,12.62c0.12,0.98-0.18,1.95-0.83,2.69c-1.76,2.31-4.03,4.18-6.64,5.47c-5.44,2.75-11.33,4.46-17.4,5.06
		c-3.48,0.45-6.99,0.6-10.49,0.9c-0.19,0.03-0.38,0.06-0.57,0.11L339.36,550.75z M353.65,529.02h13.81v-2.82h-13.81V529.02z"/>
	<path id="Path_28" class="st0" d="M362.31,494.53c-1.62,0.23-3.27,0.56-4.94,0.7c-2.07,0.17-4.16,0.21-6.24,0.24
		c-0.43-0.07-0.84-0.2-1.23-0.4c-0.03,0-0.05-0.04-0.08-0.06c-3.35-1.56-7.22-1.56-10.57,0c-1.84,1.34-2.69,3.66-2.13,5.87
		c0.53,2.26,2.45,3.93,4.77,4.13c1.75,0.09,3.51,0.09,5.27,0c0.56,0,1.1-0.15,1.58-0.45c1.01-0.59,2.19-0.83,3.35-0.69h4.56
		c-1.06,0.8-2.02,1.6-3.05,2.29c-2.65,1.92-5.74,3.14-8.98,3.55c-3.31,0.13-6.57-0.77-9.35-2.58c-4.52-2.52-8.17-6.36-10.46-11
		c-0.27-0.47-0.3-1.04-0.08-1.54c0.33-0.84,0.52-1.73,0.55-2.64c0.05-4.59,0-9.18,0.03-13.76c0.02-1.34-0.38-2.66-1.17-3.75
		c-0.17-0.19-0.27-0.44-0.29-0.69c0.22-3.69,1.53-7.23,3.76-10.18c2.41-2.64,5.71-4.32,9.26-4.71c4.76-0.83,9.63-0.78,14.37,0.16
		c5.7,0.76,10.28,5.09,11.37,10.74c0.16,0.66,0.32,1.32,0.48,1.99c0.42,1.23,0.26,2.59-0.45,3.69c-0.46,0.82-0.68,1.75-0.64,2.69
		c-0.06,4.62-0.04,9.23,0,13.85C362.05,492.83,362.16,493.68,362.31,494.53z"/>
	<path id="Path_29" class="st0" d="M367.16,495.59c-1.64-0.73-2.64-2.41-2.48-4.2c0.06-4.3,0.03-8.59,0-12.88
		c-0.1-1.18,0.38-2.35,1.28-3.12c0.18-0.17,0.28-0.4,0.28-0.65c-0.27-3.6-1.22-7.13-2.8-10.38c-2.11-3.94-5.84-6.74-10.21-7.67
		c-6.19-1.55-12.66-1.57-18.86-0.06c-6.5,1.37-11.49,6.6-12.57,13.15c-0.22,0.98-0.42,1.97-0.57,2.96
		c-0.18,1.22-0.55,2.42,0.71,3.44c0.45,0.56,0.67,1.26,0.62,1.97c0.05,4.62,0.04,9.24,0,13.86c0.09,1.81-1.3,3.35-3.11,3.45
		c-0.08,0-0.16,0.01-0.24,0c-1.59,0.06-3.19,0.05-4.78,0c-1.83,0.05-3.35-1.39-3.41-3.22c0-0.1,0-0.19,0-0.29
		c-0.02-4.59-0.02-9.18,0-13.76c-0.1-1.84,1.31-3.41,3.15-3.51c0.05,0,0.1,0,0.15,0c0.32-0.03,0.65-0.03,0.97,0
		c0.69,0.08,0.94-0.15,1.03-0.9c0.31-3.56,1.19-7.04,2.6-10.33c2.56-5.79,7.73-10,13.92-11.34c7.28-1.88,14.93-1.81,22.19,0.18
		c7.7,1.95,13.53,8.24,14.9,16.06c0.45,1.83,0.7,3.7,0.97,5.56c0.09,0.57,0.25,0.81,0.84,0.77c0.52-0.03,1.04-0.01,1.55,0.07
		c1.63,0.16,2.88,1.54,2.88,3.18c0.04,4.75,0.04,9.5,0,14.25c0.02,1.8-1.42,3.26-3.22,3.28c-0.1,0-0.2,0-0.29-0.01
		c-0.83-0.04-1.63,0.32-2.15,0.97c-1.88,1.87-4.3,3.11-6.91,3.56c-4.52,0.98-9.14,1.39-13.76,1.23c-0.54,0.09-1.07,0.26-1.56,0.51
		c-0.57,0.27-1.17,0.47-1.8,0.6c-1.35,0.09-2.67,0.05-4,0c-1.56,0.01-2.84-1.26-2.84-2.82s1.26-2.84,2.82-2.84c0.01,0,0.01,0,0.02,0
		c1.33-0.08,2.67-0.07,4,0.04c0.8,0.21,1.55,0.55,2.24,0.99c0.3,0.15,0.57,0.48,0.86,0.49c4.62,0.23,9.25-0.18,13.76-1.21
		C364.65,496.63,365.9,496.06,367.16,495.59z"/>
</g>
</svg>
