<?xml version="1.0" encoding="utf-8"?>
<!-- Generator: Adobe Illustrator 24.1.3, SVG Export Plug-In . SVG Version: 6.00 Build 0)  -->
<svg version="1.1" id="Layer_1" xmlns="http://www.w3.org/2000/svg" xmlns:xlink="http://www.w3.org/1999/xlink" x="0px" y="0px"
	 viewBox="0 0 100 100" style="enable-background:new 0 0 100 100;" xml:space="preserve">
<style type="text/css">
	.st0{fill:#FFFFFF;}
</style>
<g id="Clipboard-alt" transform="translate(0)">
	<path id="Shape" class="st0" d="M65.03,27.54H34.95c-2.07,0-3.76-1.68-3.76-3.76c0,0,0,0,0,0V13.77C31.21,6.17,37.38,0,44.99,0
		h10.02c7.6,0.01,13.77,6.17,13.78,13.77v10.01C68.79,25.86,67.1,27.54,65.03,27.54z M44.99,7.51c-3.46,0-6.27,2.8-6.28,6.26v6.25
		h22.53v-6.25c-0.01-3.45-2.79-6.24-6.23-6.26H44.99z"/>
	<path id="Shape-2" class="st0" d="M49.99,100c-7.59,0-15.17-0.47-22.69-1.41c-8.5-1.07-14.88-8.28-14.9-16.85V29.22
		c0.02-6.74,3.89-12.88,9.96-15.81c0.12-0.06,0.26-0.09,0.4-0.09c0.52,0,0.94,0.42,0.94,0.94c0,0.01,0,0.02,0,0.03v9.49
		c0,6.22,5.04,11.27,11.27,11.27l0,0h30.07c6.22,0,11.27-5.04,11.27-11.27c0,0,0,0,0,0v-9.49c-0.02-0.52,0.39-0.95,0.91-0.97
		c0.01,0,0.02,0,0.03,0c0.14,0,0.28,0.03,0.41,0.09c6.07,2.93,9.93,9.07,9.94,15.81v52.52c-0.02,8.57-6.4,15.79-14.9,16.85
		C65.17,99.53,57.58,100,49.99,100z M34.97,63.85c-2.07,0-3.76,1.68-3.76,3.76s1.68,3.76,3.76,3.76h25.06
		c2.07,0,3.76-1.68,3.76-3.76s-1.68-3.76-3.76-3.76H34.97z M34.97,48.83c-2.07,0-3.76,1.68-3.76,3.76s1.68,3.76,3.76,3.76h30.07
		c2.07,0,3.76-1.68,3.76-3.75c0-2.07-1.68-3.76-3.75-3.76c0,0,0,0,0,0H34.97z"/>
</g>
</svg>
