<?xml version="1.0" encoding="utf-8"?>
<!-- Generator: Adobe Illustrator 24.1.3, SVG Export Plug-In . SVG Version: 6.00 Build 0)  -->
<svg version="1.1" id="Layer_1" xmlns="http://www.w3.org/2000/svg" xmlns:xlink="http://www.w3.org/1999/xlink" x="0px" y="0px"
	 viewBox="0 0 100 100" style="enable-background:new 0 0 100 100;" xml:space="preserve">
<style type="text/css">
	.st0{fill:#FFFFFF;}
</style>
<g id="Bank" transform="translate(-0.718 -0.557)">
	<path id="Path" class="st0" d="M53.38,0.96c-1.74-0.53-3.59-0.53-5.33,0L32.49,5.74C24.49,8.19,16.9,11.81,9.95,16.46
		c-2.47,1.65-3.13,4.99-1.48,7.46c1,1.49,2.68,2.39,4.47,2.39h75.55c2.97,0,5.38-2.4,5.38-5.37c0-1.8-0.9-3.47-2.39-4.47
		c-6.95-4.66-14.55-8.27-22.55-10.73L53.38,0.96z"/>
	<path id="Path-2" class="st0" d="M10.33,96.65c0-2.16,1.75-3.91,3.91-3.91h72.94c2.16,0,3.91,1.75,3.91,3.91s-1.75,3.91-3.91,3.91
		H14.24C12.08,100.56,10.33,98.81,10.33,96.65z"/>
	<path id="Path-3" class="st0" d="M20.75,75.81c0,2.16,1.75,3.91,3.91,3.91s3.91-1.75,3.91-3.91V44.55c0-2.16-1.75-3.91-3.91-3.91
		s-3.91,1.75-3.91,3.91V75.81z"/>
	<path id="Path-4" class="st0" d="M50.71,79.72c-2.16,0-3.91-1.75-3.91-3.91V44.55c0-2.16,1.75-3.91,3.91-3.91
		c2.16,0,3.91,1.75,3.91,3.91v31.26C54.62,77.97,52.87,79.72,50.71,79.72z"/>
	<path id="Path-5" class="st0" d="M72.85,75.81c0,2.16,1.75,3.91,3.91,3.91s3.91-1.75,3.91-3.91V44.55c0-2.16-1.75-3.91-3.91-3.91
		s-3.91,1.75-3.91,3.91V75.81z"/>
</g>
</svg>
