<?xml version="1.0" encoding="utf-8"?>
<!-- Generator: Adobe Illustrator 24.1.3, SVG Export Plug-In . SVG Version: 6.00 Build 0)  -->
<svg version="1.1" id="Layer_1" xmlns="http://www.w3.org/2000/svg" xmlns:xlink="http://www.w3.org/1999/xlink" x="0px" y="0px"
	 viewBox="0 0 100 100" style="enable-background:new 0 0 100 100;" xml:space="preserve">
<style type="text/css">
	.st0{fill:#A5A5A5;}
</style>
<g id="Group_952" transform="translate(-302.621 -100.47)">
	<path id="Path_13" class="st0" d="M346.25,200.43l-6.22-0.39c-7.45-0.32-14.84-1.37-22.08-3.13c-1.32-0.35-2.61-0.83-3.9-1.25
		c-0.92-0.32-1.59-1.12-1.76-2.07c-0.3-1.23-0.46-2.49-0.48-3.75c-0.04-5.93,0.63-11.84,1.98-17.61c0.91-3.93,2.53-7.67,4.76-11.04
		c1.71-2.14,4.04-3.72,6.67-4.51c3.45-1.33,6.87-2.74,10.3-4.17c0.4-0.14,0.77-0.35,1.09-0.62c0.62-0.68,1.68-0.72,2.36-0.09
		c0.05,0.05,0.1,0.1,0.14,0.15c0.43,0.27,0.68,0.76,0.66,1.27c-0.09,3.58-0.15,7.16-0.18,10.74c-0.01,0.55,0.09,1.09,0.27,1.61
		c3.62,9.71,7.25,19.43,10.89,29.16l0.21,0.55c0.25,0.93,1.21,1.49,2.14,1.24c0.61-0.16,1.08-0.64,1.24-1.24
		c0.86-2.28,1.72-4.56,2.57-6.85c2.83-7.58,5.66-15.15,8.49-22.73c0.2-0.53,0.3-1.1,0.3-1.67c0-3.58-0.07-7.17-0.2-10.74
		c-0.04-1.17,0.88-1.34,1.52-1.76c0.27-0.18,0.9,0,1.25,0.22c3.52,2.03,7.28,3.64,11.18,4.77c4.22,1.19,7.68,4.23,9.42,8.26
		c2.32,5.17,3.73,10.71,4.17,16.36c0.28,3.4,0.32,6.82,0.42,10.23c-0.03,0.68-0.14,1.35-0.33,2.01c-0.25,1.24-1.17,2.23-2.39,2.57
		c-5.88,1.91-11.97,3.1-18.14,3.55c-4.24,0.4-8.51,0.57-12.76,0.83c-0.26,0.03-0.51,0.08-0.76,0.15L346.25,200.43z"/>
	<path id="Path_14" class="st0" d="M372.89,117.47c-0.45,2.15-0.89,4.31-1.36,6.46c-0.11,0.48-0.02,0.98,0.24,1.4
		c0.49,0.9,0.75,1.91,0.77,2.94c0.06,2.36-0.59,4.68-1.85,6.67c-0.13,0.26-0.22,0.54-0.26,0.83c-1.12,5.15-3.78,9.85-7.62,13.46
		c-4.97,5.57-13.51,6.06-19.08,1.09c-0.26-0.23-0.51-0.47-0.75-0.72c-4.2-3.58-7.04-8.49-8.04-13.92c-0.03-0.26-0.1-0.51-0.23-0.73
		c-1.41-2.32-2.08-5.01-1.92-7.72c0.01-0.68,0.23-1.34,0.62-1.89c0.32-0.4,0.42-0.93,0.27-1.42c-0.92-3-1.1-6.18-0.53-9.27
		c1.74-8.94,10.04-15.06,19.1-14.06c5.43,0.62,10.61,2.66,15,5.92c3.5,2.53,5.54,6.61,5.46,10.92L372.89,117.47z"/>
	<path id="Path_15" class="st0" d="M351.96,163.54l-4.37-6.72c3.29,1.1,6.83,1.14,10.14,0.12l-4.28,6.57
		c1.17,1.28,2.28,2.5,3.33,3.7c0.29,0.35,0.44,0.79,0.41,1.24c-1.29,8.09-2.61,16.17-3.95,24.24c-0.12,0.3-0.28,0.59-0.49,0.83
		c-0.19-0.29-0.52-0.56-0.57-0.88c-1.34-8.04-2.65-16.09-3.99-24.16c-0.12-0.53,0.07-1.09,0.49-1.44
		C349.79,165.97,350.83,164.77,351.96,163.54z"/>
</g>
</svg>
