<?xml version="1.0" encoding="utf-8"?>
<!-- Generator: Adobe Illustrator 24.1.3, SVG Export Plug-In . SVG Version: 6.00 Build 0)  -->
<svg version="1.1" id="Layer_1" xmlns="http://www.w3.org/2000/svg" xmlns:xlink="http://www.w3.org/1999/xlink" x="0px" y="0px"
	 viewBox="0 0 100 100" style="enable-background:new 0 0 100 100;" xml:space="preserve">
<style type="text/css">
	.st0{fill:#A5A5A5;}
</style>
<g id="Group_950" transform="translate(-51.848 -358.059)">
	<path id="Path_42" class="st0" d="M53.38,412.79c0-2.21,0.4-4.43,1.33-6.43c0.01-0.01,0.01-0.02,0.02-0.04
		c1.84-3.47,5.5-5.57,9.43-5.4h75.13c5.77-0.33,10.71,4.08,11.04,9.85c0.02,0.39,0.02,0.79,0,1.18v7.15c-0.41,0-0.75,0-1.08,0H54.32
		c-0.32,0-0.62,0-0.96,0L53.38,412.79z"/>
	<path id="Path_43" class="st0" d="M53.38,424.78c0.44,0,0.88,0,1.32,0h95.54c0,0.27,0.08,0.48,0.08,0.69c0,4.86,0,9.72,0,14.57
		c0.06,1.31-0.77,2.49-2.02,2.87c-1.15,0.39-2.41-0.05-3.07-1.06c-0.31-0.54-0.5-1.13-0.55-1.75c-0.09-0.96,0-2,0-3.06H59.06
		c0,0.82,0,1.66,0,2.49c0,1.99-0.71,3.08-2.25,3.44c-1.54,0.35-2.55-0.35-3.42-2.14L53.38,424.78z"/>
	<path id="Path_44" class="st0" d="M80.84,395.18H65.59c0-0.29-0.05-0.54-0.05-0.78c0-4.42,0-8.83,0-13.25
		c-0.11-4.99,3.34-9.36,8.23-10.4c0.89-0.19,1.81-0.28,2.72-0.27c16.9,0,33.81,0,50.71,0c5.81-0.24,10.72,4.28,10.96,10.1
		c0.01,0.29,0.01,0.57,0,0.86c0,4.26,0,8.52,0,12.78c0,0.31,0,0.61,0,0.96h-15.27c0-0.89,0-1.76,0-2.63
		c-0.18-5.33-4.45-9.61-9.78-9.81c-7.54-0.15-15.07-0.15-22.61,0c-5.29,0.25-9.51,4.51-9.69,9.8
		C80.77,393.39,80.84,394.24,80.84,395.18z"/>
	<path id="Path_45" class="st0" d="M117.25,395.17H86.59c-0.97-2.67,0.41-5.62,3.08-6.59c0.68-0.25,1.41-0.35,2.13-0.3
		c6.62,0.11,13.24,0.12,19.86,0c2.75-0.33,5.25,1.64,5.58,4.39c0.05,0.39,0.05,0.79,0,1.18
		C117.22,394.29,117.25,394.7,117.25,395.17z"/>
</g>
</svg>
