<?xml version="1.0" encoding="utf-8"?>
<!-- Generator: Adobe Illustrator 24.1.3, SVG Export Plug-In . SVG Version: 6.00 Build 0)  -->
<svg version="1.1" id="Layer_1" xmlns="http://www.w3.org/2000/svg" xmlns:xlink="http://www.w3.org/1999/xlink" x="0px" y="0px"
	 viewBox="0 0 100 100" style="enable-background:new 0 0 100 100;" xml:space="preserve">
<style type="text/css">
	.st0{fill:#A5A5A5;}
</style>
<path id="Path_41" class="st0" d="M54.28,100h-0.94c-2.32,0-4.65,0-6.97,0c-0.55,0-0.67-0.15-0.67-0.67c0-3.37,0-6.79,0-10.19
	c0-0.55-0.11-0.79-0.73-0.87c-4.86-0.43-9.57-1.96-13.75-4.47C25.11,80,21,73.69,20.01,66.56c-0.17-1.01-0.19-2.02-0.32-3.07
	c-0.06-0.46,0.11-0.62,0.55-0.67c2.27-0.19,4.54-0.4,6.81-0.59l2.21-0.18c0.44,8.96,7.43,16.22,16.37,16.99
	c0-0.3,0.05-0.56,0.05-0.81c0-8.61,0-17.22,0-25.83c0.08-0.47-0.23-0.91-0.7-0.99c-0.02,0-0.05-0.01-0.07-0.01
	c-3.4-0.74-6.73-1.79-9.94-3.14c-3.96-1.52-7.35-4.25-9.68-7.8c-3.71-5.86-3.76-13.33-0.12-19.24c2.6-4.52,6.84-7.86,11.84-9.34
	c2.58-0.9,5.27-1.49,8-1.74c0.5-0.05,0.67-0.24,0.67-0.73c0-2.83,0-5.66,0-8.48c0-0.28,0-0.56,0.04-0.93h0.75c2.34,0,4.71,0,7.04,0
	c0.6,0,0.79,0.16,0.78,0.77c0,2.81,0,5.61,0,8.42c0,1,0,0.98,0.96,1.1c4.2,0.44,8.26,1.73,11.94,3.78
	c5.76,3.28,9.66,9.06,10.54,15.63c0.14,0.81,0.18,1.65,0.28,2.48c0.04,0.36-0.06,0.58-0.48,0.61c-2.4,0.15-4.81,0.33-7.21,0.49
	l-2.02,0.13c-0.24-7.65-6.32-13.83-13.97-14.19c0,0.26-0.05,0.48-0.05,0.71c0,7.56,0,15.12,0,22.68c0,0.59,0.22,0.78,0.75,0.91
	c3.94,0.86,7.81,2.02,11.57,3.47c4.1,1.55,7.68,4.24,10.32,7.75c2.01,2.77,3.17,6.07,3.33,9.49c0.69,8.66-3.98,16.85-11.77,20.68
	c-4.06,2.2-8.57,3.46-13.18,3.7c-0.99,0.07-0.99,0.06-0.99,1.06c0,3.11,0,6.22,0,9.34L54.28,100z M54.33,53.82
	c0,0.37-0.04,0.67-0.04,0.93c0,7.91,0,15.82,0,23.72c0,0.18,0,0.35,0,0.53c0,0.34,0.13,0.48,0.48,0.44s0.79-0.08,1.17-0.13
	c3.36-0.31,6.59-1.43,9.43-3.26c3.89-2.38,5.88-6.92,4.99-11.39c-0.64-3.29-2.84-6.05-5.9-7.41c-2.56-1.25-5.25-2.21-8.02-2.86
	c-0.69-0.18-1.35-0.36-2.1-0.55L54.33,53.82z M45.63,41.21c0-0.3,0.05-0.48,0.05-0.67c0-6.92,0-13.84,0-20.77
	c0-0.59-0.22-0.73-0.75-0.63c-1.29,0.26-2.59,0.45-3.86,0.79c-2.9,0.74-5.43,2.51-7.12,4.97c-2.9,4.08-1.95,9.74,2.14,12.65
	c0.41,0.29,0.85,0.55,1.3,0.77c1.5,0.67,3.08,1.27,4.65,1.82c1.14,0.42,2.36,0.72,3.59,1.09L45.63,41.21z"/>
</svg>
