<?xml version="1.0" encoding="utf-8"?>
<!-- Generator: Adobe Illustrator 24.1.3, SVG Export Plug-In . SVG Version: 6.00 Build 0)  -->
<svg version="1.1" id="Layer_1" xmlns="http://www.w3.org/2000/svg" xmlns:xlink="http://www.w3.org/1999/xlink" x="0px" y="0px"
	 viewBox="0 0 100 100" style="enable-background:new 0 0 100 100;" xml:space="preserve">
<style type="text/css">
	.st0{fill:#A5A5A5;}
</style>
<path id="Icon_awesome-calendar-alt" class="st0" d="M6.32,90.47c0,5.17,4.19,9.36,9.36,9.36c0,0,0,0,0,0h68.64
	c5.17,0,9.36-4.19,9.36-9.36v0V37.42H6.32V90.47z M68.72,52.26c0-1.29,1.05-2.33,2.34-2.34h7.8c1.29,0,2.33,1.05,2.34,2.34v7.8
	c0,1.29-1.05,2.33-2.34,2.34h-7.8c-1.29,0-2.33-1.05-2.34-2.34V52.26z M68.72,77.21c-0.01-1.3,1.03-2.36,2.33-2.36
	c0,0,0.01,0,0.01,0h7.8c1.29,0,2.33,1.05,2.34,2.34v7.87c0,1.29-1.05,2.33-2.34,2.34h-7.8c-1.29,0-2.33-1.05-2.34-2.34V77.21z
	 M43.74,52.26c0-1.29,1.05-2.33,2.34-2.34h7.8c1.29,0,2.33,1.05,2.34,2.34v7.8c0,1.29-1.05,2.33-2.34,2.34H46.1
	c-1.3,0-2.35-1.04-2.36-2.34c0,0,0,0,0,0V52.26z M43.74,77.21c-0.01-1.3,1.03-2.36,2.33-2.36c0.01,0,0.02,0,0.03,0h7.8
	c1.29,0,2.33,1.05,2.34,2.34v7.87c0,1.29-1.05,2.33-2.34,2.34h-7.8c-1.3,0-2.35-1.04-2.36-2.34c0,0,0,0,0,0V77.21z M18.8,52.26
	c0-1.29,1.05-2.33,2.34-2.34h7.8c1.29,0,2.33,1.05,2.34,2.34v7.8c0,1.29-1.05,2.33-2.34,2.34h-7.8c-1.29,0-2.33-1.05-2.34-2.34
	V52.26z M18.8,77.21c-0.01-1.3,1.03-2.36,2.33-2.36c0,0,0.01,0,0.01,0h7.8c1.29,0,2.33,1.05,2.34,2.34v7.87
	c0,1.29-1.05,2.33-2.34,2.34h-7.8c-1.29,0-2.33-1.05-2.34-2.34V77.21z M84.29,12.48h-9.33V3.12c0-1.73-1.41-3.13-3.14-3.12
	c0,0-0.01,0-0.01,0h-6.22c-1.73,0-3.13,1.39-3.14,3.12c0,0,0,0,0,0v9.36H37.52V3.12c0-1.73-1.4-3.12-3.13-3.12h-6.23
	c-1.73,0-3.13,1.4-3.13,3.12v9.36h-9.36c-5.17,0-9.36,4.19-9.36,9.36c0,0,0,0.01,0,0.01v9.36h87.36v-9.36
	c0-5.17-4.18-9.36-9.35-9.36c-0.01,0-0.01,0-0.02,0H84.29z"/>
</svg>
