<?xml version="1.0" encoding="utf-8"?>
<!-- Generator: Adobe Illustrator 24.1.3, SVG Export Plug-In . SVG Version: 6.00 Build 0)  -->
<svg version="1.1" id="Layer_1" xmlns="http://www.w3.org/2000/svg" xmlns:xlink="http://www.w3.org/1999/xlink" x="0px" y="0px"
	 viewBox="0 0 100 100" style="enable-background:new 0 0 100 100;" xml:space="preserve">
<style type="text/css">
	.st0{fill:#A5A5A5;}
</style>
<g id="Group_1665" transform="translate(2266.816 -964.872)">
	<path id="Path_124" class="st0" d="M-2175.5,1015.17v45.48c0,2.47-0.89,3.36-3.35,3.36h-35.72c-2.54,0-3.37-0.85-3.37-3.42
		c0-30.32,0-60.64,0-90.96c0-2.51,0.82-3.33,3.33-3.33h35.82c2.41,0,3.29,0.88,3.29,3.3V1015.17z M-2211.55,981.03
		c0,1.03,0,2.06,0,3.08c-0.08,1.37,0.97,2.55,2.35,2.63c0.06,0,0.12,0,0.18,0c2.12,0.06,4.25,0.06,6.37,0
		c1.36,0.05,2.51-1.01,2.57-2.38c0-0.04,0-0.08,0-0.12c0.07-2.18,0.08-4.38,0-6.57c-0.01-1.36-1.12-2.45-2.48-2.44
		c-0.05,0-0.09,0-0.14,0.01c-2.09,0-4.17-0.03-6.26,0c-1.37-0.05-2.52,1.03-2.57,2.4c0,0.06,0,0.11,0,0.17
		C-2211.57,978.9-2211.55,979.96-2211.55,981.03L-2211.55,981.03z M-2187.17,975.25c-1.03,0-2.06,0-3.08,0
		c-1.37-0.07-2.53,0.98-2.61,2.35c0,0.07,0,0.15,0,0.22c-0.04,2.14-0.04,4.26,0,6.37c-0.07,1.35,0.96,2.5,2.31,2.57
		c0.05,0,0.11,0,0.16,0c2.15,0.07,4.31,0.07,6.46,0c1.35,0.04,2.47-1.02,2.51-2.37c0-0.07,0-0.14,0-0.2c0.06-2.14,0.06-4.26,0-6.37
		c0.05-1.37-1.02-2.53-2.39-2.58c-0.09,0-0.19,0-0.28,0.01C-2185.11,975.23-2186.15,975.25-2187.17,975.25L-2187.17,975.25z
		 M-2205.6,1019.46c1.06,0,2.12,0,3.21,0c1.35,0.1,2.53-0.92,2.62-2.28c0.01-0.11,0.01-0.23,0-0.34c0.02-1.82,0.02-3.65,0-5.47
		c0.1-1.34-0.91-2.52-2.25-2.62c-0.09-0.01-0.18-0.01-0.27-0.01c-2.14-0.06-4.3-0.06-6.47,0c-1.35-0.05-2.48,1-2.53,2.35
		c0,0.09,0,0.18,0,0.27c-0.02,1.82-0.02,3.65,0,5.47c-0.1,1.35,0.92,2.52,2.27,2.61c0.12,0.01,0.24,0.01,0.35,0
		C-2207.66,1019.49-2206.63,1019.47-2205.6,1019.46L-2205.6,1019.46z M-2205.56,1003.35c1.06,0,2.13,0,3.21,0
		c1.35,0.07,2.5-0.96,2.57-2.31c0.01-0.11,0-0.22,0-0.33c0-1.79,0-3.58,0-5.37c0.14-1.33-0.84-2.53-2.17-2.66
		c-0.1-0.01-0.2-0.01-0.3-0.01c-2.18-0.08-4.38-0.07-6.56,0c-1.34-0.03-2.46,1.03-2.5,2.37c0,0.09,0,0.19,0.01,0.28
		c0,1.79,0,3.58,0,5.37c-0.12,1.35,0.88,2.55,2.23,2.67c0.15,0.01,0.29,0.01,0.44,0
		C-2207.62,1003.37-2206.59,1003.35-2205.56,1003.35L-2205.56,1003.35z M-2205.77,1024.61h-3.29c-1.34-0.04-2.45,1.02-2.49,2.35
		c0,0.06,0,0.12,0,0.18c0,1.86,0,3.71,0,5.57c-0.1,1.34,0.9,2.51,2.23,2.61c0.09,0.01,0.19,0.01,0.29,0.01
		c2.14,0.06,4.3,0.06,6.46,0c1.34,0.05,2.47-1.01,2.52-2.35c0-0.07,0-0.15,0-0.22c0.05-1.89,0.05-3.78,0-5.67
		c0.05-1.33-0.99-2.45-2.33-2.5c-0.07,0-0.14,0-0.21,0C-2203.65,1024.58-2204.71,1024.62-2205.77,1024.61L-2205.77,1024.61z
		 M-2205.56,1039.71c-1.09,0-2.19-0.04-3.28,0c-1.32-0.04-2.43,1-2.47,2.32c0,0.08,0,0.17,0,0.25c-0.02,1.86-0.02,3.71,0,5.57
		c-0.11,1.3,0.86,2.45,2.16,2.56c0.07,0.01,0.15,0.01,0.22,0.01c2.26,0.08,4.5,0.08,6.76,0c1.31,0,2.37-1.06,2.37-2.37
		c0-0.07,0-0.13-0.01-0.2c0-1.86,0-3.71,0-5.57c0.09-1.32-0.9-2.47-2.23-2.57c-0.08-0.01-0.17-0.01-0.25,0
		C-2203.38,1039.71-2204.47,1039.71-2205.56,1039.71L-2205.56,1039.71z M-2186.93,1050.43h3.21c1.39,0.06,2.57-1.01,2.63-2.4
		c0-0.11,0-0.23-0.01-0.34c0-1.79,0-3.58,0-5.37c0.1-1.32-0.9-2.47-2.22-2.57c-0.12-0.01-0.23-0.01-0.35,0
		c-2.14-0.04-4.3-0.04-6.46,0c-1.32-0.07-2.44,0.95-2.51,2.27c0,0.11,0,0.23,0.01,0.34c0,1.76,0,3.51,0,5.27
		c-0.18,1.37,0.77,2.63,2.14,2.81c0.19,0.03,0.39,0.03,0.58,0.01C-2188.91,1050.46-2187.92,1050.43-2186.93,1050.43
		L-2186.93,1050.43z M-2187.12,1003.35c1.06,0,2.13,0,3.21,0c1.31,0.08,2.44-0.91,2.52-2.22c0-0.09,0.01-0.18,0-0.27
		c0.05-1.89,0.05-3.78,0-5.67c0.09-1.3-0.89-2.43-2.18-2.52c-0.07,0-0.14-0.01-0.21-0.01c-2.22-0.08-4.44-0.08-6.66,0
		c-1.3-0.04-2.39,0.99-2.43,2.3c0,0.09,0,0.18,0.01,0.27c0,1.86,0,3.71,0,5.57c-0.09,1.31,0.9,2.44,2.21,2.52
		c0.09,0.01,0.18,0.01,0.27,0C-2189.3,1003.38-2188.21,1003.35-2187.12,1003.35L-2187.12,1003.35z M-2187.12,1019.46
		c1.03,0,2.06,0,3.08,0c1.33,0.13,2.51-0.85,2.64-2.18c0.01-0.13,0.01-0.26,0.01-0.39c0.04-1.85,0.04-3.71,0-5.57
		c0.09-1.32-0.9-2.47-2.23-2.57c-0.08-0.01-0.16-0.01-0.24,0c-2.18-0.06-4.37-0.06-6.56,0c-1.32-0.03-2.41,1.01-2.44,2.32
		c0,0.08,0,0.16,0.01,0.25c0,1.86,0,3.71,0,5.57c-0.1,1.32,0.89,2.47,2.21,2.57c0.12,0.01,0.24,0.01,0.36,0
		c1.04,0.03,2.1,0.01,3.16,0.01L-2187.12,1019.46z M-2187.07,1024.37L-2187.07,1024.37h-3.08h-0.29c-1.31-0.02-2.39,1.03-2.41,2.33
		c0,0.05,0,0.11,0,0.16c-0.03,1.89-0.03,3.78,0,5.67c-0.12,1.25,0.8,2.37,2.06,2.48c0.08,0.01,0.15,0.01,0.23,0.01
		c2.28,0.08,4.57,0.08,6.85,0c1.25,0.02,2.29-0.97,2.31-2.23c0-0.05,0-0.1,0-0.15c0.05-1.95,0.05-3.91,0-5.87
		c0.04-1.28-0.96-2.36-2.25-2.4c-0.05,0-0.1,0-0.14,0c-1.1-0.04-2.19,0-3.29,0L-2187.07,1024.37z"/>
	<path id="Path_125" class="st0" d="M-2218.21,1032.88c0,9.19,0,18.37,0,27.57c0,2.33-1.04,3.39-3.39,3.39c-11.04,0-22.08,0-33.13,0
		c-2.33,0-3.37-1.07-3.37-3.41v-55.13c-0.25-1.6,0.84-3.1,2.44-3.35c0.3-0.05,0.6-0.05,0.9,0c11.07,0,22.15,0,33.23,0
		c1.6-0.24,3.09,0.86,3.33,2.45c0.05,0.3,0.04,0.61-0.01,0.91C-2218.2,1014.5-2218.21,1023.69-2218.21,1032.88z M-2228.96,1024.21
		c-1.06,0-2.12,0-3.21,0c-1.39-0.09-2.59,0.96-2.68,2.35c-0.01,0.11-0.01,0.22,0,0.33c-0.02,1.79-0.02,3.58,0,5.37
		c-0.1,1.37,0.93,2.57,2.31,2.67c0.06,0,0.12,0.01,0.19,0.01c2.25,0.06,4.5,0.06,6.76,0c1.37,0,2.48-1.1,2.49-2.47
		c0-0.03,0-0.07,0-0.1c0.03-1.85,0.03-3.71,0-5.57c0.04-1.38-1.04-2.53-2.41-2.57c-0.05,0-0.1,0-0.16,0
		C-2226.76,1024.19-2227.86,1024.22-2228.96,1024.21L-2228.96,1024.21z M-2228.96,1019.07h3.28c1.38,0.04,2.53-1.06,2.57-2.44
		c0-0.04,0-0.09,0-0.13c0.04-1.85,0.04-3.71,0-5.57c0.05-1.37-1.02-2.52-2.39-2.57c-0.03,0-0.06,0-0.09,0
		c-2.25-0.06-4.5-0.06-6.76,0c-1.37-0.01-2.48,1.09-2.49,2.45c0,0.04,0,0.08,0,0.12c-0.03,1.85-0.03,3.71,0,5.57
		c-0.05,1.37,1.02,2.52,2.39,2.57c0.06,0,0.12,0,0.18,0C-2231.14,1019.09-2230.05,1019.07-2228.96,1019.07z M-2246.53,1024.21
		c-1.09,0-2.19,0-3.28,0c-1.38-0.09-2.56,0.96-2.65,2.34c0,0.06,0,0.12,0,0.17c-0.06,1.89-0.06,3.78,0,5.67
		c-0.04,1.38,1.04,2.53,2.41,2.57c0.04,0,0.07,0,0.11,0c2.22,0.06,4.44,0.06,6.66,0c1.36,0.05,2.52-1.01,2.57-2.37
		c0-0.08,0-0.16,0-0.24c0.03-1.82,0.03-3.64,0-5.47c0.08-1.38-0.97-2.56-2.34-2.65c-0.12-0.01-0.25-0.01-0.37,0
		C-2244.51,1024.2-2245.5,1024.21-2246.53,1024.21L-2246.53,1024.21z M-2246.6,1019.07c1.06,0,2.12,0,3.21,0
		c1.37,0.11,2.57-0.92,2.68-2.29c0.01-0.13,0.01-0.25,0-0.38c0.03-1.79,0.03-3.58,0-5.37c0.1-1.37-0.93-2.57-2.3-2.67
		c-0.09-0.01-0.18-0.01-0.27-0.01c-2.18-0.05-4.37-0.05-6.56,0c-1.39-0.03-2.54,1.07-2.57,2.45c0,0.04,0,0.08,0,0.12
		c-0.05,1.86-0.06,3.71,0,5.56c-0.04,1.38,1.05,2.54,2.43,2.58c0.09,0,0.17,0,0.26-0.01
		C-2248.72,1019.09-2247.66,1019.07-2246.6,1019.07L-2246.6,1019.07z M-2246.6,1039.31c-1.09,0-2.18,0-3.28,0
		c-1.35-0.06-2.5,0.98-2.57,2.34c0,0.05,0,0.1,0,0.15c-0.06,1.89-0.06,3.78,0,5.67c-0.06,1.36,1,2.51,2.36,2.57
		c0.05,0,0.11,0,0.16,0c2.25,0.06,4.5,0.06,6.75,0c1.34,0.01,2.44-1.06,2.45-2.4c0-0.05,0-0.11,0-0.17c0-1.86,0.04-3.71,0-5.56
		c0.05-1.34-0.99-2.48-2.34-2.53c-0.05,0-0.11,0-0.16,0c-1.15-0.09-2.28-0.06-3.41-0.06H-2246.6z M-2228.94,1050.04
		c1.06,0,2.12,0,3.18,0c1.42,0.09,2.64-0.99,2.73-2.4c0.01-0.12,0.01-0.24,0-0.36c0-1.75,0-3.51,0-5.27
		c0.1-1.38-0.93-2.58-2.31-2.68c-0.12-0.01-0.24-0.01-0.36,0c-2.14-0.03-4.26-0.03-6.36,0c-1.39-0.11-2.6,0.92-2.71,2.31
		c-0.01,0.14-0.01,0.29,0,0.43c0,1.72,0,3.44,0,5.14c-0.14,1.41,0.9,2.67,2.31,2.8c0.15,0.01,0.3,0.02,0.45,0
		c1,0.06,2.02,0.03,3.05,0.03H-2228.94z"/>
</g>
</svg>
