<?xml version="1.0" encoding="utf-8"?>
<!-- Generator: Adobe Illustrator 24.1.3, SVG Export Plug-In . SVG Version: 6.00 Build 0)  -->
<svg version="1.1" id="Layer_1" xmlns="http://www.w3.org/2000/svg" xmlns:xlink="http://www.w3.org/1999/xlink" x="0px" y="0px"
	 viewBox="0 0 100 100" style="enable-background:new 0 0 100 100;" xml:space="preserve">
<style type="text/css">
	.st0{fill:#A5A5A5;}
</style>
<g id="Fire">
	<path id="Path" class="st0" d="M48.95,0.3c-1.35-0.6-2.94-0.29-3.96,0.78C44,2.11,43.6,3.57,43.92,4.96
		c0.53,2.37,0.8,4.79,0.79,7.22c0.21,4.61-1.16,9.15-3.87,12.88c-3.02,3.59-6.63,6.66-10.66,9.07c-0.07,0.05-0.14,0.1-0.2,0.17
		l-0.55,0.56C13.01,45.47,8.3,67.39,18.91,83.81s32.53,21.13,48.95,10.52c15.19-9.82,20.54-29.51,12.4-45.67
		c-0.33-0.65-1.12-0.91-1.77-0.58c-0.15,0.08-0.29,0.18-0.4,0.31L77,49.66c-3.81,5.62-9.45,9.74-15.95,11.68
		c-0.22,0.08-0.47,0.05-0.67-0.07c-0.22-0.16-0.39-0.39-0.48-0.65c-0.27-0.74-0.12-1.57,0.39-2.17c4.65-5.29,7.46-11.95,8.01-18.97
		C70.89,23.63,63.11,7.89,48.95,0.3z"/>
</g>
</svg>
