<?xml version="1.0" encoding="utf-8"?>
<!-- Generator: Adobe Illustrator 24.1.3, SVG Export Plug-In . SVG Version: 6.00 Build 0)  -->
<svg version="1.1" id="Layer_1" xmlns="http://www.w3.org/2000/svg" xmlns:xlink="http://www.w3.org/1999/xlink" x="0px" y="0px"
	 viewBox="0 0 100 100" style="enable-background:new 0 0 100 100;" xml:space="preserve">
<style type="text/css">
	.st0{fill:#A5A5A5;}
</style>
<g id="Location" transform="translate(0 0)">
	<path id="Path" class="st0" d="M33,42.15c0.25-9.14,7.86-16.36,17-16.12c9.14-0.24,16.75,6.97,17,16.12
		c-0.25,9.14-7.86,16.36-17,16.12C40.86,58.5,33.25,51.29,33,42.15z"/>
	<path id="Shape" class="st0" d="M50,100c-3,0.02-5.87-1.26-7.85-3.53L17.08,67.4C9.65,58.93,6,47.8,6.96,36.58
		c0.92-10.1,5.73-19.44,13.42-26.05C28.29,3.7,38.41-0.05,48.87,0h2.26c10.46-0.05,20.58,3.7,28.49,10.54
		c7.69,6.61,12.5,15.95,13.42,26.05C94,47.8,90.35,58.93,82.93,67.4L57.85,96.47C55.87,98.74,53.01,100.02,50,100z M50,18.63
		C36.66,18.3,25.55,28.81,25.15,42.15C25.53,55.5,36.64,66.03,50,65.7c13.36,0.33,24.47-10.2,24.85-23.56
		C74.47,28.79,63.36,18.26,50,18.6V18.63z"/>
</g>
</svg>
