<?xml version="1.0" encoding="utf-8"?>
<!-- Generator: Adobe Illustrator 24.1.3, SVG Export Plug-In . SVG Version: 6.00 Build 0)  -->
<svg version="1.1" id="Layer_1" xmlns="http://www.w3.org/2000/svg" xmlns:xlink="http://www.w3.org/1999/xlink" x="0px" y="0px"
	 viewBox="0 0 100 100" style="enable-background:new 0 0 100 100;" xml:space="preserve">
<style type="text/css">
	.st0{fill:#A5A5A5;}
</style>
<g id="Group_1664" transform="translate(1107.066 -863.951)">
	<path id="Path_115" class="st0" d="M-1016.58,956.43h-7.46c0-0.41,0-0.76,0-1.11c0-5.6,0-11.17,0-16.81
		c0.15-3.66-1.98-7.03-5.36-8.45c-4.54-2.11-9.93-0.14-12.04,4.4c-0.52,1.12-0.81,2.34-0.84,3.57c-0.05,5.73,0,11.47,0,17.2v1.16
		h-7.43c0-0.38-0.06-0.77-0.06-1.15c0-14.77,0-29.54,0-44.32c0-7.63,0-15.26,0-22.89c-0.04-0.62,0.2-1.22,0.66-1.64
		c4.82-4.68,9.61-9.38,14.37-14.09c1.14-1.13,1.87-1.14,3,0c4.89,4.79,9.77,9.57,14.65,14.37c0.32,0.35,0.5,0.8,0.52,1.27
		c0.03,18.05,0.03,36.1,0,54.15c0,4.35,0,8.71,0,13.06L-1016.58,956.43z M-1021.62,909.65L-1021.62,909.65c0-2.59,0-5.17,0-7.76
		c0-1.17-0.11-1.28-1.31-1.28c-2.58,0-5.17,0-7.76,0c-0.87,0-1.22,0.26-1.21,1.18c0.03,5.3,0.03,10.6,0,15.9
		c0,0.86,0.32,1.15,1.16,1.14c2.63,0,5.3-0.04,7.95,0c0.93,0,1.18-0.39,1.18-1.24C-1021.64,914.94-1021.63,912.29-1021.62,909.65
		L-1021.62,909.65z M-1044.86,909.69c0,2.63,0,5.26,0,7.93c0,0.88,0.27,1.22,1.18,1.21c2.63-0.04,5.25-0.04,7.85,0
		c0.97,0,1.25-0.38,1.24-1.31c-0.02-5.24-0.02-10.47,0-15.71c0-0.96-0.37-1.25-1.31-1.24c-2.63,0.04-5.25,0.04-7.86,0
		c-0.85,0-1.15,0.28-1.14,1.14C-1044.84,904.38-1044.87,907.04-1044.86,909.69L-1044.86,909.69z M-1033.14,893.83
		c3.55-0.04,6.4-2.92,6.41-6.47c-0.02-3.55-2.88-6.42-6.43-6.46c-3.54,0.02-6.42,2.84-6.53,6.38c-0.02,3.6,2.88,6.53,6.48,6.55
		C-1033.18,893.83-1033.16,893.83-1033.14,893.83L-1033.14,893.83z"/>
	<path id="Path_116" class="st0" d="M-1014.8,959.01v4.94h-83.84v-4.94H-1014.8z"/>
	<path id="Path_118" class="st0" d="M-1052.59,956.46h-39.18v-18.88h39.19L-1052.59,956.46z M-1070.59,943.17
		c0,2.86,0,5.63,0.03,8.4c0,0.19,0.49,0.54,0.76,0.55c4.22,0.03,8.44,0,12.65,0.04c0.73,0,0.88-0.28,0.87-0.93c0-1.54,0-3.08,0-4.6
		v-3.45L-1070.59,943.17z M-1073.92,943.17h-14.15v8.91h14.15V943.17z"/>
	<path id="Path_119" class="st0" d="M-1052.56,923.37v11.72c-0.36,0-0.7,0.07-1.05,0.07h-43.23c-0.16,0.03-0.33,0.03-0.49,0
		c-0.44-0.21-1.08-0.37-1.23-0.73c-0.11-0.49,0.02-1,0.35-1.38c1.31-1.4,2.73-2.72,4.12-4.06c1.74-1.69,3.46-3.39,5.26-5.04
		c0.4-0.36,0.91-0.57,1.45-0.6c11.33-0.03,22.66-0.03,34,0C-1053.15,923.31-1052.89,923.34-1052.56,923.37z"/>
	<path id="Path_121" class="st0" d="M-1052.59,901.77v18.94c-0.3,0-0.58,0.08-0.85,0.08h-27.21c-0.58,0-0.99,0-0.98-0.81
		c0-5.96,0-11.92,0-17.88c0.01-0.12,0.03-0.23,0.06-0.35L-1052.59,901.77z M-1065.79,906.25v6.97h11.08c0-1.39,0-2.73,0-4.07
		c0-0.93,0.22-2.17-0.27-2.71c-0.49-0.55-1.72-0.18-2.63-0.18c-2.72,0-5.46,0.01-8.18,0.01L-1065.79,906.25z M-1079.41,913.22h10.95
		v-6.92h-10.95V913.22z"/>
	<path id="Path_122" class="st0" d="M-1052.59,887.37v11.92h-1.31h-26.33c-1.93,0-3.87,0.07-5.79,0c-0.59-0.03-1.15-0.3-1.56-0.73
		c-0.47-0.59,0.06-1.16,0.51-1.6c3.14-3.06,6.28-6.13,9.45-9.14c0.39-0.28,0.87-0.42,1.35-0.39c4,0,7.99,0,11.98,0
		c3.54,0,7.07,0,10.61,0L-1052.59,887.37z"/>
	<path id="Path_123" class="st0" d="M-1016.58,884.51c-1.46-1.42-2.75-2.63-4.02-3.9c-3.79-3.71-7.57-7.44-11.36-11.17
		c-0.92-0.89-1.68-0.87-2.63,0.07c-4.61,4.51-9.22,9.02-13.8,13.55c-0.34,0.4-0.65,0.82-0.92,1.27l-0.46-0.25
		c0.05-0.72,0.05-1.44,0-2.16c-0.3-2.06,0.54-4.13,2.18-5.41c4.04-3.72,7.89-7.66,11.83-11.5c1.4-1.38,3.64-1.4,5.07-0.06
		c4.45,4.35,8.9,8.69,13.28,13.09c0.49,0.58,0.79,1.31,0.84,2.07C-1016.49,881.5-1016.58,882.88-1016.58,884.51z"/>
</g>
</svg>
