<?xml version="1.0" encoding="utf-8"?>
<!-- Generator: Adobe Illustrator 24.1.3, SVG Export Plug-In . SVG Version: 6.00 Build 0)  -->
<svg version="1.1" id="Layer_1" xmlns="http://www.w3.org/2000/svg" xmlns:xlink="http://www.w3.org/1999/xlink" x="0px" y="0px"
	 viewBox="0 0 100 100" style="enable-background:new 0 0 100 100;" xml:space="preserve">
<style type="text/css">
	.st0{fill:#A5A5A5;}
</style>
<g id="Group_984" transform="translate(2594.122 -604.638)">
	<path id="Path_48" class="st0" d="M-2511.8,697.75c-5.71,0.01-10.99-3.05-13.81-8.02c-10.94-18.81-21.83-37.65-32.66-56.53
		c-4.55-7.7-2-17.63,5.7-22.17c0.1-0.06,0.21-0.12,0.31-0.18c7.73-4.52,17.67-1.91,22.18,5.83c0.06,0.1,0.12,0.2,0.17,0.3
		c10.87,18.68,21.66,37.39,32.38,56.14c3.21,5.18,3.16,11.75-0.14,16.87C-2500.59,694.97-2506.02,697.96-2511.8,697.75z"/>
	<path id="Path_49" class="st0" d="M-2567.13,632.5c1.92,3.59,3.77,7.05,5.76,10.44c3.96,6.91,7.95,13.79,11.99,20.64
		c0.73,0.93,0.78,2.22,0.12,3.2c-4.44,7.53-8.63,15.19-13.17,22.68c-3.21,6.09-10.03,9.36-16.78,8.06
		c-6.39-0.8-11.62-5.45-13.17-11.7c-1.28-3.96-0.82-8.29,1.27-11.89c7.67-13.56,15.52-27.06,23.31-40.57
		C-2567.6,633.06-2567.38,632.78-2567.13,632.5z"/>
</g>
</svg>
