<?xml version="1.0" encoding="utf-8"?>
<!-- Generator: Adobe Illustrator 24.1.3, SVG Export Plug-In . SVG Version: 6.00 Build 0)  -->
<svg version="1.1" id="Layer_1" xmlns="http://www.w3.org/2000/svg" xmlns:xlink="http://www.w3.org/1999/xlink" x="0px" y="0px"
	 viewBox="0 0 100 100" style="enable-background:new 0 0 100 100;" xml:space="preserve">
<style type="text/css">
	.st0{fill:#A5A5A5;}
</style>
<g id="Group_1661" transform="translate(-66.998 -256.207)">
	<path id="Path_111" class="st0" d="M126.8,356.12H98.23c-2.08,0.34-4.04-1.07-4.38-3.15c-0.07-0.41-0.07-0.82,0-1.22
		c0-12.6,0-25.28,0-37.91c-0.09-1.64,0.74-3.2,2.15-4.04c9.49-6.25,18.95-12.52,28.39-18.83c1.45-1.12,3.47-1.12,4.92,0
		c9.49,6.31,18.98,12.61,28.49,18.89c1.38,0.83,2.19,2.35,2.11,3.96c0,12.67,0,25.35,0,38.03c0.31,2.08-1.13,4.01-3.21,4.32
		c-0.38,0.06-0.76,0.05-1.14,0L126.8,356.12z"/>
	<path id="Path_112" class="st0" d="M112.55,284.77l7.33-4.85c1.54-1.02,3.08-2.03,4.61-3.07c1.41-1.06,3.34-1.06,4.75,0
		c11.83,7.84,23.67,15.68,35.51,23.52c1.81,0.97,2.49,3.22,1.52,5.03c-0.97,1.81-3.22,2.49-5.03,1.52
		c-0.23-0.12-0.44-0.27-0.64-0.43c-10.91-7.22-21.81-14.46-32.71-21.71c-0.57-0.51-1.43-0.51-2.01,0
		c-10.83,7.21-21.66,14.41-32.52,21.59c-0.91,0.73-2.09,1.03-3.24,0.84c-1.46-0.23-2.62-1.35-2.9-2.8c-0.4-1.51,0.24-3.1,1.57-3.92
		c3.07-2.06,6.16-4.09,9.24-6.13c2.08-1.38,4.15-2.8,6.27-4.12c0.6-0.34,0.93-1,0.84-1.68c0-2.86,0-5.7,0-8.55
		c-0.19-2.03,1.3-3.83,3.33-4.02c0.11-0.01,0.22-0.02,0.33-0.02c2.07,0.01,3.75,1.7,3.74,3.77c0,0.08,0,0.15-0.01,0.23
		C112.57,281.53,112.55,283,112.55,284.77z"/>
	<path id="Path_113" class="st0" d="M73.01,288.46c-0.44,0.39-0.73,0.7-1.05,0.95c-1.13,0.92-2.76,0.83-3.79-0.19
		c-1.07-0.95-1.17-2.59-0.24-3.67c2.32-2.46,4.72-4.86,7.18-7.19c1.04-0.96,2.66-0.89,3.62,0.15c0.01,0.02,0.03,0.03,0.04,0.05
		c2.27,2.2,4.51,4.44,6.72,6.72c1.09,1.07,1.11,2.82,0.04,3.91c-0.01,0.01-0.03,0.03-0.04,0.04c-1.12,1.11-2.93,1.11-4.05,0
		l-0.84-0.76v56.97l0.84-0.77c1.12-1.11,2.93-1.11,4.05,0c1.09,1.1,1.09,2.87,0,3.96c-1.15,1.24-2.38,2.41-3.58,3.61
		c-0.97,0.98-1.94,1.98-2.95,2.93c-1.01,1.19-2.78,1.33-3.97,0.33c-0.12-0.1-0.23-0.21-0.33-0.33c-2.12-2.07-4.21-4.17-6.29-6.29
		c-1.21-0.99-1.39-2.77-0.4-3.98c0.06-0.08,0.13-0.15,0.2-0.22c1.16-1.11,3-1.07,4.11,0.09c0.03,0.03,0.06,0.07,0.09,0.1l0.62,0.57
		V288.46z"/>
	<path id="Path_114" class="st0" d="M155.37,261.96c-0.38-0.41-0.66-0.71-0.92-1.02c-0.96-1.09-0.94-2.73,0.06-3.79
		c0.94-1.12,2.61-1.27,3.73-0.33c0.01,0.01,0.02,0.02,0.03,0.02c2.47,2.32,4.86,4.73,7.19,7.18c0.92,0.99,0.89,2.54-0.07,3.49
		c-2.24,2.37-4.55,4.68-6.94,6.95c-1.08,1.04-2.8,1-3.84-0.08c-0.01-0.01-0.02-0.02-0.03-0.03c-1.09-1.08-1.12-2.84-0.05-3.96
		c0.23-0.26,0.47-0.5,0.84-0.84H98.44c0.35,0.39,0.66,0.71,0.94,1.05c0.91,1.13,0.83,2.76-0.19,3.79c-0.96,1.06-2.59,1.16-3.68,0.24
		c-2.46-2.33-4.86-4.73-7.19-7.19c-0.96-1.01-0.92-2.6,0.09-3.56c0.04-0.03,0.07-0.07,0.11-0.1c2.2-2.24,4.44-4.48,6.72-6.72
		c1.07-1.09,2.82-1.11,3.91-0.04c0.01,0.01,0.03,0.03,0.04,0.04c1.08,1.09,1.11,2.84,0.06,3.96c-0.24,0.28-0.5,0.55-0.84,0.93
		H155.37z"/>
</g>
</svg>
