<?xml version="1.0" encoding="utf-8"?>
<!-- Generator: Adobe Illustrator 24.1.3, SVG Export Plug-In . SVG Version: 6.00 Build 0)  -->
<svg version="1.1" id="Layer_1" xmlns="http://www.w3.org/2000/svg" xmlns:xlink="http://www.w3.org/1999/xlink" x="0px" y="0px"
	 viewBox="0 0 100 100" style="enable-background:new 0 0 100 100;" xml:space="preserve">
<path id="Path_5" d="M63.45,39.11c0.08,4.87-1.39,9.64-4.2,13.62c-0.84,1.19-0.58,1.82,0.32,2.81c1.14,1.67,3.22,2.42,5.16,1.87
	c2.45-0.46,4.95,0.42,6.57,2.32c3.68,3.66,7.34,7.33,11,11.02c2.7,2.41,3.46,6.32,1.87,9.57c-1.29,3.19-4.63,5.05-8.03,4.46
	c-1.79-0.24-3.48-1.01-4.83-2.21c-3.99-3.66-7.77-7.57-11.57-11.44c-1.86-2.05-2.61-4.86-2.03-7.57c0.2-1.5-1.82-4.82-3.26-5.04
	c-0.68,0.06-1.34,0.32-1.87,0.76c-11.14,7.5-26.24,4.55-33.74-6.58c-5.93-8.8-5.46-20.42,1.14-28.72c1.39-1.6,2.89-3.1,4.48-4.49
	c0.53-0.47,1.12-0.87,1.74-1.2c1.91-1.1,3.63-0.84,4.52,0.62c0.8,1.32,0.25,2.77-1.43,4.06c-1.19,0.85-2.31,1.8-3.36,2.82
	c-4.97,4.64-6.83,11.72-4.78,18.21c1.76,6.69,7.13,11.82,13.9,13.29c10.09,2.24,20.09-4.12,22.33-14.22
	c0.42-1.9,0.55-3.86,0.36-5.81c-0.57-7.45-5.59-13.82-12.71-16.11c-0.28-0.1-0.56-0.19-0.84-0.31c-1.82-0.84-2.62-2.31-2.04-3.76
	c0.7-1.53,2.5-2.2,4.03-1.51c0,0,0,0,0,0C56.48,18.76,63.49,28.32,63.45,39.11z"/>
</svg>
