<?xml version="1.0" encoding="utf-8"?>
<!-- Generator: Adobe Illustrator 24.1.3, SVG Export Plug-In . SVG Version: 6.00 Build 0)  -->
<svg version="1.1" id="Layer_1" xmlns="http://www.w3.org/2000/svg" xmlns:xlink="http://www.w3.org/1999/xlink" x="0px" y="0px"
	 viewBox="0 0 100 100" style="enable-background:new 0 0 100 100;" xml:space="preserve">
<path id="Path_84" d="M69.11,33.93c0.1,6.88-1.99,13.61-5.97,19.21c-1.22,1.67-0.82,2.58,0.45,3.96c1.61,2.34,4.54,3.4,7.27,2.62
	c3.45-0.65,6.98,0.6,9.25,3.27c5.19,5.16,10.35,10.34,15.5,15.54c3.8,3.4,4.87,8.92,2.62,13.49c-1.82,4.51-6.54,7.13-11.32,6.3
	c-2.53-0.34-4.9-1.42-6.82-3.11c-5.64-5.16-10.96-10.67-16.31-16.13c-2.63-2.9-3.7-6.89-2.85-10.71c0.28-2.13-2.57-6.8-4.59-7.08
	c-0.97,0.08-1.88,0.45-2.63,1.07C37.98,72.9,16.69,68.68,6.15,52.95c-8.28-12.37-7.64-28.67,1.59-40.34
	c1.96-2.25,4.07-4.37,6.31-6.33c0.75-0.66,1.57-1.23,2.46-1.7c2.68-1.56,5.12-1.21,6.37,0.87c1.12,1.85,0.35,3.91-2.01,5.73
	c-1.69,1.2-3.29,2.53-4.78,3.96c-7,6.55-9.62,16.53-6.75,25.68c2.49,9.44,10.06,16.68,19.59,18.75
	c14.23,3.19,28.34-5.76,31.53-19.99c0.61-2.7,0.78-5.49,0.52-8.25c-0.8-10.51-7.89-19.49-17.93-22.71
	c-0.39-0.15-0.79-0.27-1.17-0.44c-2.56-1.15-3.7-3.26-2.88-5.3c0.98-2.16,3.53-3.11,5.69-2.12C59.26,5.24,69.16,18.71,69.11,33.93z"
	/>
</svg>
