<?xml version="1.0" encoding="UTF-8"?>
<svg id="Layer_1" data-name="Layer 1" xmlns="http://www.w3.org/2000/svg" viewBox="0 0 149.54 149.58">
  <defs>
    <style>
      .cls-1 {
        fill: #a5a5a5;
      }
    </style>
  </defs>
  <path d="m61.99,85.25c-.39,0-.6,0-.81,0-15.49,0-30.97.02-46.46-.02-3.78,0-6.88-1.54-8.99-4.75-.53-.81-.74-1.82-1.15-2.71-.55-1.18-.63-2.43-.52-3.68.35-4,2.31-6.92,5.92-8.71,1.53-.76,3.15-1.04,4.84-.99,1.55.04,3.11.11,4.66.12,1.05,0,2.09-.11,3.14-.11,12.8,0,25.61,0,38.41,0h1c-.22-.25-.32-.39-.45-.52-3.88-3.88-7.76-7.76-11.63-11.65-2.49-2.5-3.64-5.52-3.06-9.02.69-4.15,3.05-7.13,7.07-8.42,4.1-1.32,7.77-.22,10.81,2.81,9.45,9.43,18.88,18.88,28.32,28.32,2.15,2.15,4.31,4.31,6.46,6.46,1.47,1.47,1.56,3.23.11,4.69-4.04,4.08-8.12,8.13-12.18,12.19-7.62,7.62-15.23,15.26-22.86,22.86-2.53,2.52-5.61,3.63-9.17,2.97-3.18-.59-5.72-2.23-7.32-5.11-1.24-2.22-1.69-4.6-1.18-7.13.45-2.21,1.51-4.05,3.11-5.63,3.79-3.76,7.55-7.54,11.32-11.31.17-.17.32-.34.6-.64Z"/>
  <path class="cls-1" d="m145.46,71.42c-.06-1.52-.29-3.05-.62-4.54-.25-1.13-1.14-1.8-2.31-1.86-2.22-.11-4.45-.16-6.67-.2-1.41-.03-2.01-.42-2.47-1.73-.26-.75-.44-1.54-.76-2.27-1.03-2.39-2.1-4.78-3.17-7.15-.43-.96-.3-2,.43-2.74,1.4-1.41,2.82-2.79,4.19-4.22.91-.95,1.59-2.05,1.02-3.43-.24-.57-.58-1.12-.99-1.58-1.79-1.98-3.57-3.98-5.45-5.87-1.27-1.28-2.64-2.49-4.08-3.56-1.59-1.19-2.83-1.06-4.3.3-1.44,1.33-2.8,2.75-4.19,4.13-.98.97-2.09,1.12-3.29.47-2.78-1.5-5.69-2.68-8.7-3.63-1.6-.5-2.17-1.18-2.17-2.83,0-2.01,0-4.02-.05-6.03-.04-1.35-.68-2.39-2.01-2.79-.84-.26-1.73-.42-2.61-.45-2.55-.09-5.1-.13-7.65-.11-1.4,0-2.81.1-4.2.27-2.3.28-3.25,1.41-3.25,3.72,0,1.88,0,3.76,0,5.65,0,1.21-.58,2.07-1.72,2.47-1.2.42-2.43.75-3.6,1.24-2.26.94-4.49,1.96-6.82,2.99.19.22.3.37.43.5,3.09,3.01,6.19,6,9.24,9.04.46.46.81.48,1.34.26,3.81-1.56,7.77-2.26,11.88-2.13,3.13.09,6.17.67,9.12,1.73,4.55,1.64,8.46,4.24,11.72,7.8,2.34,2.55,4.17,5.42,5.52,8.62,1.18,2.79,1.92,5.7,2.15,8.7.16,2.16.03,4.36-.18,6.53-.34,3.45-1.45,6.69-3.06,9.76-1.76,3.36-4.08,6.28-6.97,8.75-2.9,2.49-6.17,4.33-9.78,5.56-2.44.83-4.97,1.24-7.54,1.48-2.24.21-4.46-.02-6.65-.35-2.24-.34-4.43-.96-6.51-1.88-.42-.18-.68-.13-1.01.2-2.99,3.02-6.01,6.02-9.01,9.04-.18.18-.32.38-.51.61.19.12.31.2.45.26.16.07.33.11.48.19,2.94,1.57,5.99,2.86,9.19,3.79,1.16.34,1.85,1.28,1.85,2.51,0,2.03-.01,4.07.01,6.1.02,1.45.75,2.57,1.99,2.96.72.23,1.47.41,2.22.44,2.48.1,4.97.17,7.46.16,1.57,0,3.16-.09,4.72-.28,2.48-.31,3.36-1.37,3.38-3.88.02-1.82,0-3.63,0-5.45,0-1.28.5-2.02,1.67-2.49.28-.11.58-.15.87-.25,2.93-.97,5.78-2.15,8.5-3.61,1.05-.57,2.18-.38,3.02.46,1.3,1.3,2.59,2.6,3.89,3.89,1.78,1.76,3.2,1.9,5.13.35,1.42-1.14,2.77-2.4,4.06-3.69,1.72-1.72,3.41-3.48,5-5.31.84-.97,1.61-2.11,1.04-3.53-.23-.58-.61-1.15-1.04-1.61-1.35-1.42-2.73-2.82-4.15-4.17-.87-.82-.82-2.09-.43-2.85,1.5-2.9,2.8-5.88,3.75-9.01.53-1.73,1.1-2.08,2.93-2.11,2.14-.04,4.27-.09,6.41-.19,1.16-.05,1.98-.75,2.26-1.83.32-1.29.55-2.62.6-3.95.1-2.44.11-4.89.01-7.33Zm-28.52,23.32c-.08.01-.15.02-.23.04.08-.01.15-.02.23-.04h0Zm-.11.68c.09-.03.18-.07.27-.11-.09.03-.18.07-.27.11h0Zm-.21.45s-.02-.06-.02-.09c0,.03,0,.06.02.09.01.03.03.06.04.08-.02-.03-.03-.05-.04-.08Zm4.03-4.56c.07.07.14.14.21.22-.07-.07-.14-.14-.21-.22h0Z"/>
</svg>