<svg xmlns="http://www.w3.org/2000/svg" width="149.538" height="149.583" viewBox="0 0 149.538 149.583">
  <g id="Group_7928" data-name="Group 7928" transform="translate(-3372 -5785)">
    <g id="Group_7927" data-name="Group 7927" transform="translate(3372 5785)">
      <path id="Path_9185" data-name="Path 9185" d="M96.995,81.533a30.633,30.633,0,0,0-3.416.575,15.527,15.527,0,0,0-4.522,1.933A6.9,6.9,0,0,0,83.869,81.6H83.84a42.68,42.68,0,0,1-5.832-.846,20.261,20.261,0,0,1-4.192-1.464,37.51,37.51,0,0,0,7.707-17.314h2.519c3.661-.165,6.224-2.68,6.173-5.986-.07-3.2-2.563-5.58-6.1-5.774a6.045,6.045,0,0,0-.893,0H70.462V45.5a42.069,42.069,0,0,0-.183-4.76v-.084a5.6,5.6,0,0,0-5.8-4.917,5.686,5.686,0,0,0-5.6,4.9,15.829,15.829,0,0,0-.168,2.5v7.081H45.247c-3.782.022-6.425,2.438-6.433,5.858s2.563,5.792,6.378,5.884H45.3c.732.022,1.49.044,2.263.033a35.314,35.314,0,0,0,5.43,14.129c.707,1.073,1.464,2.105,2.241,3.1-.278.132-.553.26-.831.366a27.616,27.616,0,0,1-9.713,2.047,5.839,5.839,0,0,0-5.825,6,5.715,5.715,0,0,0,1.776,4.049A6.309,6.309,0,0,0,45.2,93.333a45.317,45.317,0,0,0,5.679-.494,36.955,36.955,0,0,0,13.693-5.162,36.955,36.955,0,0,0,17.574,5.635.67.67,0,0,1-.048.154l-.022.081c-.062.22-.124.436-.179.659s-.128.531-.183.805-.1.505-.135.758-.077.56-.106.831c0,.146-.029.289-.04.439l-43.759-.092c-3.954,0-5.642-1.728-5.642-5.723V37.909C32.045,33.717,33.765,32,37.983,32H91.437c2.9,0,4.69,1.175,5.316,3.493a7.484,7.484,0,0,1,.223,1.915v.037C97,52.082,97,66.9,96.995,81.533Z" transform="translate(-20.315 -20.284)" fill="none"/>
      <path id="Path_9186" data-name="Path 9186" d="M117.294,114.13a24.742,24.742,0,0,1-4.906,10.12,25.465,25.465,0,0,1-4.888-10.12Z" transform="translate(-68.154 -72.344)" fill="none"/>
      <path id="Path_9187" data-name="Path 9187" d="M282.922,273.055H270.54c2.039-5.609,4.057-11.148,6.191-17.025l.791,2.175q.388,1.1.78,2.145l.384,1.062c.644,1.772,1.281,3.518,1.918,5.265.762,2.1,1.519,4.192,2.288,6.3Z" transform="translate(-171.501 -162.291)" fill="none"/>
      <path id="Path_9188" data-name="Path 9188" d="M258.45,198.938H204.813a8.621,8.621,0,0,0-2.2.245c-2.761.732-3.343,3.182-3.346,5.1v54.146c0,3.709,1.691,5.433,5.312,5.444,17.962.022,36.18.022,54.146,0,3.661,0,5.444-1.809,5.444-5.514h0V204.627C264.18,200.75,262.357,198.938,258.45,198.938Zm-5.492,53.538a5.687,5.687,0,0,1-5.085,5.3,5.827,5.827,0,0,1-6.224-3.815c-1.142-2.929-2.127-5.572-3-8.055-1.6.037-3.2.029-4.76,0h-8.813c-.959,2.662-1.955,5.276-2.826,7.56-1.065,2.786-3.193,4.372-5.627,4.372a6.327,6.327,0,0,1-2.116-.388c-3.185-1.164-4.525-4.489-3.266-8.1l.15-.4.066-.168L225.8,209.786c1.465-3.965,4.273-4.584,5.821-4.6,2.658-.018,4.8,1.629,5.9,4.547l.3.809c4.76,12.653,9.695,25.738,14.524,38.622a8.051,8.051,0,0,1,.6,3.31Z" transform="translate(-126.325 -126.101)" fill="none"/>
      <path id="Path_9189" data-name="Path 9189" d="M149.447,75.055c-.132-.4-.245-.794-.366-1.194a19.5,19.5,0,0,0-1.146-3.237,16.188,16.188,0,0,0-15.3-9.519c-10.757-.04-21.693-.033-32.27-.029H88.539V16.893A16.6,16.6,0,0,0,71.649,0H16.778A16.546,16.546,0,0,0,.054,16.6C.021,34.947.021,53.557.1,71.943a17.382,17.382,0,0,0,1.7,7.22c2.929,6.059,8.274,9.263,15.45,9.27H61.127v44A16.626,16.626,0,0,0,67.834,146.3a19.908,19.908,0,0,0,7.707,3.2l.326.084h58.924l.319-.081a19.822,19.822,0,0,0,8.421-3.764,16.947,16.947,0,0,0,5.7-9.581,3.6,3.6,0,0,1,.139-.392l.2-.5V75.48ZM69.218,70.138l-.227.571-.447.425a7.176,7.176,0,0,1-5.184,1.944h-.366c-.366,0-.758-.026-1.135-.048a.671.671,0,0,1-.048.154l-.022.081c-.062.22-.124.436-.179.659s-.128.531-.183.805-.1.505-.135.758-.077.56-.106.831c0,.146-.029.289-.04.439l-43.759-.092c-3.954,0-5.642-1.728-5.642-5.723V17.629c.018-4.2,1.739-5.913,5.957-5.913H71.155c2.9,0,4.69,1.175,5.316,3.493a7.484,7.484,0,0,1,.223,1.915v.037c0,14.623.018,29.444,0,44.074a30.632,30.632,0,0,0-3.416.575,15.527,15.527,0,0,0-4.522,1.933c.1.124.194.256.282.392C70.068,65.778,70.119,67.791,69.218,70.138ZM137.9,132.262h0c0,3.705-1.783,5.492-5.444,5.514-17.966.022-36.184.022-54.146,0-3.621,0-5.309-1.735-5.312-5.444V78.186c0-1.915.586-4.353,3.346-5.1a8.62,8.62,0,0,1,2.2-.245h.048c17.706-.018,35.737-.022,53.59,0,3.907,0,5.73,1.812,5.73,5.7q-.015,26.859-.022,53.721Z" transform="translate(-0.033)" fill="#a5a5a5"/>
      <path id="Path_9190" data-name="Path 9190" d="M55.719,306.055a6.9,6.9,0,0,1-2.16,2.8,6.7,6.7,0,0,0-.578.538l-.809.864h-4.76l-.2-.033-1.541-.209c-1.157-.157-2.351-.315-3.551-.542C24.62,306.158,12,296.192,4.63,279.852A47.368,47.368,0,0,1,.646,259.818c.033-3.925,2.369-6.283,6.253-6.316,3.965-.029,8.025-.029,12.419,0,3.6.022,6.173,2.369,6.261,5.7a5.653,5.653,0,0,1-1.567,4.119,6.518,6.518,0,0,1-4.679,1.889c-2.222.029-4.441.022-6.792,0a41.11,41.11,0,0,0,.967,4.979,37.775,37.775,0,0,0,22.081,25.336,39.268,39.268,0,0,0,14.451,3.01,6.373,6.373,0,0,1,5.126,2.643A5.386,5.386,0,0,1,55.719,306.055Z" transform="translate(-0.42 -160.675)" fill="#a5a5a5"/>
      <path id="Path_9191" data-name="Path 9191" d="M312.1,50.724c-.037,3.731-2.369,6.1-6.092,6.155-2.065.033-4.166.048-6.341.048-2.061,0-4.185,0-6.4-.044-3.6-.048-6.18-2.523-6.151-5.887.026-3.3,2.621-5.759,6.169-5.829,2.288-.048,4.529-.037,6.9-.026h.044a35.825,35.825,0,0,0-5.144-14.854,37.59,37.59,0,0,0-24.721-17.614,41.291,41.291,0,0,0-5.492-.685c-.842-.07-1.71-.139-2.563-.231a6.316,6.316,0,0,1-4.426-2.343,5.686,5.686,0,0,1-1.1-4.361A5.825,5.825,0,0,1,262.844.078,49.936,49.936,0,0,1,312.1,50.724Z" transform="translate(-162.736 -0.049)" fill="#a5a5a5"/>
      <path id="Path_9192" data-name="Path 9192" d="M294.678,275.995c-.637-1.746-1.274-3.493-1.918-5.265.205.549.4,1.1.6,1.655Q294.034,274.2,294.678,275.995Z" transform="translate(-185.586 -171.609)"/>
      <path id="Path_9193" data-name="Path 9193" d="M272.286,260.009c-4.829-12.869-9.757-25.969-14.524-38.622l-.3-.809c-1.1-2.929-3.24-4.566-5.9-4.547-1.549,0-4.364.633-5.821,4.6l-14.345,39.007-.066.168-.15.4c-1.259,3.606.081,6.931,3.266,8.095a6.326,6.326,0,0,0,2.116.388c2.435,0,4.562-1.585,5.627-4.372.871-2.285,1.867-4.9,2.826-7.56,1.541.022,3.09,0,4.591,0h4.221c1.552,0,3.156.018,4.76,0,.871,2.482,1.856,5.126,3,8.055a5.808,5.808,0,0,0,6.224,3.815,5.687,5.687,0,0,0,5.085-5.3A8.054,8.054,0,0,0,272.286,260.009ZM257.674,247.7H245.292c2.039-5.609,4.057-11.148,6.191-17.025l.791,2.175.78,2.145.384,1.062c.205.549.4,1.1.6,1.655q.659,1.83,1.314,3.61c.762,2.1,1.519,4.192,2.288,6.3Z" transform="translate(-146.253 -136.936)"/>
      <path id="Path_9194" data-name="Path 9194" d="M95.566,85.475a6.184,6.184,0,0,0-4.647-2.184h-.026a38.231,38.231,0,0,1-5.224-.758,18.149,18.149,0,0,1-3.755-1.312,33.6,33.6,0,0,0,6.9-15.509h2.256c3.28-.148,5.575-2.4,5.529-5.362-.062-2.87-2.3-5-5.464-5.172a5.415,5.415,0,0,0-.8,0H78.909V50.954a37.685,37.685,0,0,0-.164-4.263v-.075a5.015,5.015,0,0,0-5.192-4.4A5.093,5.093,0,0,0,68.535,46.6a14.179,14.179,0,0,0-.151,2.237v6.343H56.322c-3.388.02-5.756,2.184-5.762,5.247s2.3,5.188,5.713,5.27h.1c.656.02,1.335.039,2.027.03a31.633,31.633,0,0,0,4.864,12.656c.633.961,1.312,1.886,2.007,2.781-.249.118-.5.233-.744.328a24.737,24.737,0,0,1-8.7,1.833A5.231,5.231,0,0,0,50.6,88.7a5.119,5.119,0,0,0,1.591,3.627A5.651,5.651,0,0,0,56.28,93.8a40.591,40.591,0,0,0,5.087-.443,33.1,33.1,0,0,0,12.266-4.624,33.1,33.1,0,0,0,15.742,5.047c.328.02.679.033,1.017.043h.328a6.428,6.428,0,0,0,4.618-1.741l.4-.38.2-.512a5.809,5.809,0,0,0-.131-5.365A3.483,3.483,0,0,0,95.566,85.475ZM78.007,65.8a22.163,22.163,0,0,1-4.395,9.065A22.81,22.81,0,0,1,69.234,65.8Z" transform="translate(-29.382 -26.753)"/>
    </g>
    <path id="Path_9195" data-name="Path 9195" d="M3538.9,5969.861s1.056-11.617,9.618-13.88-6.789,15.276-6.789,15.276Z" transform="translate(-105.791 -108.253)" fill="#a5a5a5"/>
  </g>
</svg>
