<?xml version="1.0" encoding="utf-8"?>
<!-- Generator: Adobe Illustrator 24.1.3, SVG Export Plug-In . SVG Version: 6.00 Build 0)  -->
<svg version="1.1" id="Layer_1" xmlns="http://www.w3.org/2000/svg" xmlns:xlink="http://www.w3.org/1999/xlink" x="0px" y="0px"
	 viewBox="0 0 500 500" style="enable-background:new 0 0 500 500;" xml:space="preserve">
<style type="text/css">
	.st0{fill:#FFFFFF;}
</style>
<path id="Icon_open-bell" class="st0" d="M249.63,41.49c-57.45,0.16-103.98,46.69-104.14,104.14
	c-1.31,54.26-26.92,105.05-69.76,138.37c-21.36,16.95-33.98,42.6-34.38,69.86h416.52c-0.14-27.32-12.8-53.07-34.34-69.86
	c-42.85-33.31-68.47-84.11-69.79-138.37c0.02-57.49-46.57-104.12-104.07-104.14C249.66,41.49,249.64,41.49,249.63,41.49z
	 M197.56,405.94c0,28.76,23.32,52.07,52.08,52.06c28.75,0,52.06-23.31,52.06-52.06H197.56z"/>
</svg>
