<?xml version="1.0" encoding="utf-8"?>
<!-- Generator: Adobe Illustrator 24.1.3, SVG Export Plug-In . SVG Version: 6.00 Build 0)  -->
<svg version="1.1" id="Layer_1" xmlns="http://www.w3.org/2000/svg" xmlns:xlink="http://www.w3.org/1999/xlink" x="0px" y="0px"
	 viewBox="0 0 500 500" style="enable-background:new 0 0 500 500;" xml:space="preserve">
<style type="text/css">
	.st0{fill:#0C4688;}
</style>
<g id="Volume-up">
	<path id="Path" class="st0" d="M276.27,145.87c-0.94-7.03-7.39-11.96-14.42-11.02c-2.37,0.32-4.6,1.29-6.45,2.8l-64.49,53.68
		c-1.15,0.96-2.61,1.49-4.11,1.49h-49.88c-8.85,0-16.03,7.18-16.03,16.03c0,0,0,0,0,0v57.73c0,8.85,7.18,16.03,16.03,16.03h49.88
		c1.5,0,2.96,0.53,4.11,1.49l64.49,53.68c5.45,4.53,13.54,3.79,18.08-1.66c1.57-1.88,2.56-4.17,2.87-6.6l1.14-9.9
		c6.8-54.43,6.8-109.5,0-163.93L276.27,145.87z"/>
	<path id="Path-2" class="st0" d="M344.26,160.03c5.02-1.61,10.4,1.11,12.07,6.11c7.62,23.09,11.5,47.26,11.47,71.58
		c0.03,24.32-3.85,48.48-11.47,71.58c-1.62,5.06-7.04,7.85-12.1,6.23c-5.06-1.62-7.85-7.04-6.23-12.1c0.02-0.06,0.04-0.11,0.05-0.17
		c7.01-21.14,10.58-43.27,10.57-65.54c0.02-22.26-3.52-44.38-10.5-65.52c-1.67-5.04,1.07-10.49,6.11-12.16
		C344.25,160.03,344.25,160.03,344.26,160.03z"/>
	<path id="Path-3" class="st0" d="M320.21,185.72c-1.83-4.99-7.36-7.56-12.36-5.73c-4.99,1.83-7.56,7.36-5.73,12.36
		c5.33,14.53,8.05,29.89,8.03,45.36c0,12.88-1.89,25.69-5.6,38.02c-0.19,0.67-0.39,1.34-0.6,2c-0.57,1.79-1.2,3.57-1.87,5.32
		c-1.82,5,0.77,10.53,5.77,12.35c5,1.82,10.53-0.77,12.35-5.77l0,0c0.75-2.02,1.44-4.05,2.09-6.11c0.25-0.76,0.49-1.53,0.71-2.3
		c4.25-14.14,6.4-28.82,6.39-43.59C329.42,219.93,326.31,202.35,320.21,185.72z"/>
</g>
</svg>
