<?xml version="1.0" encoding="utf-8"?>
<!-- Generator: Adobe Illustrator 24.1.3, SVG Export Plug-In . SVG Version: 6.00 Build 0)  -->
<svg version="1.1" id="Layer_1" xmlns="http://www.w3.org/2000/svg" xmlns:xlink="http://www.w3.org/1999/xlink" x="0px" y="0px"
	 viewBox="0 0 500 500" style="enable-background:new 0 0 500 500;" xml:space="preserve">
<style type="text/css">
	.st0{fill:#FFFFFF;}
</style>
<path id="Icon_ionic-ios-call" class="st0" d="M416.86,340.83c-18.12-15.76-38.15-29.16-59.63-39.9
	c-17.87-8.58-24.41-8.39-37.07,0.72c-10.54,7.56-17.34,14.7-29.47,12.02c-22.59-10.26-42.76-25.18-59.17-43.79
	c-18.64-16.38-33.57-36.56-43.79-59.17c-2.57-12.2,4.5-18.89,12.02-29.47c9.11-12.66,9.37-19.19,0.72-37.07
	c-10.69-21.49-24.1-41.52-39.9-59.59c-13-13-15.91-10.16-23.09-7.56c-7.38,3.12-14.47,6.92-21.16,11.34
	c-10.92,6.23-19.75,15.55-25.39,26.79c-5.03,10.88-10.88,31.14,18.89,84.03c21.94,40.43,49.7,77.42,82.41,109.77l0,0l0,0l0,0l0,0
	c32.42,32.71,69.47,60.49,109.96,82.45c52.9,29.74,73.15,23.88,84.03,18.89c11.28-5.58,20.61-14.43,26.79-25.39
	c4.42-6.69,8.21-13.78,11.34-21.16C427.02,356.78,429.93,353.83,416.86,340.83z"/>
</svg>
