<?xml version="1.0" encoding="utf-8"?>
<!-- Generator: Adobe Illustrator 24.1.3, SVG Export Plug-In . SVG Version: 6.00 Build 0)  -->
<svg version="1.1" id="Layer_1" xmlns="http://www.w3.org/2000/svg" xmlns:xlink="http://www.w3.org/1999/xlink" x="0px" y="0px"
	 viewBox="0 0 500 500" style="enable-background:new 0 0 500 500;" xml:space="preserve">
<style type="text/css">
	.st0{fill:#BF2B2B;}
</style>
<g id="Cross" transform="translate(-0.714 -0.714)">
	<path id="Path" class="st0" d="M328.88,356.6c7.89,7.35,20.24,6.92,27.6-0.97c6.99-7.5,6.99-19.12,0-26.62l-78.23-78.23
		l78.23-78.26c7.35-7.89,6.92-20.24-0.97-27.6c-7.5-6.99-19.12-6.99-26.62,0l-78.23,78.23l-78.26-78.23
		c-7.89-7.35-20.24-6.92-27.6,0.97c-6.99,7.5-6.99,19.12,0,26.62l78.23,78.26l-78.23,78.23c-7.35,7.89-6.92,20.24,0.97,27.6
		c7.5,6.99,19.12,6.99,26.62,0l78.26-78.23L328.88,356.6z"/>
</g>
</svg>
