<?xml version="1.0" encoding="utf-8"?>
<!-- Generator: Adobe Illustrator 24.1.3, SVG Export Plug-In . SVG Version: 6.00 Build 0)  -->
<svg version="1.1" id="Layer_1" xmlns="http://www.w3.org/2000/svg" xmlns:xlink="http://www.w3.org/1999/xlink" x="0px" y="0px"
	 viewBox="0 0 500 500" style="enable-background:new 0 0 500 500;" xml:space="preserve">
<style type="text/css">
	.st0{fill:#FFFFFF;}
</style>
<g id="Cross" transform="translate(-0.714 -0.714)">
	<path id="Path" class="st0" d="M419.73,479.5c17.05,15.88,43.74,14.96,59.65-2.1c15.11-16.21,15.11-41.32,0-57.53L310.31,250.8
		L479.38,81.67c15.88-17.05,14.96-43.74-2.1-59.65c-16.21-15.11-41.32-15.11-57.53,0L250.68,191.09L81.55,22.02
		C64.49,6.13,37.8,7.06,21.9,24.11c-15.11,16.21-15.11,41.32,0,57.53l169.07,169.14L21.9,419.85c-15.88,17.05-14.96,43.74,2.1,59.65
		c16.21,15.11,41.32,15.11,57.53,0l169.14-169.07L419.73,479.5z"/>
</g>
</svg>
