<?xml version="1.0" encoding="utf-8"?>
<!-- Generator: Adobe Illustrator 24.1.3, SVG Export Plug-In . SVG Version: 6.00 Build 0)  -->
<svg version="1.1" id="Layer_1" xmlns="http://www.w3.org/2000/svg" xmlns:xlink="http://www.w3.org/1999/xlink" x="0px" y="0px"
	 viewBox="0 0 500 500" style="enable-background:new 0 0 500 500;" xml:space="preserve">
<style type="text/css">
	.st0{fill:#FFFFFF;}
</style>
<g id="Download">
	<path id="Path" class="st0" d="M172.57,291.76c4.82,0,8.74,3.91,8.74,8.74v23.21c-0.05,1.6,1.21,2.94,2.82,2.99
		c0.02,0,0.03,0,0.05,0h139.46c1.6,0,2.9-1.3,2.9-2.9v-23.3c0-4.82,3.91-8.74,8.74-8.74c4.82,0,8.74,3.91,8.74,8.74v23.21
		c0,11.23-9.1,20.33-20.33,20.33h-139.5c-11.23,0-20.33-9.1-20.33-20.33c0,0,0,0,0,0v-23.21
		C163.83,295.67,167.75,291.76,172.57,291.76z"/>
	<path id="Path-2" class="st0" d="M239.24,146.49c-5.98,0-10.97,4.57-11.49,10.53c-1.78,20.33-2.09,40.77-0.94,61.15
		c-2.91,0.16-5.78,0.34-8.6,0.55l-17.32,1.38c-4.82,0.27-8.51,4.39-8.24,9.2c0.09,1.56,0.59,3.06,1.45,4.36
		c12.34,19.32,28.23,36.11,46.84,49.49l6.94,4.98c3.6,2.58,8.44,2.58,12.03,0l7.01-4.98c18.59-13.38,34.46-30.18,46.78-49.49
		c2.67-4.02,1.58-9.44-2.43-12.11c-1.3-0.86-2.8-1.36-4.36-1.45l-17.32-1.27c-2.91-0.2-5.78-0.39-8.6-0.55
		c1.15-20.42,0.83-40.89-0.96-61.26c-0.52-5.95-5.49-10.51-11.47-10.53H239.24z"/>
</g>
</svg>
