<svg id="Layer_1" data-name="Layer 1" xmlns="http://www.w3.org/2000/svg" viewBox="0 0 447.22 445.51"><defs><style>.cls-1{fill:#fff;}</style></defs><path class="cls-1" d="M85.27,138.81l-35.5,35.92c-2.11,2.14-4.26,4.23-6.34,6.39-3,3.16-6.5,4.69-10.78,2.91s-5.71-5.27-5.71-9.64q0-25.74-.05-51.48,0-42.49,0-85c0-8.7,3.1-11.86,11.64-11.87Q106.26,26,174,26c4.85,0,9,.89,11,5.91s-.52,8.23-3.78,11.46c-14.41,14.31-28.77,28.69-43.91,43.81,7.22,7,14.34,13.69,21.29,20.59,14.9,14.79,29.51,29.87,44.63,44.43,8.32,8,10.63,17.3,7.27,27.77-5.6,17.44-17.31,28.93-35.36,33.29-9.27,2.24-17.3,0-24.18-7-20-20.26-40.27-40.31-60.37-60.52C88.73,143.88,87.34,141.54,85.27,138.81Z" transform="translate(-26.39 -25.99)"/><path class="cls-1" d="M360.43,84.79c-8-7.86-15.18-15-22.36-22.1-6.5-6.46-12.93-13-19.45-19.43-3.07-3-4.85-6.38-3.11-10.73,1.81-4.54,5.43-5.79,10-5.79q68.72.06,137.45,0c7.16,0,10.52,3.22,10.54,10.35q.12,69,.09,137.94c0,4.37-1.54,7.92-5.81,9.59s-7.68.18-10.79-3c-12.32-12.43-24.75-24.74-37.08-37.15-2.21-2.23-4.16-4.73-7.25-8.28-3.4,3.89-5.95,7.13-8.84,10-18.43,18.55-37.26,36.73-55.31,55.65-11,11.5-23.22,11.66-34.5,6.26-16.21-7.76-26.83-20.07-28.37-38.69-.59-7.18,2.06-13.27,7.25-18.42q31.38-31.17,62.61-62.5A56.17,56.17,0,0,1,360.43,84.79Z" transform="translate(-26.39 -25.99)"/><path class="cls-1" d="M86.67,361c14.82-14.93,28.66-28.89,42.52-42.82,7.87-7.92,16-15.63,23.59-23.77,7.28-7.79,15.86-9.76,25.9-7.46,18.14,4.15,34,21.87,35.46,39.56a24.28,24.28,0,0,1-7.47,20.3c-20.85,20.62-41.52,41.42-62.25,62.16-1.28,1.28-2.51,2.61-4.8,5,4.93,4.49,9.82,8.7,14.41,13.2,9.05,8.86,17.88,17.95,26.91,26.82,3.41,3.34,5.25,7,3.24,11.6-1.93,4.44-5.79,5.45-10.31,5.45q-68-.11-136-.09c-8.4,0-11.42-3-11.43-11.44q-.06-68.24-.09-136.46c0-4.54,1.15-8.22,5.72-10.07s8,.16,11.12,3.33c13.17,13.22,26.4,26.38,39.55,39.62A54.16,54.16,0,0,1,86.67,361Z" transform="translate(-26.39 -25.99)"/><path class="cls-1" d="M362.9,411.29l-52.74-52.53c-4.72-4.7-9.31-9.55-14.16-14.11-7.26-6.82-9.25-15-7.31-24.56,3.75-18.47,21.89-34.95,40.34-36.4a23,23,0,0,1,19,6.89q31.56,31.68,63.27,63.22c1.16,1.16,2.39,2.25,4.43,4.16,4.8-5.07,9.39-10.06,14.15-14.89,8.65-8.78,17.46-17.4,26.09-26.2,3.17-3.25,6.65-5.17,11.13-3.38s5.77,5.46,5.77,10.07q-.07,68.7,0,137.42c0,7-3.31,10.5-10.39,10.5q-69,.06-137.92,0c-4.39,0-7.87-1.43-9.62-5.69s-.17-7.69,2.94-10.77c13.34-13.28,26.61-26.63,39.95-39.9A50.24,50.24,0,0,1,362.9,411.29Z" transform="translate(-26.39 -25.99)"/></svg>