<?xml version="1.0" encoding="utf-8"?>
<!-- Generator: Adobe Illustrator 24.1.3, SVG Export Plug-In . SVG Version: 6.00 Build 0)  -->
<svg version="1.1" id="Layer_1" xmlns="http://www.w3.org/2000/svg" xmlns:xlink="http://www.w3.org/1999/xlink" x="0px" y="0px"
	 viewBox="0 0 500 500" style="enable-background:new 0 0 500 500;" xml:space="preserve">
<style type="text/css">
	.st0{fill:#FFFFFF;}
</style>
<g id="Group_1250" transform="translate(-291.122 -396.765)">
	<path id="Path_11" class="st0" d="M707.09,577.55V729.5c0,0.17-0.31,0.31-0.36,0.53c-2.5,16-16.99,27.32-33.12,25.86H409.53
		c-1.06,0-2.15,0-3.24,0c-16.81-0.14-30.32-13.87-30.19-30.68c0-0.11,0-0.23,0-0.34c0-48.27,0-96.54,0-144.8
		c0.04-0.82,0.13-1.64,0.25-2.46c0.59,0.31,0.87,0.45,1.14,0.64l134.02,89.35c17.76,13.38,42.24,13.38,60,0l119.87-79.88
		C696.54,584.27,701.87,580.95,707.09,577.55z"/>
	<path id="Path_12" class="st0" d="M707.09,542.64c-0.88,3.41-2.17,6.7-3.83,9.8c-2.53,3.98-5.77,7.46-9.55,10.28
		c-44.94,30.23-89.98,60.29-135.14,90.19c-10.14,7.38-23.87,7.38-34.01,0c-45.23-29.99-90.39-60.08-135.48-90.27
		c-10.65-6.95-15.48-20.08-11.87-32.28c3.52-12.76,14.87-21.78,28.09-22.34c0.98,0,1.93,0,2.79,0h266.68
		c13.76-0.72,26.32,7.82,30.71,20.89c0.61,1.82,1.06,3.69,1.62,5.58L707.09,542.64z"/>
</g>
</svg>
