<?xml version="1.0" encoding="utf-8"?>
<!-- Generator: Adobe Illustrator 24.1.3, SVG Export Plug-In . SVG Version: 6.00 Build 0)  -->
<svg version="1.1" id="Layer_1" xmlns="http://www.w3.org/2000/svg" xmlns:xlink="http://www.w3.org/1999/xlink" x="0px" y="0px"
	 viewBox="0 0 500 500" style="enable-background:new 0 0 500 500;" xml:space="preserve">
<style type="text/css">
	.st0{fill:#FF0000;}
</style>
<g id="Gmail" transform="translate(0 0)">
	<path id="Shape" class="st0" d="M249.84,351.82c-22.91,0-46.13-1.06-68.93-3.14l-19.77-1.8c-19.89-1.88-35.86-17.22-38.53-37.02
		c-6.44-44.94-6.44-90.56,0-135.5c2.61-19.85,18.58-35.27,38.51-37.17l19.77-1.8c22.83-2.09,46.03-3.14,68.96-3.14
		s46.1,1.06,68.93,3.14l19.77,1.8c19.94,1.85,35.96,17.24,38.61,37.09c6.46,44.94,6.46,90.57,0,135.5
		c-2.65,19.85-18.67,35.24-38.61,37.09l-19.77,1.8C295.94,350.76,272.75,351.82,249.84,351.82z M324.8,198.94L324.8,198.94v109.5
		c0,5.4,4.38,9.78,9.78,9.78c5.4,0,9.78-4.38,9.78-9.78l0,0V182.31c0-3.48-1.8-6.72-4.76-8.55c-2.93-1.84-6.63-1.97-9.68-0.33
		l-80.08,43.99l-80.11-43.99c-3.02-1.67-6.7-1.59-9.65,0.21c-2.96,1.83-4.76,5.06-4.76,8.55v126.13c-0.28,5.4,3.87,9.99,9.27,10.27
		c5.4,0.28,9.99-3.87,10.27-9.27c0.02-0.33,0.02-0.67,0-1V198.94l70.32,38.61c2.88,1.59,6.38,1.59,9.27,0l70.3-38.61H324.8z"/>
</g>
</svg>
