<?xml version="1.0" encoding="utf-8"?>
<!-- Generator: Adobe Illustrator 24.1.3, SVG Export Plug-In . SVG Version: 6.00 Build 0)  -->
<svg version="1.1" id="Layer_1" xmlns="http://www.w3.org/2000/svg" xmlns:xlink="http://www.w3.org/1999/xlink" x="0px" y="0px"
	 viewBox="0 0 500 500" style="enable-background:new 0 0 500 500;" xml:space="preserve">
<style type="text/css">
	.st0{fill:#FFFFFF;}
</style>
<g id="Clipboard-alt" transform="translate(0 0)">
	<path id="Shape" class="st0" d="M311.05,167.38H203.26c-7.44,0-13.47-6.03-13.47-13.47c0-0.03,0-0.06,0-0.09v-35.93
		c0.07-27.24,22.16-49.3,49.4-49.31h35.93c27.27,0.02,49.37,22.11,49.4,49.37v35.93c0.02,7.44-6,13.49-13.44,13.5
		C311.07,167.38,311.06,167.38,311.05,167.38z M239.19,95.52c-12.38,0.02-22.42,10.04-22.46,22.43v22.49h80.84v-22.49
		c-0.03-12.38-10.07-22.41-22.46-22.43H239.19z"/>
	<path id="Shape-2" class="st0" d="M257.15,427c-27.19,0-54.36-1.68-81.35-5.03c-30.46-3.82-53.34-29.69-53.38-60.39V173.22
		c0.11-24.12,13.96-46.08,35.69-56.56c0.45-0.22,0.94-0.33,1.44-0.33c1.88,0.03,3.39,1.59,3.35,3.47c0,0,0,0,0,0v34.01
		c0.05,22.27,18.09,40.31,40.36,40.36h107.79c22.28-0.02,40.35-18.05,40.42-40.33V119.8c-0.03-1.88,1.47-3.44,3.35-3.47c0,0,0,0,0,0
		c0.5,0,0.99,0.11,1.44,0.33c21.71,10.49,35.54,32.45,35.63,56.56v188.36c-0.06,30.71-22.95,56.58-53.41,60.39
		C311.5,425.32,284.34,427,257.15,427z M203.26,297.41c-7.44,0-13.47,6.03-13.47,13.47c0,7.44,6.03,13.47,13.47,13.47h89.82
		c7.44,0,13.47-6.03,13.47-13.47c0-7.44-6.03-13.47-13.47-13.47l0,0H203.26z M203.26,243.52c-7.44,0-13.47,6.03-13.47,13.47
		c0,7.44,6.03,13.47,13.47,13.47h107.79c7.44,0,13.47-6.03,13.47-13.47c0-7.44-6.03-13.47-13.47-13.47H203.26z"/>
</g>
</svg>
