<?xml version="1.0" encoding="utf-8"?>
<!-- Generator: Adobe Illustrator 24.1.3, SVG Export Plug-In . SVG Version: 6.00 Build 0)  -->
<svg version="1.1" id="Layer_1" xmlns="http://www.w3.org/2000/svg" xmlns:xlink="http://www.w3.org/1999/xlink" x="0px" y="0px"
	 viewBox="0 0 500 500" style="enable-background:new 0 0 500 500;" xml:space="preserve">
<style type="text/css">
	.st0{fill:#FFFFFF;}
</style>
<g id="Pause">
	<path id="Path" class="st0" d="M326.52,160.61c6.18,2.02,10.4,7.75,10.48,14.25v150.02c-0.11,6.48-4.31,12.18-10.48,14.18
		c-11.94,4.14-24.93,4.14-36.87,0c-6.17-2-10.39-7.7-10.5-14.18V174.86c0.08-6.5,4.29-12.23,10.48-14.25
		C301.58,156.48,314.57,156.48,326.52,160.61z"/>
	<path id="Path-2" class="st0" d="M210.86,160.61c6.18,2.02,10.4,7.75,10.48,14.25v150.02c-0.11,6.48-4.31,12.18-10.48,14.18
		c-11.94,4.14-24.93,4.14-36.87,0c-6.17-2-10.39-7.7-10.5-14.18V174.86c0.08-6.5,4.29-12.23,10.48-14.25
		C185.91,156.47,198.91,156.47,210.86,160.61z"/>
</g>
</svg>
