<?xml version="1.0" encoding="utf-8"?>
<!-- Generator: Adobe Illustrator 24.1.3, SVG Export Plug-In . SVG Version: 6.00 Build 0)  -->
<svg version="1.1" id="Layer_1" xmlns="http://www.w3.org/2000/svg" xmlns:xlink="http://www.w3.org/1999/xlink" x="0px" y="0px"
	 viewBox="0 0 500 500" style="enable-background:new 0 0 500 500;" xml:space="preserve">
<style type="text/css">
	.st0{fill:#FF0000;}
</style>
<path id="Icon_material-picture-as-pdf" class="st0" d="M351.63,123.39h-152.2c-13.99,0.04-25.33,11.37-25.37,25.37v152.2
	c0.04,13.99,11.37,25.33,25.37,25.37h152.2c13.99-0.04,25.33-11.37,25.37-25.37v-152.2C376.96,134.77,365.63,123.43,351.63,123.39z
	 M243.82,218.52c0.01,10.49-8.48,19.01-18.98,19.03c-0.02,0-0.03,0-0.05,0h-12.68v25.37h-19.03v-76.1h31.71
	c10.49-0.01,19.01,8.48,19.03,18.98c0,0.02,0,0.03,0,0.05L243.82,218.52z M307.24,243.89c0.01,10.49-8.48,19.01-18.98,19.03
	c-0.02,0-0.03,0-0.05,0h-31.71v-76.1h31.66c10.49-0.01,19.01,8.48,19.03,18.98c0,0.02,0,0.03,0,0.05L307.24,243.89z M357.97,205.81
	h-19.03v12.68h19.03v19.03h-19.03v25.39h-19.03v-76.1h38.05L357.97,205.81z M212.11,218.5h12.68v-12.68h-12.68V218.5z M148.7,174.13
	h-25.37V351.7c0.04,13.99,11.37,25.33,25.37,25.37h177.57V351.7H148.7V174.13z M275.53,243.89h12.64v-38.07h-12.64V243.89z"/>
</svg>
