<?xml version="1.0" encoding="utf-8"?>
<!-- Generator: Adobe Illustrator 24.1.3, SVG Export Plug-In . SVG Version: 6.00 Build 0)  -->
<svg version="1.1" id="Layer_1" xmlns="http://www.w3.org/2000/svg" xmlns:xlink="http://www.w3.org/1999/xlink" x="0px" y="0px"
	 viewBox="0 0 500 500" style="enable-background:new 0 0 500 500;" xml:space="preserve">
<style type="text/css">
	.st0{fill:#FFFFFF;}
</style>
<g id="Play">
	<path id="Path" class="st0" d="M319.96,252.88c7.99-6.26,9.38-17.82,3.12-25.8c-0.91-1.16-1.96-2.21-3.12-3.12
		c-28.34-22.11-60.02-39.56-93.86-51.68l-6.21-2.21c-10.22-3.58-21.41,1.8-25,12.02c-0.47,1.33-0.79,2.71-0.96,4.1
		c-4.47,34.67-4.47,69.78,0,104.45c1.29,10.75,11.05,18.43,21.81,17.14c1.41-0.17,2.8-0.49,4.15-0.96l6.18-2.21
		C259.93,292.48,291.62,275.02,319.96,252.88z"/>
</g>
</svg>
