<?xml version="1.0" encoding="utf-8"?>
<!-- Generator: Adobe Illustrator 24.1.3, SVG Export Plug-In . SVG Version: 6.00 Build 0)  -->
<svg version="1.1" id="Layer_1" xmlns="http://www.w3.org/2000/svg" xmlns:xlink="http://www.w3.org/1999/xlink" x="0px" y="0px"
	 viewBox="0 0 500 500" style="enable-background:new 0 0 500 500;" xml:space="preserve">
<style type="text/css">
	.st0{fill:#FFFFFF;}
</style>
<path id="Path_5" class="st0" d="M324.01,190.29c0.44,26.46-7.56,52.37-22.84,73.99c-4.57,6.44-3.15,9.91,1.74,15.25
	c6.2,9.05,17.49,13.14,28.04,10.14c13.29-2.5,26.9,2.31,35.67,12.61c19.97,19.88,39.89,39.84,59.74,59.88
	c14.67,13.08,18.82,34.34,10.14,51.97c-7.02,17.34-25.18,27.45-43.62,24.25c-9.75-1.32-18.89-5.5-26.26-12.01
	c-21.69-19.87-42.2-41.1-62.84-62.16c-10.1-11.11-14.21-26.43-11.01-41.1c1.1-8.18-9.91-26.17-17.72-27.4
	c-3.72,0.3-7.26,1.74-10.14,4.11c-60.51,40.75-142.59,24.73-183.33-35.77c-32.19-47.8-29.68-110.96,6.22-156.05
	c7.54-8.68,15.68-16.83,24.34-24.39c2.89-2.54,6.06-4.73,9.45-6.53c10.37-5.98,19.73-4.57,24.57,3.38
	c4.34,7.17,1.37,15.07-7.76,22.06c-6.46,4.64-12.56,9.76-18.27,15.3c-26.99,25.22-37.1,63.7-25.99,98.92
	c9.59,36.35,38.76,64.25,75.5,72.21c54.84,12.18,109.16-22.41,121.34-77.25c2.3-10.35,2.96-20.99,1.97-31.54
	c-3.08-40.5-30.38-75.1-69.06-87.51c-1.51-0.55-3.06-1.05-4.57-1.69c-9.87-4.57-14.25-12.56-11.1-20.42
	c3.79-8.31,13.59-11.97,21.9-8.18c0.01,0,0.01,0.01,0.02,0.01C286.16,79.75,324.24,131.66,324.01,190.29z"/>
</svg>
