<?xml version="1.0" encoding="utf-8"?>
<!-- Generator: Adobe Illustrator 24.1.3, SVG Export Plug-In . SVG Version: 6.00 Build 0)  -->
<svg version="1.1" id="Layer_1" xmlns="http://www.w3.org/2000/svg" xmlns:xlink="http://www.w3.org/1999/xlink" x="0px" y="0px"
	 viewBox="0 0 500 500" style="enable-background:new 0 0 500 500;" xml:space="preserve">
<style type="text/css">
	.st0{fill:#0C4688;}
</style>
<g id="Chat" transform="translate(0 0)">
	<path id="Shape" class="st0" d="M165.46,327.26c-4.44-0.01-8.03-3.6-8.04-8.04v-91.33c0-27.64,21.31-50.61,48.88-52.69l2.08-0.15
		c13.5-1.01,27.21-1.54,40.76-1.54c15.37,0,30.75,0.66,46.12,1.95l17.4,1.54c13.16,1.09,23.86,11.08,25.83,24.14l1.11,7.16
		c3.74,24.32,3.39,49.09-1.03,73.29c-2.2,11.95-12.64,20.61-24.78,20.57h-96.23c-2.21-0.02-4.39,0.51-6.35,1.54l-41.93,22.6
		C168.1,326.93,166.79,327.26,165.46,327.26z M294.13,228.09c-7.4,0.01-13.38,6.01-13.38,13.41c0.01,7.4,6.01,13.38,13.41,13.38
		c7.38-0.01,13.37-5.99,13.38-13.38C307.53,234.1,301.54,228.1,294.13,228.09z M251.24,228.09c-7.4,0.01-13.38,6.01-13.38,13.41
		c0.01,7.4,6.01,13.38,13.41,13.38c7.38-0.01,13.37-5.99,13.38-13.38c-0.01-7.41-6.02-13.42-13.44-13.41c0,0,0,0,0,0H251.24z
		 M208.36,228.09c-7.4,0.01-13.38,6.01-13.38,13.41s6.01,13.38,13.41,13.38c7.38-0.01,13.37-5.99,13.38-13.38
		C221.76,234.1,215.76,228.1,208.36,228.09z"/>
</g>
</svg>
