<?xml version="1.0" encoding="utf-8"?>
<!-- Generator: Adobe Illustrator 24.1.3, SVG Export Plug-In . SVG Version: 6.00 Build 0)  -->
<svg version="1.1" id="Layer_1" xmlns="http://www.w3.org/2000/svg" xmlns:xlink="http://www.w3.org/1999/xlink" x="0px" y="0px"
	 viewBox="0 0 500 500" style="enable-background:new 0 0 500 500;" xml:space="preserve">
<style type="text/css">
	.st0{fill:#0A7727;}
</style>
<path id="Icon_simple-microsoftword" class="st0" d="M389.98,130.94v200.85c0.04,1.6-0.62,3.13-1.81,4.2
	c-1.18,1.11-2.74,1.71-4.36,1.67H279.85V309.8h84.81v-12.68h-84.83v-15.53h84.75v-12.68h-84.69v-15.67h84.73v-12.52h-84.73v-15.69
	h84.73v-12.66h-84.73v-15.53h84.73v-12.66h-84.73v-15.84h84.73v-12.07h-84.73v-31.45h103.95c1.65-0.08,3.24,0.59,4.34,1.81
	c1.2,1.11,1.87,2.69,1.81,4.32L389.98,130.94z M264.36,93.4v275.82L98.66,340.54V122.79l165.69-29.43V93.4z M239.31,174.83
	l-20.75,1.28l-13.25,82.35H205c-0.65-3.89-3.1-17.55-7.46-40.87l-7.77-39.6l-19.47,0.98l-7.79,38.73
	c-4.55,22.42-7.09,35.61-7.77,39.28h-0.18L142.73,181l-17.84,0.9l19.12,95.8l19.83,1.28l7.46-37.24
	c4.36-21.85,6.91-34.55,7.46-38.01h0.55c0.73,3.71,3.1,16.67,7.46,38.97l7.46,38.34l21.48,1.28l24.03-107.42h-0.45V174.83z"/>
</svg>
